<?xml version="1.0" encoding="iso-8859-1"?>
<!-- Generator: Adobe Illustrator 19.0.0, SVG Export Plug-In . SVG Version: 6.00 Build 0)  -->
<svg version="1.1" id="Layer_1" xmlns="http://www.w3.org/2000/svg" xmlns:xlink="http://www.w3.org/1999/xlink" x="0px" y="0px"
	 viewBox="0 0 436 436" style="enable-background:new 0 0 436 436;" xml:space="preserve">
<g>
	<g>
		<path d="M428,357.75h-24.5v-37c0-4.418-3.582-8-8-8H366V129.512c1.326,0.158,2.663,0.238,4,0.238c18.748,0,34-15.252,34-34
			c0-14.974-9.494-27.352-23-31.763V25.25c0-4.418-3.582-8-8-8H63c-4.419,0-8,3.582-8,8v39.075C42.026,69.009,33,81.148,33,95.75
			c0,18.748,15.252,34,34,34c1.007,0,2.008-0.043,3-0.13v183.13H40.5c-4.419,0-8,3.582-8,8v37H8c-4.419,0-8,3.582-8,8v45
			c0,4.418,3.581,8,8,8h420c4.418,0,8-3.582,8-8v-45C436,361.332,432.418,357.75,428,357.75z M388,95.75c0,9.925-8.075,18-18,18
			c-2.924,0-5.717-0.683-8.302-2.03c-2.48-1.293-5.456-1.195-7.846,0.253c-2.392,1.45-3.852,4.044-3.852,6.841V267.75h-19V78.25h39
			C380.093,78.25,388,85.937,388,95.75z M189.143,78.25h58.715C244.765,83.314,243,89.291,243,95.75c0,18.748,15.252,34,34,34
			c1.007,0,2.008-0.043,3-0.13v138.13H156V129.512c1.326,0.158,2.663,0.238,4,0.238c18.748,0,34-15.252,34-34
			C194,89.291,192.234,83.314,189.143,78.25z M292.295,112.561c-2.308-1.47-5.207-1.657-7.684-0.498
			c-2.394,1.12-4.955,1.688-7.611,1.688c-9.925,0-18-8.075-18-18c0-9.813,7.907-17.5,18-17.5h38v189.5h-19v-0.001V119.31
			C296,116.575,294.602,114.029,292.295,112.561z M160,113.75c-2.924,0-5.717-0.683-8.302-2.03c-2.48-1.293-5.456-1.195-7.846,0.253
			c-2.392,1.45-3.852,4.044-3.852,6.841V267.75h-19V78.25h39c10.093,0,18,7.687,18,17.5C178,105.675,169.925,113.75,160,113.75z
			 M350,283.75v29H86v-29H350z M71,33.25h294v29H71V33.25z M67,113.75c-9.925,0-18-8.075-18-18c0-9.813,7.907-17.5,18-17.5h38v189.5
			H86V119.31c0-2.735-1.398-5.281-3.705-6.749c-2.308-1.47-5.207-1.657-7.684-0.498C72.217,113.183,69.656,113.75,67,113.75z
			 M48.5,328.75h339v29h-339V328.75z M420,402.75H16v-29h404V402.75z"/>
	</g>
</g>
<g>
</g>
<g>
</g>
<g>
</g>
<g>
</g>
<g>
</g>
<g>
</g>
<g>
</g>
<g>
</g>
<g>
</g>
<g>
</g>
<g>
</g>
<g>
</g>
<g>
</g>
<g>
</g>
<g>
</g>
</svg>
