<?xml version="1.0" encoding="iso-8859-1"?>
<!-- Generator: Adobe Illustrator 19.0.0, SVG Export Plug-In . SVG Version: 6.00 Build 0)  -->
<svg version="1.1" id="Layer_1" xmlns="http://www.w3.org/2000/svg" xmlns:xlink="http://www.w3.org/1999/xlink" x="0px" y="0px"
	 viewBox="0 0 426 426" style="enable-background:new 0 0 426 426;" xml:space="preserve">
<g>
	<g>
		<g>
			<path d="M418,113H303.5V56c0-4.418-3.582-8-8-8h-165c-4.419,0-8,3.582-8,8v57H8c-4.419,0-8,3.581-8,8v249c0,4.418,3.581,8,8,8
				h410c4.418,0,8-3.582,8-8V121C426,116.581,422.418,113,418,113z M138.5,64h149v49h-149V64z M45,362H16V129h29V362z M365,362
				H237.913c-1.187-2.931-4.056-5-7.413-5s-6.226,2.069-7.413,5h-20.174c-1.187-2.931-4.056-5-7.413-5s-6.226,2.069-7.413,5H61V129
				h126.5v4c0,4.419,3.581,8,8,8c4.418,0,8-3.581,8-8v-4h19v4c0,4.419,3.581,8,8,8c4.418,0,8-3.581,8-8v-4H365V362z M410,362h-29
				V129h29V362z"/>
			<path d="M93,225h49c4.418,0,8-3.581,8-8v-49c0-4.419-3.582-8-8-8H93c-4.419,0-8,3.581-8,8v49C85,221.419,88.581,225,93,225z
				 M101,176h33v33h-33V176z"/>
			<path d="M157.556,284.896C153.155,268.471,138.217,257,121.229,257c-3.281,0-6.563,0.434-9.761,1.29l-0.573,0.154
				c-20.04,5.37-31.976,26.042-26.605,46.087l0.154,0.573C88.845,321.529,103.783,333,120.769,333c3.281,0,6.564-0.434,9.755-1.289
				l0.58-0.155c20.04-5.37,31.976-26.042,26.605-46.086L157.556,284.896z M126.965,316.1l-0.58,0.155
				c-1.843,0.494-3.732,0.745-5.616,0.745c-9.758,0-18.34-6.595-20.872-16.041l-0.154-0.573c-3.086-11.519,3.774-23.4,15.297-26.488
				l0.573-0.154c1.843-0.494,3.732-0.744,5.615-0.744c9.759,0,18.341,6.594,20.873,16.04l0.154,0.574
				C145.342,301.133,138.482,313.014,126.965,316.1z"/>
			<path d="M300.844,333.656c1.562,1.562,3.609,2.343,5.657,2.343c2.047,0,4.095-0.781,5.657-2.343l36.5-36.5
				c3.125-3.124,3.125-8.189,0-11.313l-36.501-36.5c-3.124-3.124-8.189-3.124-11.313,0l-36.5,36.5
				c-3.125,3.124-3.125,8.189,0,11.313L300.844,333.656z M306.5,266.314l25.186,25.186L306.5,316.686L281.313,291.5L306.5,266.314z"
				/>
			<path d="M272,227.622h70c0.007,0,0.013,0,0.02,0c4.418,0,8-3.582,8-8c0-1.65-0.5-3.184-1.356-4.458L313.928,155
				c-1.429-2.475-4.07-4-6.928-4c-2.858,0-5.499,1.525-6.928,4l-35,60.622c-1.429,2.475-1.429,5.525,0,8
				C266.501,226.097,269.142,227.622,272,227.622z M307,175l21.144,36.622h-42.287L307,175z"/>
			<path d="M195.5,277c-4.419,0-8,3.582-8,8v8c0,4.418,3.581,8,8,8c4.418,0,8-3.582,8-8v-8C203.5,280.582,199.918,277,195.5,277z"/>
			<path d="M195.5,317c-4.419,0-8,3.582-8,8v8c0,4.418,3.581,8,8,8c4.418,0,8-3.582,8-8v-8C203.5,320.582,199.918,317,195.5,317z"/>
			<path d="M195.5,237c-4.419,0-8,3.581-8,8v8c0,4.418,3.581,8,8,8c4.418,0,8-3.582,8-8v-8C203.5,240.581,199.918,237,195.5,237z"/>
			<path d="M195.5,157c-4.419,0-8,3.581-8,8v8c0,4.419,3.581,8,8,8c4.418,0,8-3.581,8-8v-8C203.5,160.581,199.918,157,195.5,157z"/>
			<path d="M195.5,197c-4.419,0-8,3.581-8,8v8c0,4.419,3.581,8,8,8c4.418,0,8-3.581,8-8v-8C203.5,200.581,199.918,197,195.5,197z"/>
			<path d="M230.5,277c-4.419,0-8,3.582-8,8v8c0,4.418,3.581,8,8,8c4.418,0,8-3.582,8-8v-8C238.5,280.582,234.918,277,230.5,277z"/>
			<path d="M230.5,197c-4.419,0-8,3.581-8,8v8c0,4.419,3.581,8,8,8c4.418,0,8-3.581,8-8v-8C238.5,200.581,234.918,197,230.5,197z"/>
			<path d="M230.5,157c-4.419,0-8,3.581-8,8v8c0,4.419,3.581,8,8,8c4.418,0,8-3.581,8-8v-8C238.5,160.581,234.918,157,230.5,157z"/>
			<path d="M230.5,237c-4.419,0-8,3.581-8,8v8c0,4.418,3.581,8,8,8c4.418,0,8-3.582,8-8v-8C238.5,240.581,234.918,237,230.5,237z"/>
			<path d="M230.5,317c-4.419,0-8,3.582-8,8v8c0,4.418,3.581,8,8,8c4.418,0,8-3.582,8-8v-8C238.5,320.582,234.918,317,230.5,317z"/>
		</g>
	</g>
</g>
<g>
</g>
<g>
</g>
<g>
</g>
<g>
</g>
<g>
</g>
<g>
</g>
<g>
</g>
<g>
</g>
<g>
</g>
<g>
</g>
<g>
</g>
<g>
</g>
<g>
</g>
<g>
</g>
<g>
</g>
</svg>
