<?xml version="1.0" encoding="iso-8859-1"?>
<!-- Generator: Adobe Illustrator 19.0.0, SVG Export Plug-In . SVG Version: 6.00 Build 0)  -->
<svg version="1.1" id="Layer_1" xmlns="http://www.w3.org/2000/svg" xmlns:xlink="http://www.w3.org/1999/xlink" x="0px" y="0px"
	 viewBox="0 0 461.81 461.81" style="enable-background:new 0 0 461.81 461.81;" xml:space="preserve">
<g>
	<g>
		<g>
			<path d="M350.907,195.806h-10.991c4.915-12.823,5.658-28.615,5.157-41.264c-0.737-18.605-4.601-38.259-8.987-45.715
				c-3.854-6.552-9.271-5.812-10.84-5.428c-7.574,1.85-8.065,11.172-8.328,16.18c-0.954,18.122-11.799,27.471-20.865,32.153
				c5.385-19.36,3.949-35.799,2.746-39.286c-1.355-3.929-5.076-6.21-9.054-5.542c-1.142,0.191-6.838,1.529-6.838,9.097v0.625
				c0.008,4.706,0.009,5.091-3.014,7.255c-5.763,4.124-19.216,9.359-42.339,16.474c-16.824,5.177-28.373,12.616-36.303,20.256
				c-8.854,2.05-42.681,11.197-63.73,35.196h-26.615c-4.419,0-8,3.582-8,8v47.912c0,31.828,24.877,57.94,56.206,59.949
				l-29.041,140.52c-0.894,4.327,1.889,8.56,6.215,9.453c4.325,0.9,8.56-1.889,9.454-6.215l29.681-143.619H286.39l29.681,143.619
				c0.781,3.78,4.111,6.383,7.826,6.383c0.537,0,1.082-0.055,1.627-0.168c4.327-0.893,7.109-5.126,6.215-9.453l-29.041-140.52
				c31.329-2.009,56.206-28.121,56.206-59.949v-47.912C358.907,199.388,355.326,195.806,350.907,195.806z M288.226,171.52
				c12.072-2.512,30.762-11.379,39.685-30.46c0.526,4.168,0.936,8.681,1.144,13.385c0.82,18.519-1.688,33.257-6.917,41.361h-52.497
				C277.762,188.26,283.786,179.924,288.226,171.52z M242.26,155.646c18.761-5.773,31.422-10.28,39.919-14.57
				c-3.388,17.28-13.125,40.093-39.799,54.729h-43.064C200.969,186.076,208.535,166.023,242.26,155.646z M186.713,181.981
				c-2.14,5.388-3.111,10.195-3.534,13.825h-22.021C169.54,189.612,178.776,185.116,186.713,181.981z M298.82,295.806h-5.913h-124
				h-5.913c-24.31,0-44.087-19.777-44.087-44.088v-39.912h205.277c0.567,0.125,1.143,0.194,1.72,0.194
				c0.582,0,1.162-0.069,1.732-0.194h15.27v39.912h0.001C342.907,276.028,323.13,295.806,298.82,295.806z"/>
			<path d="M114.143,171.806c0.878,0.315,1.792,0.471,2.703,0.471c1.389,0,2.771-0.361,4.001-1.072l207.846-120
				c2.038-1.176,3.454-3.19,3.873-5.505c0.418-2.314-0.203-4.696-1.7-6.512C310.333,14.283,278.173,0,242.63,0
				c-24.368,0-48.871,6.71-70.86,19.406c-26.891,15.525-47.994,39-59.421,66.1c-11.447,27.146-12.511,56.116-2.996,81.57
				C110.177,169.281,111.929,171.011,114.143,171.806z M179.769,33.262C199.33,21.969,221.066,16,242.63,16
				c27.178,0,51.943,9.5,69.399,26.35l-190.52,109.997C110.755,109.146,134.53,59.382,179.769,33.262z"/>
			<path d="M272.407,233c-4.419,0-8,3.582-8,8v13.417c0,5.836-4.748,10.583-10.583,10.583h-45.833
				c-5.836,0-10.583-4.747-10.583-10.583V241c0-4.418-3.581-8-8-8s-8,3.582-8,8v13.417c0,14.658,11.925,26.583,26.583,26.583h45.833
				c14.658,0,26.583-11.925,26.583-26.583V241C280.407,236.582,276.826,233,272.407,233z"/>
		</g>
	</g>
</g>
<g>
</g>
<g>
</g>
<g>
</g>
<g>
</g>
<g>
</g>
<g>
</g>
<g>
</g>
<g>
</g>
<g>
</g>
<g>
</g>
<g>
</g>
<g>
</g>
<g>
</g>
<g>
</g>
<g>
</g>
</svg>
