<?xml version="1.0" encoding="iso-8859-1"?>
<!-- Generator: Adobe Illustrator 19.0.0, SVG Export Plug-In . SVG Version: 6.00 Build 0)  -->
<svg version="1.1" id="Layer_1" xmlns="http://www.w3.org/2000/svg" xmlns:xlink="http://www.w3.org/1999/xlink" x="0px" y="0px"
	 viewBox="0 0 471 471" style="enable-background:new 0 0 471 471;" xml:space="preserve">
<g>
	<path d="M280.5,155H266v-27c0-4.419-3.582-8-8-8h-13.047l-8.79-29.299C235.147,87.317,232.033,85,228.5,85h-7.643l-32.96-80.046
		C186.663,1.957,183.742,0,180.5,0s-6.163,1.957-7.398,4.954L140.142,85H132.5c-3.533,0-6.647,2.317-7.663,5.701L116.047,120H103
		c-4.418,0-8,3.581-8,8v27H80.5c-4.418,0-8,3.581-8,8v200c0,4.418,3.582,8,8,8H93v92c0,4.418,3.582,8,8,8s8-3.582,8-8v-92h22v92
		c0,4.418,3.582,8,8,8s8-3.582,8-8v-92h67v92c0,4.418,3.582,8,8,8s8-3.582,8-8v-92h22v92c0,4.418,3.582,8,8,8c4.418,0,8-3.582,8-8
		v-92h12.5c4.418,0,8-3.582,8-8V163C288.5,158.581,284.918,155,280.5,155z M180.5,29.011L203.555,85h-46.109L180.5,29.011z
		 M138.452,101h7.048h70h0.02h7.028l5.7,19h-95.496L138.452,101z M111,136h11h117h11v19H111V136z M272.5,355H260h-38h-83h-38H88.5
		V171H103h155h14.5V355z"/>
	<path d="M181.2,185h-1.4c-42.623,0-77.3,34.677-77.3,77.3v1.4c0,42.623,34.677,77.3,77.3,77.3h1.4c42.623,0,77.3-34.677,77.3-77.3
		v-1.4C258.5,219.677,223.823,185,181.2,185z M172.5,201.45V255h-53.55C122.286,227.026,144.525,204.786,172.5,201.45z M242.5,263.7
		c0,33.801-27.499,61.3-61.3,61.3h-1.4c-31.329,0-57.228-23.63-60.85-54h61.55c4.418,0,8-3.582,8-8v-61.55
		c30.37,3.622,54,29.521,54,60.85V263.7z"/>
	<path d="M149.62,240.82c2.08,0,4.149-0.8,5.72-2.41c3.09-3.16,3.03-8.22-0.13-11.31c-3.16-3.09-8.22-3.03-11.311,0.13
		c-3.09,3.16-3.029,8.23,0.131,11.31C145.58,240.06,147.599,240.82,149.62,240.82z"/>
	<path d="M205.71,287.54c-3.09,3.16-3.021,8.23,0.149,11.31c1.561,1.51,3.57,2.27,5.58,2.27c2.08,0,4.17-0.81,5.73-2.43
		c0,0.01,0,0.01,0,0.01c3.09-3.17,3.02-8.24-0.15-11.32C213.849,284.3,208.79,284.37,205.71,287.54z"/>
	<path d="M144.569,288.25c-3.09,3.16-3.029,8.22,0.12,11.31c1.561,1.53,3.58,2.29,5.6,2.29c2.069,0,4.15-0.8,5.72-2.4
		c3.09-3.16,3.03-8.23-0.12-11.32C152.729,285.04,147.66,285.1,144.569,288.25z"/>
	<path d="M210.649,240.09c2.08,0,4.16-0.81,5.721-2.41c3.09-3.17,3.029-8.23-0.141-11.32c-3.16-3.08-8.23-3.02-11.31,0.14
		c-3.09,3.17-3.021,8.23,0.14,11.32C206.62,239.33,208.63,240.09,210.649,240.09z"/>
	<path d="M215.5,262.46c0.01,4.41,3.59,7.98,8,7.98c0.01,0,0.01,0,0.02,0c4.42-0.02,7.99-3.61,7.98-8.03
		c-0.01-4.41-3.61-7.99-8.03-7.97C219.059,254.45,215.49,258.04,215.5,262.46z"/>
	<path d="M181.069,298c-0.01,0-0.029,0-0.05,0c-0.029,0-0.059,0-0.09,0c-4.42,0-8,3.58-8,8s3.58,8,8,8c0.061,0,0.12,0,0.18,0
		c0.011,0,0.02,0,0.03,0c4.42-0.02,7.98-3.61,7.96-8.03C189.09,301.55,185.49,297.98,181.069,298z"/>
	<path d="M396.157,90.699C387.969,82.51,377.081,78,365.5,78c-9.082,0-17.738,2.774-25,7.92c-7.262-5.146-15.918-7.92-25-7.92
		c-11.581,0-22.469,4.51-30.657,12.699c-3.124,3.124-3.124,8.189,0,11.313c3.125,3.125,8.189,3.124,11.314,0
		C301.323,96.846,308.193,94,315.5,94c7.307,0,14.177,2.846,19.343,8.012c1.501,1.501,3.535,2.343,5.657,2.343
		c2.122,0,4.156-0.843,5.657-2.343C351.323,96.846,358.193,94,365.5,94c7.307,0,14.177,2.846,19.343,8.012
		c3.125,3.125,8.189,3.125,11.314,0C399.281,98.888,399.281,93.823,396.157,90.699z"/>
</g>
<g>
</g>
<g>
</g>
<g>
</g>
<g>
</g>
<g>
</g>
<g>
</g>
<g>
</g>
<g>
</g>
<g>
</g>
<g>
</g>
<g>
</g>
<g>
</g>
<g>
</g>
<g>
</g>
<g>
</g>
</svg>
