<?xml version="1.0" encoding="iso-8859-1"?>
<!-- Generator: Adobe Illustrator 19.0.0, SVG Export Plug-In . SVG Version: 6.00 Build 0)  -->
<svg version="1.1" id="Layer_1" xmlns="http://www.w3.org/2000/svg" xmlns:xlink="http://www.w3.org/1999/xlink" x="0px" y="0px"
	 viewBox="0 0 474.945 474.945" style="enable-background:new 0 0 474.945 474.945;" xml:space="preserve">
<g>
	<g>
		<g>
			<path d="M381.472,323.588c-4.418,0-8,3.582-8,8v12.643h-136h-136v-12.643c0-4.418-3.582-8-8-8c-4.418,0-8,3.582-8,8v39
				c0,4.418,3.582,8,8,8c4.418,0,8-3.582,8-8v-5.282c41.334,22.302,61.671,47.007,81.374,70.964
				c10.035,12.203,20.413,24.821,33.218,36.57c1.476,1.354,3.405,2.105,5.408,2.105h32c2.003,0,3.933-0.751,5.408-2.105
				c12.805-11.749,23.183-24.367,33.218-36.57c19.703-23.957,40.04-48.662,81.374-70.964v5.282c0,4.418,3.582,8,8,8
				c4.418,0,8-3.582,8-8v-39C389.472,327.17,385.889,323.588,381.472,323.588z M320.889,381.945h-86.418c-4.418,0-8,3.582-8,8
				c0,4.419,3.582,8,8,8h69.68c-8.969,9.391-16.737,18.83-24.411,28.162c-9.486,11.535-18.479,22.47-29.42,32.838h-25.697
				c-10.941-10.368-19.934-21.303-29.42-32.838c-18.128-22.042-36.754-44.688-70.587-65.876h112.856h112.855
				C338.99,367.331,329.366,374.595,320.889,381.945z"/>
			<path d="M123.27,158.442c-1.735,4.063,0.152,8.764,4.216,10.499c10.882,4.648,22.44,7.004,34.353,7.004
				s23.472-2.356,34.354-7.004c4.064-1.735,5.951-6.436,4.216-10.499c-1.736-4.064-6.438-5.953-10.499-4.215
				c-8.886,3.795-18.329,5.718-28.07,5.718c-9.742,0-19.186-1.924-28.071-5.718C129.708,152.49,125.005,154.379,123.27,158.442z"/>
			<path d="M274.535,158.442c-1.735,4.063,0.152,8.764,4.216,10.499c10.882,4.648,22.44,7.004,34.353,7.004
				c11.913,0,23.472-2.356,34.354-7.004c4.064-1.735,5.951-6.436,4.216-10.499c-1.736-4.064-6.438-5.953-10.499-4.215
				c-8.886,3.795-18.329,5.718-28.07,5.718c-9.742,0-19.185-1.924-28.071-5.718C280.971,152.49,276.27,154.379,274.535,158.442z"/>
			<path d="M427.472,161h-35.125c-18.368-21.412-44.656-67.398-71.141-124.549V8c0-4.418-3.582-8-8-8c-4.418,0-8,3.582-8,8v28.014
				c-24.864,53.704-49.572,97.6-67.734,120.594c-18.049-22.85-42.56-66.341-67.266-119.585V8c0-4.418-3.582-8-8-8
				c-4.418,0-8,3.582-8,8v27.442C127.562,93.062,101.072,139.462,82.597,161H47.472c-4.418,0-8,3.582-8,8c0,4.418,3.582,8,8,8
				h35.636c21.725,19.333,49.554,29.945,78.732,29.945c27.809,0,54.39-9.644,75.633-27.286
				c21.242,17.643,47.824,27.286,75.633,27.286c29.177,0,57.006-10.612,78.732-29.945h35.636c4.418,0,8-3.582,8-8
				C435.472,164.582,431.889,161,427.472,161z M161.839,190.945c-23.606,0-46.195-8.029-64.394-22.753
				c23.025-28.341,49.101-79.417,64.394-111.388c15.294,31.971,41.369,83.046,64.395,111.388
				C208.034,182.916,185.445,190.945,161.839,190.945z M313.104,190.945c-23.606,0-46.195-8.029-64.394-22.753
				c23.025-28.341,49.101-79.417,64.394-111.388c15.294,31.971,41.369,83.046,64.395,111.388
				C359.3,182.916,336.711,190.945,313.104,190.945z"/>
		</g>
	</g>
</g>
<g>
</g>
<g>
</g>
<g>
</g>
<g>
</g>
<g>
</g>
<g>
</g>
<g>
</g>
<g>
</g>
<g>
</g>
<g>
</g>
<g>
</g>
<g>
</g>
<g>
</g>
<g>
</g>
<g>
</g>
</svg>
