<?xml version="1.0" encoding="iso-8859-1"?>
<!-- Generator: Adobe Illustrator 19.0.0, SVG Export Plug-In . SVG Version: 6.00 Build 0)  -->
<svg version="1.1" id="Layer_1" xmlns="http://www.w3.org/2000/svg" xmlns:xlink="http://www.w3.org/1999/xlink" x="0px" y="0px"
	 viewBox="0 0 502 502" style="enable-background:new 0 0 502 502;" xml:space="preserve">
<g>
	<g>
		<g>
			<path d="M492,79.5H10c-5.523,0-10,4.478-10,10V142v270.5c0,5.522,4.477,10,10,10h482c5.523,0,10-4.478,10-10V142V89.5
				C502,83.978,497.523,79.5,492,79.5z M482,402.5H20V152h462V402.5z M482,132H20V99.5h462V132z"/>
			<path d="M40,126h1c5.523,0,10-4.478,10-10c0-5.522-4.477-10-10-10h-1c-5.523,0-10,4.478-10,10C30,121.522,34.477,126,40,126z"/>
			<path d="M69,126h1c5.523,0,10-4.478,10-10c0-5.522-4.477-10-10-10h-1c-5.523,0-10,4.478-10,10C59,121.522,63.477,126,69,126z"/>
			<path d="M99,126h1c5.523,0,10-4.478,10-10c0-5.522-4.477-10-10-10h-1c-5.523,0-10,4.478-10,10C89,121.522,93.477,126,99,126z"/>
			<path d="M384,126h80c5.523,0,10-4.478,10-10c0-5.522-4.477-10-10-10h-80c-5.523,0-10,4.478-10,10
				C374,121.522,378.477,126,384,126z"/>
			<path d="M322,126h25c5.523,0,10-4.478,10-10c0-5.522-4.477-10-10-10h-25c-5.523,0-10,4.478-10,10
				C312,121.522,316.477,126,322,126z"/>
			<path d="M185.5,387h131c5.523,0,10-4.478,10-10V271c0-5.522-4.477-10-10-10h-6v-48.167c0-25.272-20.561-45.833-45.833-45.833
				h-27.333c-25.272,0-45.833,20.561-45.833,45.833V261h-6c-5.523,0-10,4.478-10,10v106C175.5,382.522,179.977,387,185.5,387z
				 M211.499,212.833L211.499,212.833C211.5,198.589,223.089,187,237.333,187h27.333c14.245,0,25.833,11.589,25.833,25.833V261h-79
				V212.833z M195.5,281h111v86h-111V281z"/>
			<path d="M251,302c-5.523,0-10,4.478-10,10v15c0,5.522,4.477,10,10,10s10-4.478,10-10v-15C261,306.478,256.523,302,251,302z"/>
			<path d="M46,386c5.523,0,10-4.478,10-10V244c0-5.522-4.477-10-10-10s-10,4.478-10,10v132C36,381.522,40.477,386,46,386z"/>
			<path d="M46,218c5.523,0,10-4.478,10-10v-25c0-5.522-4.477-10-10-10s-10,4.478-10,10v25C36,213.522,40.477,218,46,218z"/>
		</g>
	</g>
</g>
<g>
</g>
<g>
</g>
<g>
</g>
<g>
</g>
<g>
</g>
<g>
</g>
<g>
</g>
<g>
</g>
<g>
</g>
<g>
</g>
<g>
</g>
<g>
</g>
<g>
</g>
<g>
</g>
<g>
</g>
</svg>
