<?xml version="1.0" encoding="iso-8859-1"?>
<!-- Generator: Adobe Illustrator 19.0.0, SVG Export Plug-In . SVG Version: 6.00 Build 0)  -->
<svg version="1.1" id="Layer_1" xmlns="http://www.w3.org/2000/svg" xmlns:xlink="http://www.w3.org/1999/xlink" x="0px" y="0px"
	 viewBox="0 0 411 411" style="enable-background:new 0 0 411 411;" xml:space="preserve">
<g>
	<g>
		<g>
			<path d="M370.922,36.673H40.078C17.979,36.673,0,54.652,0,76.751v247.922c0,4.418,3.581,8,8,8h5.045
				c-0.351,2.001-0.545,4.055-0.545,6.155c0,19.575,15.925,35.5,35.5,35.5s35.5-15.925,35.5-35.5c0-2.1-0.194-4.154-0.545-6.155
				h155.09c-0.351,2.001-0.545,4.055-0.545,6.155c0,19.575,15.925,35.5,35.5,35.5s35.5-15.925,35.5-35.5
				c0-2.1-0.194-4.154-0.545-6.155h15.09c-0.351,2.001-0.545,4.055-0.545,6.155c0,19.575,15.925,35.5,35.5,35.5
				s35.5-15.925,35.5-35.5c0-2.1-0.194-4.154-0.545-6.155H403c4.418,0,8-3.582,8-8V76.751C411,54.652,393.021,36.673,370.922,36.673
				z M16,192.673h34v69H16V192.673z M48,358.328c-10.752,0-19.5-8.748-19.5-19.5s8.748-19.5,19.5-19.5s19.5,8.748,19.5,19.5
				C67.5,349.58,58.752,358.328,48,358.328z M131.5,316.672h-34v-84h34V316.672z M273,358.328c-10.752,0-19.5-8.748-19.5-19.5
				s8.748-19.5,19.5-19.5s19.5,8.748,19.5,19.5C292.5,349.58,283.752,358.328,273,358.328z M358,358.328
				c-10.752,0-19.5-8.748-19.5-19.5s8.748-19.5,19.5-19.5s19.5,8.748,19.5,19.5C377.5,349.58,368.752,358.328,358,358.328z
				 M395,316.672h-9.292c-6.511-8.127-16.509-13.345-27.708-13.345c-11.199,0-21.197,5.218-27.708,13.345h-29.584
				c-6.511-8.127-16.509-13.345-27.708-13.345c-11.199,0-21.197,5.218-27.708,13.345H147.5v-92c0-4.419-3.582-8-8-8h-50
				c-4.419,0-8,3.581-8,8v92h-5.792c-6.511-8.127-16.509-13.345-27.708-13.345s-21.197,5.218-27.708,13.345H16v-39h42
				c4.418,0,8-3.582,8-8v-77h329V316.672z M395,176.673H16V76.751c0-13.276,10.801-24.078,24.078-24.078h330.845
				c13.276,0,24.077,10.802,24.077,24.078V176.673z"/>
			<path d="M358,77.329H53c-4.419,0-8,3.581-8,8v45c0,4.418,3.581,8,8,8h305c4.418,0,8-3.582,8-8v-45
				C366,80.91,362.418,77.329,358,77.329z M106,122.329H61v-29h45V122.329z M167,122.329h-45v-29h45V122.329z M228,122.329h-45v-29
				h45V122.329z M289,122.329h-45v-29h45V122.329z M350,122.329h-45v-29h45V122.329z"/>
			<path d="M175,275.328h183c4.418,0,8-3.582,8-8v-45c0-4.419-3.582-8-8-8H175c-4.419,0-8,3.581-8,8v45
				C167,271.746,170.581,275.328,175,275.328z M305,230.329h45v29h-45V230.329z M244,230.329h45v29h-45V230.329z M183,230.329h45v29
				h-45V230.329z"/>
		</g>
	</g>
</g>
<g>
</g>
<g>
</g>
<g>
</g>
<g>
</g>
<g>
</g>
<g>
</g>
<g>
</g>
<g>
</g>
<g>
</g>
<g>
</g>
<g>
</g>
<g>
</g>
<g>
</g>
<g>
</g>
<g>
</g>
</svg>
