<?xml version="1.0" encoding="iso-8859-1"?>
<!-- Generator: Adobe Illustrator 19.0.0, SVG Export Plug-In . SVG Version: 6.00 Build 0)  -->
<svg version="1.1" id="Layer_1" xmlns="http://www.w3.org/2000/svg" xmlns:xlink="http://www.w3.org/1999/xlink" x="0px" y="0px"
	 viewBox="0 0 454 454" style="enable-background:new 0 0 454 454;" xml:space="preserve">
<g>
	<g>
		<g>
			<path d="M446,84.5H339V66.755C339,48.97,324.53,34.5,306.745,34.5h-0.49C288.47,34.5,274,48.97,274,66.755V84.5H171V66.755
				C171,48.97,156.531,34.5,138.745,34.5h-0.49C120.469,34.5,106,48.97,106,66.755V84.5H46c-4.419,0-8,3.582-8,8v31H8
				c-4.419,0-8,3.582-8,8v280c0,4.418,3.581,8,8,8h400c4.418,0,8-3.582,8-8v-31h30c4.418,0,8-3.582,8-8v-280
				C454,88.082,450.418,84.5,446,84.5z M342.75,115c0,7.995-6.505,14.5-14.5,14.5s-14.5-6.505-14.5-14.5s6.505-14.5,14.5-14.5
				S342.75,107.005,342.75,115z M290,66.755c0-8.963,7.292-16.255,16.255-16.255h0.49c8.963,0,16.255,7.292,16.255,16.255V84.5h-33
				V66.755z M163.75,100.5c7.995,0,14.5,6.505,14.5,14.5s-6.505,14.5-14.5,14.5s-14.5-6.505-14.5-14.5S155.755,100.5,163.75,100.5z
				 M122,66.755c0-8.963,7.292-16.255,16.255-16.255h0.49c8.963,0,16.255,7.292,16.255,16.255V84.5h-33V66.755z M400,403.5H16v-264
				h22v233c0,4.418,3.581,8,8,8h354V403.5z M438,364.5H54v-264h82.923c-2.342,4.315-3.673,9.255-3.673,14.5
				c0,16.817,13.682,30.5,30.5,30.5s30.5-13.683,30.5-30.5c0-5.245-1.332-10.185-3.673-14.5h110.847
				c-2.342,4.315-3.673,9.255-3.673,14.5c0,16.817,13.683,30.5,30.5,30.5c16.817,0,30.5-13.683,30.5-30.5
				c0-5.245-1.332-10.185-3.673-14.5H438V364.5z"/>
			<path d="M83,177.5V320c0,4.418,3.581,8,8,8h310c4.418,0,8-3.582,8-8V177.5c0-4.418-3.582-8-8-8H91
				C86.581,169.5,83,173.082,83,177.5z M357.333,185.5H393V217h-35.667V185.5z M357.333,233H393v31.5h-35.667V233z M357.333,280.5
				H393V312h-35.667V280.5z M305.667,185.5h35.666V217h-35.666V185.5z M305.667,233h35.666v31.5h-35.666V233z M305.667,280.5h35.666
				V312h-35.666V280.5z M254,185.5h35.667V217H254V185.5z M254,233h35.667v31.5H254V233z M254,280.5h35.667V312H254V280.5z
				 M202.333,185.5H238V217h-35.667V185.5z M202.333,233H238v31.5h-35.667V233z M202.333,280.5H238V312h-35.667V280.5z
				 M150.666,185.5h35.667V217h-35.667V185.5z M150.666,233h35.667v31.5h-35.667V233z M150.666,280.5h35.667V312h-35.667V280.5z
				 M99,185.5h35.666V217H99V185.5z M99,233h35.666v31.5H99V233z M99,280.5h35.666V312H99V280.5z"/>
		</g>
	</g>
</g>
<g>
</g>
<g>
</g>
<g>
</g>
<g>
</g>
<g>
</g>
<g>
</g>
<g>
</g>
<g>
</g>
<g>
</g>
<g>
</g>
<g>
</g>
<g>
</g>
<g>
</g>
<g>
</g>
<g>
</g>
</svg>
