<?xml version="1.0" encoding="iso-8859-1"?>
<!-- Generator: Adobe Illustrator 19.0.0, SVG Export Plug-In . SVG Version: 6.00 Build 0)  -->
<svg version="1.1" id="Capa_1" xmlns="http://www.w3.org/2000/svg" xmlns:xlink="http://www.w3.org/1999/xlink" x="0px" y="0px"
	 viewBox="0 0 471 471" style="enable-background:new 0 0 471 471;" xml:space="preserve">
<g>
	<path d="M471,153.5c0-59.55-48.45-108-108-108s-108,48.45-108,108c0,1.85,0.06,3.66,0.16,5.44c-0.1,0.5-0.16,1.03-0.16,1.56v23H8
		c-4.42,0-8,3.58-8,8v195c0,4.42,3.58,8,8,8h250.28c7.04,18.12,24.65,31,45.22,31h119c26.74,0,48.5-21.76,48.5-48.5V160.5
		c0-0.53-0.05-1.06-0.15-1.56C470.94,157.15,471,155.34,471,153.5z M255,338.5H57v-99h198V338.5z M255,223.5H49c-4.42,0-8,3.58-8,8
		v115c0,4.42,3.58,8,8,8h206v24H16v-179h239V223.5z M392.5,409.5h-59v-94h59V409.5z M455,377c0,17.92-14.58,32.5-32.5,32.5h-14v-102
		c0-4.42-3.58-8-8-8h-75c-4.42,0-8,3.58-8,8v102h-14c-17.92,0-32.5-14.58-32.5-32.5V209.97c19.12,30.96,53.41,51.53,92,51.53
		s72.88-20.57,92-51.52V377z M454.77,159.95c-3.31,47.97-43.61,85.55-91.77,85.55c-48.15,0-88.46-37.58-91.77-85.59
		c-0.15-2.06-0.23-4.22-0.23-6.41c0-50.73,41.27-92,92-92s92,41.27,92,92C455,155.69,454.92,157.85,454.77,159.95z"/>
	<path d="M363,88.5c-35.84,0-65,29.16-65,65s29.16,65,65,65s65-29.16,65-65S398.84,88.5,363,88.5z M363,202.5
		c-27.02,0-49-21.98-49-49s21.98-49,49-49s49,21.98,49,49S390.02,202.5,363,202.5z"/>
	<path d="M187,282.07l-54-31.17c-2.47-1.43-5.52-1.43-8,0c-2.47,1.42-4,4.06-4,6.92v62.36c0,2.86,1.53,5.5,4,6.92
		c1.24,0.72,2.62,1.08,4,1.08c1.38,0,2.76-0.36,4-1.08l54-31.17c2.48-1.43,4-4.07,4-6.93S189.48,283.5,187,282.07z M137,306.32
		v-34.64L167,289L137,306.32z"/>
</g>
<g>
</g>
<g>
</g>
<g>
</g>
<g>
</g>
<g>
</g>
<g>
</g>
<g>
</g>
<g>
</g>
<g>
</g>
<g>
</g>
<g>
</g>
<g>
</g>
<g>
</g>
<g>
</g>
<g>
</g>
</svg>
