<?xml version="1.0" encoding="iso-8859-1"?>
<!-- Generator: Adobe Illustrator 19.0.0, SVG Export Plug-In . SVG Version: 6.00 Build 0)  -->
<svg version="1.1" id="Capa_1" xmlns="http://www.w3.org/2000/svg" xmlns:xlink="http://www.w3.org/1999/xlink" x="0px" y="0px"
	 viewBox="0 0 414 414" style="enable-background:new 0 0 414 414;" xml:space="preserve">
<g>
	<g>
		<path d="M277.5,241.25v17c0,4.42-3.58,8-8,8c-4.41,0-8-3.58-8-8v-17c0-4.42,3.59-8,8-8C273.92,233.25,277.5,236.83,277.5,241.25z"
			/>
	</g>
	<path d="M126.5,135.25h-58c-4.41,0-8,3.58-8,8v58c0,4.42,3.59,8,8,8h58c4.42,0,8-3.58,8-8v-58
		C134.5,138.83,130.92,135.25,126.5,135.25z M118.5,193.25h-42v-42h42V193.25z"/>
	<path d="M406,254.25h-60v-99h11.25c21.37,0,38.75-17.38,38.75-38.75V88c0-21.37-17.38-38.75-38.75-38.75H38.75
		C17.39,49.25,0,66.63,0,88v196.25c0,19.67,16.01,35.67,35.67,35.67h9.66c2.83,25.19,24.25,44.83,50.17,44.83
		c25.93,0,47.35-19.64,50.18-44.83h164.65c19.67,0,35.67-16,35.67-35.67v-14h52v66c0,4.42,3.59,8,8,8c4.42,0,8-3.58,8-8v-74
		C414,257.83,410.42,254.25,406,254.25z M95.5,348.75c-19.02,0-34.5-15.48-34.5-34.5s15.48-34.5,34.5-34.5
		c19.03,0,34.5,15.48,34.5,34.5S114.53,348.75,95.5,348.75z M208.5,303.92h-63.56c-4.78-22.91-25.13-40.17-49.44-40.17
		c-24.3,0-44.65,17.26-49.43,40.17h-10.4c-10.84,0-19.67-8.82-19.67-19.67v-48.76c14.11,0.97,22.11,4.86,30.5,8.95
		c10.38,5.07,22.15,10.81,44.5,10.81s34.12-5.74,44.51-10.81c9.69-4.73,18.84-9.19,37.49-9.19c17.37,0,26.5,3.87,35.5,8.22V303.92z
		 M288.5,303.92h-64v-97.4c0-17.43,14.18-31.6,31.6-31.6h0.81c17.42,0,31.59,14.17,31.59,31.6V303.92z M330,284.25
		c0,10.85-8.82,19.67-19.67,19.67h-5.83v-61.87c6.67-3.08,13.97-5.78,25.5-6.56V284.25z M330,219.46
		c-10.85,0.64-18.9,2.74-25.5,5.23v-18.17c0-26.25-21.35-47.6-47.59-47.6h-0.81c-26.24,0-47.6,21.35-47.6,47.6v19.37
		c-8.6-3.6-19.25-6.64-35.5-6.64c-22.35,0-34.12,5.74-44.51,10.81c-9.69,4.73-18.84,9.19-37.49,9.19s-27.8-4.46-37.49-9.19
		c-9.24-4.51-19.59-9.55-37.51-10.61v-72.17c0.08-20.42,16.75-37.03,37.17-37.03h239.66c20.43,0,37.1,16.61,37.17,37V219.46z
		 M345.38,139.25c-3.95-25.44-26.04-45-52.55-45H53.17c-14.44,0-27.57,5.82-37.17,15.23V88c0-12.54,10.21-22.75,22.75-22.75h318.5
		C369.8,65.25,380,75.46,380,88v28.5c0,12.54-10.2,22.75-22.75,22.75H345.38z"/>
	<g>
		<circle cx="95.505" cy="314.25" r="8"/>
	</g>
</g>
<g>
</g>
<g>
</g>
<g>
</g>
<g>
</g>
<g>
</g>
<g>
</g>
<g>
</g>
<g>
</g>
<g>
</g>
<g>
</g>
<g>
</g>
<g>
</g>
<g>
</g>
<g>
</g>
<g>
</g>
</svg>
