<?xml version="1.0" encoding="iso-8859-1"?>
<!-- Generator: Adobe Illustrator 19.0.0, SVG Export Plug-In . SVG Version: 6.00 Build 0)  -->
<svg version="1.1" id="Layer_1" xmlns="http://www.w3.org/2000/svg" xmlns:xlink="http://www.w3.org/1999/xlink" x="0px" y="0px"
	 viewBox="0 0 502 502" style="enable-background:new 0 0 502 502;" xml:space="preserve">
<g>
	<g>
		<g>
			<path d="M342.819,207.544V76.609c0-28.542-23.222-51.763-51.764-51.763H51.763C23.221,24.846,0,48.067,0,76.609v224.619
				c0,4.172,2.59,7.905,6.497,9.366c1.143,0.427,2.328,0.634,3.501,0.634c2.839,0,5.611-1.211,7.548-3.437l42.16-48.484h231.349
				C319.598,259.307,342.819,236.086,342.819,207.544z M55.15,239.307c-2.895,0-5.647,1.254-7.546,3.438L20,274.489V76.609
				c0-17.515,14.249-31.764,31.763-31.764v0.001h239.293c17.515,0,31.764,14.249,31.764,31.763v130.933
				c0,17.515-14.249,31.764-31.764,31.764H55.15z"/>
			<path d="M282.025,179.484H60.793c-5.523,0-10,4.477-10,10c0,5.523,4.477,10,10,10h221.233c5.523,0,9.999-4.477,9.999-10
				C292.025,183.961,287.548,179.484,282.025,179.484z"/>
			<path d="M60.793,152.076h221.233c5.523,0,9.999-4.477,9.999-10s-4.477-10-10-10H60.793c-5.523,0-10,4.477-10,10
				S55.27,152.076,60.793,152.076z"/>
			<path d="M245.906,104.669h36.12c5.523,0,10-4.477,10-10s-4.477-10-10-10h-36.12c-5.523,0-10,4.477-10,10
				S240.383,104.669,245.906,104.669z"/>
			<path d="M60.793,104.669h142.221c5.523,0,10-4.477,10-10s-4.477-10-10-10H60.793c-5.523,0-10,4.477-10,10
				S55.27,104.669,60.793,104.669z"/>
			<path d="M464.105,288.166H267.028c-20.895,0-37.895,17-37.895,37.895v78.518c0,20.895,17,37.895,37.895,37.895h190.259
				l27.167,31.242c1.937,2.227,4.709,3.438,7.548,3.438c1.173,0,2.358-0.207,3.501-0.635c3.907-1.461,6.497-5.194,6.497-9.366
				V326.06C502,305.166,485,288.166,464.105,288.166z M482,440.412l-12.611-14.501c-1.899-2.184-4.651-3.438-7.546-3.438H267.028
				c-9.868,0-17.895-8.028-17.895-17.895V326.06c0-9.868,8.028-17.895,17.895-17.895v0h197.077c9.868,0,17.895,8.028,17.895,17.895
				V440.412z"/>
			<path d="M450.173,377.271H280.961c-5.523,0-10,4.477-10,10s4.477,10,10,10h169.212c5.523,0,10-4.477,10-10
				S455.696,377.271,450.173,377.271z"/>
			<path d="M280.961,358.635h21.545c5.523,0,10-4.477,10-10s-4.477-10-10-10h-21.545c-5.523,0-10,4.477-10,10
				S275.438,358.635,280.961,358.635z"/>
			<path d="M450.173,338.635H342.394c-5.523,0-10,4.477-10,10s4.477,10,10,10h107.779c5.523,0,10-4.477,10-10
				S455.696,338.635,450.173,338.635z"/>
		</g>
	</g>
</g>
<g>
</g>
<g>
</g>
<g>
</g>
<g>
</g>
<g>
</g>
<g>
</g>
<g>
</g>
<g>
</g>
<g>
</g>
<g>
</g>
<g>
</g>
<g>
</g>
<g>
</g>
<g>
</g>
<g>
</g>
</svg>
