<?xml version="1.0" encoding="iso-8859-1"?>
<!-- Generator: Adobe Illustrator 19.0.0, SVG Export Plug-In . SVG Version: 6.00 Build 0)  -->
<svg version="1.1" id="Layer_1" xmlns="http://www.w3.org/2000/svg" xmlns:xlink="http://www.w3.org/1999/xlink" x="0px" y="0px"
	 viewBox="0 0 502 502" style="enable-background:new 0 0 502 502;" xml:space="preserve">
<g>
	<g>
		<g>
			<path d="M428.483,73.516C381.076,26.108,318.045,0,251,0S120.924,26.108,73.517,73.516C26.108,120.924,0,183.956,0,251
				s26.108,130.076,73.517,177.484C120.924,475.892,183.955,502,251,502s130.076-26.108,177.483-73.516
				C475.892,381.076,502,318.044,502,251S475.892,120.924,428.483,73.516z M251,482C123.626,482,20,378.374,20,251
				S123.626,20,251,20s231,103.626,231,231S378.374,482,251,482z"/>
			<path d="M251,59.065C145.167,59.065,59.065,145.167,59.065,251S145.167,442.935,251,442.935S442.935,356.833,442.935,251
				S356.833,59.065,251,59.065z M251,422.935c-94.805,0-171.935-77.129-171.935-171.935S156.195,79.065,251,79.065
				S422.935,156.195,422.935,251S345.805,422.935,251,422.935z"/>
			<path d="M172.174,159.519c1.956,2.694,5.006,4.123,8.098,4.123c2.039,0,4.096-0.621,5.87-1.911
				c4.468-3.246,5.458-9.5,2.212-13.968l-17.823-24.531c-3.245-4.468-9.501-5.457-13.968-2.212c-4.468,3.246-5.458,9.5-2.212,13.968
				L172.174,159.519z"/>
			<path d="M139.638,204.302l-28.838-9.37c-5.25-1.707-10.895,1.167-12.601,6.42c-1.706,5.252,1.168,10.894,6.421,12.601
				l28.838,9.37c1.027,0.333,2.068,0.492,3.092,0.492c4.215,0,8.136-2.687,9.509-6.912
				C147.765,211.651,144.891,206.009,139.638,204.302z"/>
			<path d="M133.458,278.677l-28.838,9.37c-5.253,1.707-8.127,7.349-6.421,12.601c1.373,4.226,5.293,6.913,9.509,6.913
				c1.023,0,2.065-0.159,3.092-0.493l28.838-9.37c5.253-1.707,8.127-7.349,6.421-12.601
				C144.352,279.845,138.713,276.969,133.458,278.677z"/>
			<path d="M186.143,340.27c-4.469-3.246-10.722-2.256-13.968,2.212l-17.823,24.531c-3.246,4.468-2.256,10.721,2.212,13.968
				c1.775,1.289,3.831,1.91,5.87,1.91c3.091,0,6.141-1.43,8.098-4.122l17.823-24.531C191.601,349.77,190.611,343.517,186.143,340.27
				z"/>
			<path d="M251,361.343c-5.522,0-10,4.477-10,10v30.322c0,5.523,4.478,10,10,10c5.522,0,10-4.477,10-10v-30.322
				C261,365.82,256.522,361.343,251,361.343z"/>
			<path d="M329.825,342.481c-3.245-4.468-9.501-5.457-13.968-2.212c-4.468,3.246-5.458,9.5-2.212,13.968l17.823,24.531
				c1.956,2.694,5.006,4.123,8.098,4.123c2.038,0,4.096-0.621,5.87-1.911c4.468-3.246,5.458-9.5,2.212-13.968L329.825,342.481z"/>
			<path d="M397.38,288.048l-28.838-9.37c-5.25-1.707-10.894,1.168-12.601,6.42c-1.706,5.252,1.168,10.894,6.421,12.601l28.838,9.37
				c1.027,0.333,2.068,0.492,3.092,0.492c4.215,0,8.136-2.687,9.509-6.912C405.507,295.397,402.633,289.755,397.38,288.048z"/>
			<path d="M365.45,223.815c1.024,0,2.066-0.159,3.092-0.493l28.838-9.37c5.253-1.707,8.127-7.349,6.421-12.601
				c-1.706-5.252-7.348-8.127-12.601-6.42l-28.838,9.37c-5.253,1.707-8.127,7.349-6.421,12.601
				C357.314,221.128,361.234,223.815,365.45,223.815z"/>
			<path d="M345.437,121.021c-4.467-3.245-10.721-2.257-13.968,2.212l-17.823,24.531c-3.246,4.468-2.256,10.721,2.212,13.968
				c1.775,1.289,3.832,1.91,5.87,1.91c3.091,0,6.141-1.43,8.098-4.122l17.823-24.531
				C350.895,130.521,349.905,124.268,345.437,121.021z"/>
			<path d="M254.09,260.511l63.488-20.628c5.252-1.708,8.126-7.347,6.422-12.6c0.426,1.313,0.852,2.623-0.001-0.002
				c-0.852-2.624-0.427-1.314-0.001-0.002c-1.707-5.251-7.347-8.126-12.6-6.418L261,237.236V100.335c0-5.523-4.478-10-10-10
				c-5.522,0-10,4.477-10,10V251C241,257.678,247.727,262.563,254.09,260.511z"/>
			<path d="M251,49.375c19.038,0,37.871,2.647,55.978,7.869c0.925,0.267,1.857,0.394,2.775,0.394c4.342,0,8.34-2.85,9.604-7.232
				c1.53-5.306-1.531-10.849-6.838-12.379c-19.909-5.741-40.607-8.652-61.519-8.652c-5.522,0-10,4.477-10,10
				S245.478,49.375,251,49.375z"/>
			<path d="M49.375,251c0-94.481,66.946-177.396,159.183-197.152c5.401-1.157,8.84-6.473,7.684-11.873
				c-1.157-5.4-6.468-8.838-11.873-7.684c-48.818,10.456-93.211,37.618-125,76.482C47.13,150.188,29.375,199.988,29.375,251
				c0,24.821,4.075,49.194,12.113,72.441c1.43,4.137,5.305,6.735,9.45,6.735c1.083,0,2.186-0.178,3.268-0.552
				c5.22-1.805,7.989-7.499,6.184-12.719C53.081,295.766,49.375,273.592,49.375,251z"/>
		</g>
	</g>
</g>
<g>
</g>
<g>
</g>
<g>
</g>
<g>
</g>
<g>
</g>
<g>
</g>
<g>
</g>
<g>
</g>
<g>
</g>
<g>
</g>
<g>
</g>
<g>
</g>
<g>
</g>
<g>
</g>
<g>
</g>
</svg>
