<?xml version="1.0" encoding="iso-8859-1"?>
<!-- Generator: Adobe Illustrator 19.0.0, SVG Export Plug-In . SVG Version: 6.00 Build 0)  -->
<svg version="1.1" id="Layer_1" xmlns="http://www.w3.org/2000/svg" xmlns:xlink="http://www.w3.org/1999/xlink" x="0px" y="0px"
	 viewBox="0 0 466 466" style="enable-background:new 0 0 466 466;" xml:space="preserve">
<g>
	<g>
		<path d="M422.954,141.732c1.81-2.426,2.096-5.665,0.738-8.37c-1.357-2.705-4.124-4.413-7.15-4.413h-71.478l71.715-116.76
			c2.313-3.765,1.136-8.691-2.63-11.004c-3.763-2.313-8.691-1.135-11.003,2.63l-76.859,125.134h-66.6
			c-1.362-15.887-6.239-31.441-14.265-45.342c-14.6-25.288-38.173-43.376-66.377-50.933c-28.204-7.559-57.664-3.68-82.951,10.92
			c-52.201,30.139-70.151,97.127-40.012,149.328c14.6,25.287,38.173,43.376,66.377,50.933c9.418,2.523,18.975,3.772,28.471,3.772
			c18.941,0,37.636-4.968,54.479-14.692c0.925-0.534,1.7-1.228,2.317-2.023l65.288,87.527v80.628l-105.501,51.751
			c-3.341,1.639-5.111,5.366-4.27,8.991s4.071,6.191,7.793,6.191h219.955c0.007,0,0.012,0,0.02,0c4.419,0,8-3.581,8-8
			c0-3.302-2-6.136-4.854-7.358l-105.143-51.576v-77.774L422.954,141.732z M335.235,144.949h65.358l-24.397,32.707
			c-0.148-0.008-0.294-0.023-0.444-0.023H315.16L335.235,144.949z M316.459,144.948l-20.075,32.685H190.226
			c-0.717,0-1.409,0.103-2.071,0.28l-24.589-32.965H316.459z M147.618,125.635L115.062,93.08c2.168-1.706,4.471-3.271,6.903-4.675
			c19.607-11.32,43.17-9.75,60.834,2.049L147.618,125.635z M194.741,101.139c2.161,2.563,4.138,5.336,5.871,8.338
			c3.483,6.032,5.834,12.653,6.959,19.471h-40.639L194.741,101.139z M136.305,136.948l-33.365,33.365
			c-0.711-1.064-1.402-2.145-2.047-3.263c-7.689-13.318-9.732-28.833-5.751-43.688c1.83-6.833,4.848-13.141,8.856-18.72
			L136.305,136.948z M146.735,149.145l30.149,40.419c-12.702,6.488-27.158,8.03-41.033,4.313
			c-8.316-2.229-15.867-6.197-22.253-11.595L146.735,149.145z M197.41,219.078c-44.563,25.727-101.744,10.404-127.472-34.156
			C44.211,140.361,59.533,83.177,104.094,57.45c21.587-12.462,46.733-15.773,70.81-9.322c24.077,6.451,44.199,21.892,56.662,43.479
			c6.624,11.473,10.729,24.261,12.046,37.342h-19.873c-1.236-9.629-4.383-19.007-9.27-27.471
			c-20.285-35.134-65.37-47.214-100.503-26.93c-35.133,20.284-47.214,65.37-26.93,100.503c9.826,17.02,25.691,29.193,44.674,34.28
			c6.339,1.699,12.771,2.539,19.162,2.539c12.382,0,24.604-3.164,35.683-9.342l11.958,16.032
			C198.139,218.705,197.769,218.872,197.41,219.078z M199.881,193.633h86.676l-39.141,63.726L199.881,193.633z M356.518,450.001
			H205.512l75.503-37.037L356.518,450.001z M282.079,303.832l-24.367-32.667l47.621-77.532h58.945L282.079,303.832z"/>
	</g>
</g>
<g>
</g>
<g>
</g>
<g>
</g>
<g>
</g>
<g>
</g>
<g>
</g>
<g>
</g>
<g>
</g>
<g>
</g>
<g>
</g>
<g>
</g>
<g>
</g>
<g>
</g>
<g>
</g>
<g>
</g>
</svg>
