<?xml version="1.0" encoding="iso-8859-1"?>
<!-- Generator: Adobe Illustrator 19.0.0, SVG Export Plug-In . SVG Version: 6.00 Build 0)  -->
<svg version="1.1" id="Layer_1" xmlns="http://www.w3.org/2000/svg" xmlns:xlink="http://www.w3.org/1999/xlink" x="0px" y="0px"
	 viewBox="0 0 444.634 444.634" style="enable-background:new 0 0 444.634 444.634;" xml:space="preserve">
<g>
	<g>
		<path d="M409.197,56.904c-1.71-4.07-6.4-5.99-10.47-4.28l-100,42c-2.42,1.02-4.19,3.16-4.73,5.72l-26,123
			c-0.13,0.59-0.18,1.17-0.17,1.75l-22.44,22.43l-26.74-38.2c-1.28-1.82-3.26-3.03-5.46-3.34c-2.21-0.31-4.44,0.33-6.16,1.73
			l-15.15,12.4l-24.24-85.45c3.25,1.54,7.23,3.18,12.47,3.18c2.31,0,4.72-0.33,7.16-0.98c9.73-2.61,13.73-8.52,16.66-12.83
			c2.3-3.4,3.57-5.27,7.55-6.35c1.11-0.3,2.1-0.44,3.02-0.44c2.13,0,3.85,0.78,6.7,2.16c3.46,1.68,7.77,3.77,13.68,3.77
			c2.31,0,4.71-0.33,7.16-0.99c9.72-2.6,13.73-8.51,16.65-12.82c2.3-3.39,3.56-5.26,7.45-6.33c2.11-0.58,3.89-1.99,4.92-3.92
			c1.04-1.92,1.24-4.19,0.56-6.27c-8.04-24.67-23.44-45.72-44.54-60.87c-20.82-14.94-45.29-22.84-70.77-22.84
			c-7.91,0-15.82,0.78-23.61,2.33l-1.6-5.65c-1.21-4.25-5.63-6.71-9.88-5.51c-4.25,1.21-6.72,5.63-5.51,9.88l1.53,5.42
			c-57.83,19.56-92.58,79.5-79.78,139.99c0.45,2.13,1.76,3.99,3.62,5.14c1.86,1.15,4.11,1.49,6.23,0.94
			c1.06-0.28,2.01-0.41,2.9-0.41c2.13,0,3.85,0.78,6.7,2.16c3.47,1.68,7.78,3.77,13.68,3.77c2.31,0,4.72-0.33,7.16-0.99
			c9.72-2.6,13.73-8.51,16.65-12.82c2.32-3.41,3.59-5.29,7.49-6.34c0.02,0,0.11-0.03,0.13-0.03c1.08-0.29,2.05-0.43,2.96-0.43
			c2.13,0,3.84,0.79,6.7,2.17c3.46,1.68,7.77,3.77,13.67,3.77c2.31,0,4.72-0.33,7.16-0.99c9.72-2.6,13.73-8.51,16.66-12.83
			c0.78-1.16,1.45-2.14,2.15-2.97l27.06,95.42l-6.25,5.11l-28.93-28.93c-3.12-3.12-8.19-3.12-11.31,0l-14.44,14.44
			c0,0,0,0-0.01,0.01l-4.69,4.68l-25.94-26.48c-1.69-1.73-4.08-2.6-6.48-2.37c-2.41,0.24-4.58,1.54-5.91,3.56
			c-16.92,25.66-25.86,55.53-25.86,86.36c0,41.76,16.2,81.08,45.63,110.71c29.4,29.59,68.55,46.06,110.25,46.38
			c0.4,0.01,0.81,0.01,1.22,0.01c0.4,0,0.81,0,1.22-0.01c41.69-0.32,80.84-16.79,110.23-46.38c29.43-29.63,45.64-68.95,45.64-110.71
			c0-23.49-5.07-46.09-15.07-67.18c-1.03-2.17-2.98-3.77-5.31-4.34c-2.34-0.58-4.81-0.07-6.73,1.38l-30.92,23.31l-9.52-16.68
			l-0.01-0.01l-4.36-7.63c-0.95-1.68-2.47-2.92-4.25-3.56l22.21-105.07l96.13-40.38C408.997,65.664,410.907,60.974,409.197,56.904z
			 M90.707,134.554c-4.83,2.92-7.47,6.78-9.55,9.85c-2.31,3.41-3.58,5.29-7.55,6.35c-1.11,0.29-2.1,0.44-3.02,0.44
			c-2.13,0-3.85-0.78-6.7-2.17c-3.13-1.51-6.95-3.36-12.01-3.71c-5.59-39.03,11.21-76.96,41.62-99.48
			C84.877,68.274,83.427,99.884,90.707,134.554z M253.997,91.154c-4.22,2.84-6.62,6.38-8.55,9.23c-2.31,3.41-3.59,5.28-7.55,6.35
			c-1.11,0.29-2.1,0.44-3.03,0.44c-2.12,0-3.84-0.78-6.69-2.17c-3.37-1.63-7.54-3.63-13.19-3.74c-11.03-33.68-28.1-60.35-46.8-75.46
			C206.557,30.104,239.527,55.064,253.997,91.154z M135.917,129.724c-2.31,3.41-3.58,5.29-7.55,6.36c-1.11,0.29-2.1,0.44-3.02,0.44
			c-2.12,0-3.84-0.79-6.69-2.17c-3.21-1.55-7.16-3.44-12.4-3.71c-5.09-24.64-5.55-48.42-1.22-67.59
			c3.36-14.86,9.24-25.5,16.89-30.92l24.7,87.09C141.047,122.194,138.157,126.424,135.917,129.724z M137.447,28.224
			c9.15,1.11,19.3,7.36,29.38,18.27c13.34,14.44,24.82,35.25,32.73,59.13c-4.41,2.86-6.89,6.51-8.87,9.43
			c-2.31,3.41-3.59,5.29-7.56,6.35c-1.11,0.3-2.1,0.44-3.02,0.44c-2.13,0-3.84-0.78-6.7-2.16c-2.92-1.42-6.46-3.11-11.04-3.61
			L137.447,28.224z M64.557,287.534c0-24.34,6.2-48,18.01-69.01l24.41,24.91c1.5,1.53,3.54,2.4,5.67,2.41h0.05
			c0.4,0,0.79-0.04,1.18-0.1c-0.2,5.09-0.32,10.21-0.32,15.34c0,69.15,18.49,128.58,46.36,159.9
			C104.537,401.894,64.557,349.154,64.557,287.534z M211.827,428.044v-144.04c0-4.42-3.59-8-8-8c-4.42,0-8,3.58-8,8v143.12
			c-15.72-4.83-30.93-21.07-42.77-46.08c-15.16-32.02-23.5-74.63-23.5-119.96c0-10.12,0.42-20.21,1.26-30.05l6.73-6.73l28.39,28.39
			c2.9,2.91,7.54,3.14,10.72,0.54l33.83-27.67l27.26,38.94c1.36,1.94,3.5,3.18,5.86,3.39c0.29,0.02,0.59,0.03,0.88,0.03
			c2.04-0.05,4.01-0.88,5.47-2.35l30.82-30.81c0.64,8.63,0.97,17.46,0.97,26.32c0,45.33-8.35,87.93-23.51,119.96
			C245.487,407.984,228.817,424.754,211.827,428.044z M297.747,261.084c0-0.66-0.02-1.31-0.03-1.96c0.88,0.61,1.88,1.05,2.95,1.27
			c2.25,0.47,4.6-0.06,6.43-1.45l30.05-22.65c6.37,16.28,9.6,33.48,9.6,51.24c0,61.62-39.99,114.36-95.36,133.45
			C279.257,389.664,297.747,330.234,297.747,261.084z"/>
	</g>
</g>
<g>
</g>
<g>
</g>
<g>
</g>
<g>
</g>
<g>
</g>
<g>
</g>
<g>
</g>
<g>
</g>
<g>
</g>
<g>
</g>
<g>
</g>
<g>
</g>
<g>
</g>
<g>
</g>
<g>
</g>
</svg>
