<?xml version="1.0" encoding="iso-8859-1"?>
<!-- Generator: Adobe Illustrator 19.0.0, SVG Export Plug-In . SVG Version: 6.00 Build 0)  -->
<svg version="1.1" id="Layer_1" xmlns="http://www.w3.org/2000/svg" xmlns:xlink="http://www.w3.org/1999/xlink" x="0px" y="0px"
	 viewBox="0 0 487 487" style="enable-background:new 0 0 487 487;" xml:space="preserve">
<g>
	<g>
		<g>
			<path d="M250.87,174.9c-1.25-2.97-4.15-4.9-7.37-4.9c-3.22,0-6.13,1.93-7.38,4.9c-0.08,0.19-8.24,19.63-16.3,39.81
				C203,256.83,203,260.96,203,263.43c0,22.33,18.17,40.5,40.5,40.5s40.5-18.17,40.5-40.5c0-2.47,0-6.6-16.82-48.72
				C259.12,194.53,250.95,175.09,250.87,174.9z M243.5,287.93c-13.43,0-24.37-10.86-24.5-24.26c0.79-5.41,12.06-34.56,24.5-64.82
				c12.43,30.26,23.71,59.41,24.5,64.82C267.87,277.07,256.93,287.93,243.5,287.93z"/>
			<path d="M160.5,205c-4.42,0-8,3.58-8,8v28.11l-7.23,14.45l-6.77-14.35V213c0-4.42-3.58-8-8-8c-4.42,0-8,3.58-8,8v28.3
				l-6.77,15.23l-7.23-15.32V213c0-4.42-3.58-8-8-8c-4.42,0-8,3.58-8,8v30.13c0.01,0.16,0.02,0.33,0.03,0.5
				c0.01,0.1,0.02,0.21,0.03,0.31c0.02,0.15,0.04,0.29,0.07,0.44c0.02,0.13,0.04,0.25,0.07,0.37c0.02,0.12,0.05,0.24,0.09,0.36
				c0.04,0.14,0.08,0.29,0.13,0.43c0.03,0.1,0.07,0.19,0.1,0.29c0.06,0.16,0.13,0.32,0.2,0.47c0.01,0.04,0.03,0.08,0.04,0.12
				l14.17,30c1.32,2.79,4.14,4.58,7.23,4.58h2.5c3.17,0,6.03-1.86,7.31-4.75l6.25-14.05l6.71,14.22c1.32,2.79,4.14,4.58,7.23,4.58
				h0.84c3.03,0,5.8-1.71,7.15-4.42l15-30c0.03-0.06,0.05-0.11,0.08-0.17c0.07-0.16,0.14-0.31,0.2-0.47c0.04-0.1,0.08-0.2,0.11-0.3
				c0.05-0.14,0.1-0.29,0.14-0.43c0.04-0.13,0.07-0.25,0.1-0.37c0.03-0.13,0.05-0.25,0.08-0.38c0.03-0.15,0.05-0.3,0.07-0.45
				c0.01-0.1,0.02-0.21,0.03-0.31c0.02-0.17,0.02-0.34,0.03-0.51c0-0.06,0.01-0.13,0.01-0.19v-30C168.5,208.58,164.92,205,160.5,205
				z"/>
			<path d="M228.5,162c4.42,0,8-3.58,8-8v-26.11l14.84,29.69c1.38,2.75,4.18,4.42,7.16,4.42c0.61,0,1.22-0.07,1.84-0.21
				c3.61-0.86,6.16-4.08,6.16-7.79V94c0-4.42-3.58-8-8-8c-4.42,0-8,3.58-8,8v26.11l-14.85-29.69c-1.66-3.32-5.38-5.06-8.99-4.21
				c-3.61,0.86-6.16,4.08-6.16,7.79v60C220.5,158.42,224.08,162,228.5,162z"/>
			<path d="M379.5,251c4.42,0,8-3.58,8-8s-3.58-8-8-8h-22v-14h22c4.42,0,8-3.58,8-8s-3.58-8-8-8h-30c-4.42,0-8,3.58-8,8v60
				c0,4.42,3.58,8,8,8h30c4.42,0,8-3.58,8-8c0-4.42-3.58-8-8-8h-22v-14H379.5z"/>
			<path d="M240.16,337h18.34c4.42,0,8-3.58,8-8c0-4.42-3.58-8-8-8h-18.34c-10.84,0-19.66,8.82-19.66,19.67v6.66
				c0,10.85,8.82,19.67,19.66,19.67c0.58,0,1.13-0.06,1.67-0.18c0.54,0.12,1.1,0.18,1.67,0.18h3.33c2.02,0,3.67,1.65,3.67,3.67v6.66
				c0,2.02-1.65,3.67-3.67,3.67H228.5c-4.42,0-8,3.58-8,8c0,4.42,3.58,8,8,8h18.33c10.85,0,19.67-8.82,19.67-19.67v-6.66
				c0-10.85-8.82-19.67-19.67-19.67h-3.33c-0.57,0-1.13,0.06-1.67,0.18c-0.54-0.12-1.09-0.18-1.67-0.18c-2.02,0-3.66-1.65-3.66-3.67
				v-6.66C236.5,338.65,238.14,337,240.16,337z"/>
			<path d="M187.54,340.04c-3.82-2.21-8.71-0.9-10.92,2.93c-2.22,3.82-0.91,8.71,2.92,10.93c0-0.01,0-0.01,0-0.01
				c1.26,0.73,2.64,1.08,3.99,1.08c2.77,0,5.46-1.43,6.94-4C192.68,347.15,191.37,342.25,187.54,340.04z"/>
			<path d="M299.52,340c-3.82,2.22-5.12,7.11-2.91,10.93c1.48,2.57,4.17,4,6.93,4c1.36,0,2.74-0.35,4-1.08
				c3.82-2.21,5.13-7.11,2.92-10.93C308.24,339.09,303.35,337.79,299.52,340z"/>
			<path d="M146.47,314.06c-3.39,2.85-3.82,7.89-0.98,11.28c1.58,1.88,3.85,2.85,6.13,2.85c1.82,0,3.64-0.62,5.14-1.88
				c3.39-2.84,3.82-7.89,0.98-11.27C154.89,311.66,149.85,311.22,146.47,314.06z"/>
			<path d="M340.59,313.99c-3.39-2.84-8.43-2.4-11.28,0.99c-2.84,3.38-2.4,8.43,0.99,11.27c1.5,1.26,3.32,1.87,5.14,1.87
				c2.28,0,4.54-0.97,6.13-2.85C344.41,321.88,343.97,316.84,340.59,313.99z"/>
			<path d="M146.36,172.08c1.5,1.26,3.32,1.87,5.13,1.87c2.29,0,4.56-0.97,6.14-2.86c2.84-3.39,2.39-8.43-0.99-11.27
				c-3.39-2.84-8.43-2.39-11.27,0.99C142.53,164.2,142.97,169.24,146.36,172.08z"/>
			<path d="M335.33,173.74c1.82,0,3.65-0.62,5.15-1.88c3.38-2.85,3.81-7.89,0.96-11.27c-2.84-3.38-7.89-3.81-11.27-0.97
				c-3.38,2.85-3.81,7.9-0.96,11.28C330.79,172.77,333.05,173.74,335.33,173.74z"/>
			<path d="M183.39,147.12c1.37,0,2.75-0.35,4.01-1.08c3.82-2.21,5.12-7.11,2.91-10.93c-2.22-3.82-7.11-5.13-10.94-2.91
				c-3.82,2.22-5.12,7.11-2.9,10.94C177.95,145.69,180.63,147.12,183.39,147.12z"/>
			<path d="M299.38,145.91c1.26,0.73,2.63,1.08,3.99,1.08c2.77,0,5.46-1.44,6.94-4.01c2.2-3.83,0.89-8.72-2.94-10.93
				c0,0.01,0,0.01,0,0.01c-3.82-2.21-8.71-0.9-10.92,2.93C294.24,138.81,295.55,143.71,299.38,145.91z"/>
			<path d="M367.5,108.43V0h-248v108.43c-36.27,33.44-59,81.35-59,134.57c0,53.22,22.73,101.13,59,134.57V487h248V377.57
				c36.27-33.44,59-81.35,59-134.57C426.5,189.78,403.77,141.87,367.5,108.43z M135.5,16h216v79.27C321.23,73.1,283.9,60,243.5,60
				c-40.4,0-77.73,13.1-108,35.27V16z M351.5,471h-216v-80.27c30.27,22.17,67.6,35.27,108,35.27c40.4,0,77.73-13.1,108-35.27V471z
				 M243.5,410c-92.23,0-167-74.77-167-167s74.77-167,167-167s167,74.77,167,167S335.73,410,243.5,410z"/>
		</g>
	</g>
</g>
<g>
</g>
<g>
</g>
<g>
</g>
<g>
</g>
<g>
</g>
<g>
</g>
<g>
</g>
<g>
</g>
<g>
</g>
<g>
</g>
<g>
</g>
<g>
</g>
<g>
</g>
<g>
</g>
<g>
</g>
</svg>
