<?xml version="1.0" encoding="iso-8859-1"?>
<!-- Generator: Adobe Illustrator 19.0.0, SVG Export Plug-In . SVG Version: 6.00 Build 0)  -->
<svg version="1.1" id="Layer_1" xmlns="http://www.w3.org/2000/svg" xmlns:xlink="http://www.w3.org/1999/xlink" x="0px" y="0px"
	 viewBox="0 0 450 450" style="enable-background:new 0 0 450 450;" xml:space="preserve">
<g>
	<g>
		<g>
			<path d="M411,80H39C17.495,80,0,97.495,0,119v147v50v15c0,21.505,17.495,39,39,39h372c21.505,0,39-17.495,39-39v-15v-50V119
				C450,97.495,432.505,80,411,80z M434,331c0,12.683-10.317,23-23,23H39c-12.683,0-23-10.317-23-23v-7h418V331z M434,308H16v-34
				h418V308z M434,258H16V119c0-12.683,10.317-23,23-23h372c12.683,0,23,10.317,23,23V258z"/>
			<path d="M88,182H50c-4.418,0-8,3.582-8,8v40c0,4.418,3.582,8,8,8h38c4.418,0,8-3.582,8-8v-40C96,185.582,92.418,182,88,182z
				 M80,222H58v-24h22V222z"/>
			<path d="M166,182h-38c-4.418,0-8,3.582-8,8v40c0,4.418,3.582,8,8,8h38c4.418,0,8-3.582,8-8v-40C174,185.582,170.418,182,166,182z
				 M158,222h-22v-24h22V222z"/>
			<path d="M244,182h-38c-4.418,0-8,3.582-8,8v40c0,4.418,3.582,8,8,8h38c4.418,0,8-3.582,8-8v-40C252,185.582,248.418,182,244,182z
				 M236,222h-22v-24h22V222z"/>
			<path d="M322,182h-38c-4.418,0-8,3.582-8,8v40c0,4.418,3.582,8,8,8h38c4.418,0,8-3.582,8-8v-40C330,185.582,326.418,182,322,182z
				 M314,222h-22v-24h22V222z"/>
			<path d="M400,182h-38c-4.418,0-8,3.582-8,8v40c0,4.418,3.582,8,8,8h38c4.418,0,8-3.582,8-8v-40C408,185.582,404.418,182,400,182z
				 M392,222h-22v-24h22V222z"/>
			<path d="M88,150h216c4.418,0,8-3.582,8-8c0-4.418-3.582-8-8-8H88c-4.418,0-8,3.582-8,8C80,146.418,83.582,150,88,150z"/>
		</g>
	</g>
</g>
<g>
</g>
<g>
</g>
<g>
</g>
<g>
</g>
<g>
</g>
<g>
</g>
<g>
</g>
<g>
</g>
<g>
</g>
<g>
</g>
<g>
</g>
<g>
</g>
<g>
</g>
<g>
</g>
<g>
</g>
</svg>
