<?xml version="1.0" encoding="iso-8859-1"?>
<!-- Generator: Adobe Illustrator 19.0.0, SVG Export Plug-In . SVG Version: 6.00 Build 0)  -->
<svg version="1.1" id="Layer_1" xmlns="http://www.w3.org/2000/svg" xmlns:xlink="http://www.w3.org/1999/xlink" x="0px" y="0px"
	 viewBox="0 0 451 451" style="enable-background:new 0 0 451 451;" xml:space="preserve">
<g>
	<g>
		<g>
			<path d="M134.833,222.232V169.5h11c4.418,0,8-3.582,8-8c0-4.418-3.582-8-8-8h-11v-12c0-4.418-3.582-8-8-8c-4.418,0-8,3.582-8,8
				v12h-10v-12c0-4.418-3.582-8-8-8c-4.418,0-8,3.582-8,8v12.14C75.579,155.165,62,169.689,62,187.333v16.334
				c0,17.644,13.579,32.168,30.833,33.693v52.14h-15c-4.418,0-8,3.582-8,8c0,4.418,3.582,8,8,8h15v15c0,4.418,3.582,8,8,8
				c4.418,0,8-3.582,8-8v-15h10v15c0,4.418,3.582,8,8,8s8-3.582,8-8v-15.733c15.308-3.234,26.834-16.845,26.834-33.1v-16.334
				C161.667,239.077,150.141,225.466,134.833,222.232z M92.833,221.227C84.426,219.794,78,212.476,78,203.667v-16.334
				c0-8.809,6.426-16.127,14.833-17.56V221.227z M118.833,289.5h-10v-52h10V289.5z M118.833,221.5h-10v-52h10V221.5z
				 M145.667,271.667c0,7.349-4.471,13.672-10.834,16.398v-49.13c6.364,2.727,10.834,9.049,10.834,16.398V271.667z"/>
			<path d="M381.026,143.276c-3.437-2.776-8.474-2.239-11.25,1.197L334,188.768l-35.776-44.295
				c-2.776-3.439-7.814-3.975-11.25-1.197c-3.438,2.776-3.974,7.813-1.197,11.25L326,204.327V217.5h-21c-4.418,0-8,3.582-8,8
				c0,4.418,3.582,8,8,8h21v16h-21c-4.418,0-8,3.582-8,8c0,4.418,3.582,8,8,8h21v55c0,4.418,3.582,8,8,8c4.418,0,8-3.582,8-8v-55h19
				c4.418,0,8-3.582,8-8c0-4.418-3.582-8-8-8h-19v-16h19c4.418,0,8-3.582,8-8c0-4.418-3.582-8-8-8h-19v-13.173l40.224-49.801
				C385,151.09,384.464,146.053,381.026,143.276z"/>
			<path d="M205.5,216.5h48c4.418,0,8-3.582,8-8c0-4.418-3.582-8-8-8h-48c-4.418,0-8,3.582-8,8
				C197.5,212.918,201.082,216.5,205.5,216.5z"/>
			<path d="M253.5,233.5h-48c-4.418,0-8,3.582-8,8c0,4.418,3.582,8,8,8h48c4.418,0,8-3.582,8-8
				C261.5,237.082,257.918,233.5,253.5,233.5z"/>
			<path d="M192.657,180.843c-3.125-3.123-8.189-3.123-11.314,0l-20,20c-3.124,3.125-3.124,8.189,0,11.314l20,20
				c1.563,1.562,3.609,2.343,5.657,2.343c2.048,0,4.095-0.781,5.657-2.343c3.124-3.125,3.124-8.189,0-11.314L178.314,206.5
				l14.343-14.343C195.781,189.032,195.781,183.968,192.657,180.843z"/>
			<path d="M273.657,216.843c-3.125-3.123-8.189-3.123-11.314,0c-3.124,3.125-3.124,8.189,0,11.314l14.343,14.343l-14.343,14.343
				c-3.124,3.125-3.124,8.189,0,11.314c1.563,1.562,3.609,2.343,5.657,2.343c2.048,0,4.095-0.781,5.657-2.343l20-20
				c3.124-3.125,3.124-8.189,0-11.314L273.657,216.843z"/>
			<path d="M443,95h-58H66H8c-4.418,0-8,3.582-8,8v58v129v58c0,4.418,3.582,8,8,8h58h319h58c4.418,0,8-3.582,8-8v-58V161v-58
				C451,98.582,447.418,95,443,95z M16,111h41.978c-0.735,22.818-19.16,41.243-41.978,41.977V111z M16,340v-41.978
				c22.818,0.734,41.243,19.159,41.978,41.978H16z M435,340h-41.978c0.734-22.818,19.159-41.243,41.978-41.978V340z M435,282.036
				c-31.636,0.747-57.217,26.328-57.964,57.964H73.964C73.217,308.364,47.636,282.783,16,282.036V168.964
				c31.636-0.747,57.217-26.328,57.964-57.964h303.072c0.747,31.636,26.328,57.217,57.964,57.964V282.036z M435,152.977
				c-22.818-0.734-41.243-19.159-41.978-41.977H435V152.977z"/>
		</g>
	</g>
</g>
<g>
</g>
<g>
</g>
<g>
</g>
<g>
</g>
<g>
</g>
<g>
</g>
<g>
</g>
<g>
</g>
<g>
</g>
<g>
</g>
<g>
</g>
<g>
</g>
<g>
</g>
<g>
</g>
<g>
</g>
</svg>
