<?xml version="1.0" encoding="iso-8859-1"?>
<!-- Generator: Adobe Illustrator 19.0.0, SVG Export Plug-In . SVG Version: 6.00 Build 0)  -->
<svg version="1.1" id="Layer_1" xmlns="http://www.w3.org/2000/svg" xmlns:xlink="http://www.w3.org/1999/xlink" x="0px" y="0px"
	 viewBox="0 0 466 466" style="enable-background:new 0 0 466 466;" xml:space="preserve">
<g>
	<g>
		<g>
			<path d="M419.951,125.945v-0.003c2.271,0,4.435-0.965,5.952-2.654l34.549-38.472c2.73-3.041,2.73-7.65,0-10.691l-34.549-38.471
				c-1.518-1.689-3.681-2.654-5.952-2.654H265.5V8c0-4.418-3.582-8-8-8h-50c-4.419,0-8,3.582-8,8v101.942H63.049
				c-2.271,0-4.435,0.965-5.952,2.654l-34.549,38.471c-2.73,3.041-2.73,7.65,0,10.691l34.549,38.471
				c1.518,1.689,3.681,2.654,5.952,2.654H199.5v143.813l-6.354-6.354c-1.501-1.5-3.535-2.343-5.657-2.343s-4.157,0.843-5.657,2.344
				l-38.336,38.342l-38.34-38.342c-1.501-1.501-3.536-2.344-5.657-2.344c-2.121,0-4.157,0.843-5.657,2.343l-38.343,38.344
				l-38.342-38.344c-3.123-3.123-8.188-3.123-11.313,0c-3.124,3.124-3.125,8.189,0,11.314l43.999,44
				c1.5,1.5,3.535,2.343,5.657,2.343s4.157-0.843,5.657-2.343L99.5,357.312l38.341,38.343c1.501,1.501,3.536,2.344,5.657,2.344
				c2.122,0,4.157-0.843,5.657-2.344l38.336-38.342l12.01,12.01V458c0,4.418,3.581,8,8,8s8-3.582,8-8V194.884v-76.941V16h34v25
				v76.942v76.941v76.942V458c0,4.418,3.581,8,8,8c4.418,0,8-3.582,8-8v-90.698l9.987-9.988l38.344,38.344
				c1.562,1.562,3.609,2.343,5.657,2.343c2.047,0,4.095-0.781,5.657-2.343l38.344-38.344l38.349,38.344
				c3.125,3.123,8.189,3.123,11.314,0l44.005-44c3.125-3.124,3.125-8.189,0.001-11.313c-3.124-3.125-8.188-3.124-11.314-0.001
				l-38.349,38.345l-38.349-38.345c-3.125-3.123-8.189-3.123-11.314,0l-38.343,38.344l-38.344-38.344
				c-1.5-1.5-3.535-2.343-5.657-2.343s-4.157,0.843-5.657,2.343l-4.331,4.331v-64.847h103.451c2.271,0,4.435-0.965,5.952-2.654
				l34.549-38.471c2.73-3.041,2.73-7.65,0-10.691l-34.549-38.472c-1.517-1.689-3.681-2.654-5.952-2.654H265.5v-60.941H419.951z
				 M265.5,49h150.883l27.365,30.471l-27.365,30.472H265.5V49z M199.5,186.883H66.617v0.001l-27.365-30.471l27.365-30.471H199.5
				V186.883z M365.383,202.885v-0.001l27.365,30.472l-27.365,30.471H265.5v-60.942H365.383z"/>
			<path d="M381.5,71.471h-82c-4.419,0-8,3.582-8,8c0,4.418,3.581,8,8,8h82c4.418,0,8-3.582,8-8
				C389.5,75.053,385.918,71.471,381.5,71.471z"/>
			<path d="M89.5,164.413h82c4.419,0,8-3.582,8-8c0-4.418-3.581-8-8-8h-82c-4.418,0-8,3.582-8,8
				C81.5,160.831,85.082,164.413,89.5,164.413z"/>
			<path d="M284.5,241.355h69c4.418,0,8-3.582,8-8c0-4.418-3.582-8-8-8h-69c-4.419,0-8,3.582-8,8
				C276.5,237.773,280.081,241.355,284.5,241.355z"/>
		</g>
	</g>
</g>
<g>
</g>
<g>
</g>
<g>
</g>
<g>
</g>
<g>
</g>
<g>
</g>
<g>
</g>
<g>
</g>
<g>
</g>
<g>
</g>
<g>
</g>
<g>
</g>
<g>
</g>
<g>
</g>
<g>
</g>
</svg>
