<?xml version="1.0" encoding="iso-8859-1"?>
<!-- Generator: Adobe Illustrator 19.0.0, SVG Export Plug-In . SVG Version: 6.00 Build 0)  -->
<svg version="1.1" id="Layer_1" xmlns="http://www.w3.org/2000/svg" xmlns:xlink="http://www.w3.org/1999/xlink" x="0px" y="0px"
	 viewBox="0 0 442 442" style="enable-background:new 0 0 442 442;" xml:space="preserve">
<g>
	<g>
		<g>
			<path d="M434,58H8c-4.419,0-8,3.582-8,8v240.5V376c0,4.418,3.581,8,8,8h426c4.418,0,8-3.582,8-8v-69.5V66
				C442,61.582,438.418,58,434,58z M426,368H16v-53.5h410V368z M426,298.5H16V74h410V298.5z"/>
			<path d="M357,349h8c4.418,0,8-3.582,8-8c0-4.418-3.582-8-8-8h-8c-4.419,0-8,3.582-8,8C349,345.418,352.581,349,357,349z"/>
			<path d="M317,349h8c4.418,0,8-3.582,8-8c0-4.418-3.582-8-8-8h-8c-4.419,0-8,3.582-8,8C309,345.418,312.581,349,317,349z"/>
			<path d="M277,349h8c4.418,0,8-3.582,8-8c0-4.418-3.582-8-8-8h-8c-4.419,0-8,3.582-8,8C269,345.418,272.581,349,277,349z"/>
			<path d="M397,349h8c4.418,0,8-3.582,8-8c0-4.418-3.582-8-8-8h-8c-4.419,0-8,3.582-8,8C389,345.418,392.581,349,397,349z"/>
			<path d="M37,349h8c4.418,0,8-3.582,8-8c0-4.418-3.582-8-8-8h-8c-4.419,0-8,3.582-8,8C29,345.418,32.581,349,37,349z"/>
			<path d="M77,349h8c4.418,0,8-3.582,8-8c0-4.418-3.582-8-8-8h-8c-4.419,0-8,3.582-8,8C69,345.418,72.581,349,77,349z"/>
			<path d="M117,349h8c4.418,0,8-3.582,8-8c0-4.418-3.582-8-8-8h-8c-4.419,0-8,3.582-8,8C109,345.418,112.581,349,117,349z"/>
			<path d="M237,349h8c4.418,0,8-3.582,8-8c0-4.418-3.582-8-8-8h-8c-4.419,0-8,3.582-8,8C229,345.418,232.581,349,237,349z"/>
			<path d="M197,349h8c4.418,0,8-3.582,8-8c0-4.418-3.582-8-8-8h-8c-4.419,0-8,3.582-8,8C189,345.418,192.581,349,197,349z"/>
			<path d="M157,349h8c4.418,0,8-3.582,8-8c0-4.418-3.582-8-8-8h-8c-4.419,0-8,3.582-8,8C149,345.418,152.581,349,157,349z"/>
			<path d="M145.5,220.72h40.088v40.529c0,4.418,3.581,8,8,8h53.823c4.419,0,8-3.582,8-8V220.72H295.5c4.418,0,8-3.581,8-8v-52.941
				c0-4.418-3.582-8-8-8h-40.088V111.25c0-4.419-3.581-8-8-8h-53.823c-4.419,0-8,3.581-8,8v40.529H145.5c-4.419,0-8,3.581-8,8
				v52.941C137.5,217.139,141.081,220.72,145.5,220.72z M153.5,167.78h40.088c4.418,0,8-3.581,8-8v-40.53h37.823v40.529
				c0,4.419,3.582,8,8,8H287.5v36.942h-40.088c-4.418,0-8,3.581-8,8v40.529h-37.823v-40.529c0-4.419-3.582-8-8-8H153.5V167.78z"/>
			<path d="M389,269.25c4.418,0,8-3.582,8-8v-150c0-4.419-3.582-8-8-8c-4.419,0-8,3.581-8,8v150
				C381,265.668,384.581,269.25,389,269.25z"/>
			<path d="M350,269.25c4.418,0,8-3.582,8-8v-150c0-4.419-3.582-8-8-8c-4.419,0-8,3.581-8,8v150
				C342,265.668,345.581,269.25,350,269.25z"/>
			<path d="M43,114.75h52c4.418,0,8-3.581,8-8s-3.582-8-8-8H43c-4.419,0-8,3.581-8,8S38.581,114.75,43,114.75z"/>
			<path d="M43,154.5h52c4.418,0,8-3.581,8-8s-3.582-8-8-8H43c-4.419,0-8,3.581-8,8S38.581,154.5,43,154.5z"/>
			<path d="M43,194.25h52c4.418,0,8-3.581,8-8s-3.582-8-8-8H43c-4.419,0-8,3.581-8,8S38.581,194.25,43,194.25z"/>
			<path d="M43,234h52c4.418,0,8-3.581,8-8s-3.582-8-8-8H43c-4.419,0-8,3.581-8,8S38.581,234,43,234z"/>
			<path d="M43,273.75h52c4.418,0,8-3.582,8-8c0-4.418-3.582-8-8-8H43c-4.419,0-8,3.582-8,8C35,270.168,38.581,273.75,43,273.75z"/>
		</g>
	</g>
</g>
<g>
</g>
<g>
</g>
<g>
</g>
<g>
</g>
<g>
</g>
<g>
</g>
<g>
</g>
<g>
</g>
<g>
</g>
<g>
</g>
<g>
</g>
<g>
</g>
<g>
</g>
<g>
</g>
<g>
</g>
</svg>
