<?xml version="1.0" encoding="iso-8859-1"?>
<!-- Generator: Adobe Illustrator 19.0.0, SVG Export Plug-In . SVG Version: 6.00 Build 0)  -->
<svg version="1.1" id="Layer_1" xmlns="http://www.w3.org/2000/svg" xmlns:xlink="http://www.w3.org/1999/xlink" x="0px" y="0px"
	 viewBox="0 0 368.55 368.55" style="enable-background:new 0 0 368.55 368.55;" xml:space="preserve">
<g>
	<g>
		<g>
			<path d="M345.871,37.754c-14.639-18.711-36.719-31.487-62.235-35.988l-1.685-0.284C276.386,0.499,270.915,0,265.693,0
				c-20.178,0-37.033,7.25-48.745,20.965c-13.745,16.096-18.975,39.766-14.732,66.655c8.656,65.201,10.725,133.377,6.151,202.63
				c-2.104,24.322,3.941,45.575,17.024,59.85c11.063,12.07,26.29,18.449,44.038,18.449c4.509,0,9.201-0.423,13.884-1.246
				l1.567-0.264c22.487-3.953,42.379-15.706,56.013-33.094c13.468-17.177,19.725-38.29,17.625-59.459
				c-4.321-59.07-2.902-117.283,4.219-173.027C366.389,78.946,360.403,56.327,345.871,37.754z M282.167,351.273l-1.559,0.262
				c-3.834,0.674-7.595,1.015-11.178,1.015c-13.143,0-24.292-4.585-32.243-13.26c-10.032-10.945-14.604-27.897-12.873-47.732
				c0.005-0.056,0.009-0.111,0.013-0.168c1.873-28.326,2.632-56.473,2.318-84.326l56.549-52.51l56.788,60.909
				c0.046,0.049,0.096,0.09,0.142,0.137c0.164,19.918,0.968,39.99,2.446,60.16c0.005,0.072,0.011,0.145,0.019,0.216
				C346.174,311.612,319.609,344.69,282.167,351.273z M346.925,99.014c-0.015,0.093-0.029,0.186-0.041,0.28
				c-3.884,30.364-6.092,61.443-6.65,92.978L291.3,139.786l-5.491-71.887c-0.336-4.406-4.182-7.714-8.586-7.367
				c-4.405,0.336-7.704,4.181-7.367,8.586l5.42,70.954l-49.077,45.572c-1.074-33.985-3.783-67.472-8.135-100.227
				c-0.009-0.066-0.019-0.133-0.029-0.2c-3.527-22.234,0.408-41.363,11.08-53.862C237.693,21.31,250.341,16,265.693,16
				c4.291,0,8.824,0.417,13.539,1.25l1.688,0.284C324.176,25.164,353.169,60.954,346.925,99.014z"/>
			<path d="M323.62,277.15c-1.276-17.417-2.081-35.011-2.393-52.294c-0.079-4.417-3.757-7.934-8.142-7.854
				c-4.418,0.08-7.934,3.725-7.855,8.142c0.316,17.576,1.135,35.466,2.433,53.174l0.035,0.474c0.005,0.071,0.011,0.143,0.018,0.214
				l0.047,0.476c0.809,8.037-1.678,16.204-7.003,22.996c-5.838,7.445-14.579,12.529-24.542,14.303l-1.667,0.282
				c-1.84,0.323-3.564,0.487-5.122,0.487c-4.691,0-5.917-1.337-6.441-1.909c-2.565-2.798-4.737-10.39-3.807-21.045l0.032-0.366
				c0.004-0.054,0.009-0.107,0.012-0.161l0.024-0.37c1.291-19.519,2.086-39.229,2.365-58.584c0.064-4.418-3.466-8.051-7.884-8.114
				c-4.42-0.045-8.051,3.465-8.114,7.884c-0.275,19.081-1.06,38.513-2.332,57.755l-0.044,0.568
				c-1.244,14.256,1.654,26.372,7.951,33.242c4.377,4.777,10.342,7.099,18.236,7.099c2.484,0,5.139-0.245,7.838-0.719l1.685-0.285
				c13.913-2.477,26.129-9.649,34.398-20.196c7.888-10.059,11.557-22.301,10.333-34.466L323.62,277.15z"/>
			<path d="M102.858,0c-5.223,0-10.693,0.499-16.192,1.472l-1.814,0.306c-25.453,4.49-47.533,17.267-62.173,35.977
				C8.147,56.327,2.16,78.946,5.812,101.46c7.122,55.741,8.541,113.954,4.22,173.027c-2.101,21.168,4.156,42.282,17.625,59.459
				c13.633,17.388,33.526,29.141,56.069,33.104l1.448,0.244c4.745,0.833,9.437,1.256,13.947,1.256c0.001,0,0.002,0,0.003,0
				c17.746,0,32.973-6.379,44.035-18.447c13.084-14.275,19.129-35.528,17.025-59.852c-4.574-69.251-2.505-137.428,6.151-202.63
				c4.243-26.89-0.987-50.559-14.732-66.655C139.891,7.25,123.035,0,102.858,0z M131.363,339.292
				c-7.951,8.674-19.1,13.259-32.242,13.258c-3.585,0-7.346-0.342-11.24-1.025l-1.441-0.242
				c-37.498-6.593-64.063-39.67-60.477-75.305c0.007-0.072,0.013-0.144,0.019-0.216c1.478-20.17,2.282-40.242,2.446-60.16
				c0.047-0.047,0.097-0.089,0.142-0.138l56.788-60.909l56.549,52.509c-0.314,27.853,0.444,56,2.318,84.326
				c0.003,0.056,0.008,0.112,0.013,0.168C145.967,311.394,141.395,328.346,131.363,339.292z M150.515,85.217
				c-0.01,0.066-0.02,0.133-0.029,0.2c-4.352,32.755-7.061,66.243-8.135,100.227l-49.077-45.571l5.42-70.954
				c0.337-4.405-2.962-8.25-7.367-8.586c-4.396-0.336-8.25,2.962-8.586,7.367l-5.491,71.887l-48.934,52.486
				c-0.559-31.536-2.766-62.616-6.65-92.979c-0.012-0.094-0.026-0.187-0.041-0.28c-6.244-38.06,22.749-73.85,65.944-81.469
				l1.816-0.306C94.034,16.417,98.567,16,102.858,16c15.352,0,27.999,5.31,36.577,15.355
				C150.107,43.854,154.043,62.983,150.515,85.217z"/>
			<path d="M125.264,292.644c-1.031-15.593-1.744-31.352-2.121-46.839c-0.107-4.418-3.792-7.896-8.192-7.803
				c-4.417,0.107-7.911,3.775-7.803,8.192c0.381,15.708,1.105,31.692,2.151,47.51l0.024,0.366c0.004,0.053,0.008,0.105,0.012,0.159
				l0.032,0.371c0.93,10.652-1.242,18.244-3.808,21.043c-0.523,0.571-1.748,1.907-6.439,1.907c-1.56,0-3.284-0.164-5.176-0.496
				l-1.541-0.26c-10.035-1.787-18.777-6.871-24.615-14.316c-5.325-6.792-7.813-14.958-7.003-23l0.047-0.473
				c0.007-0.071,0.013-0.142,0.018-0.213l0.035-0.473c1.249-17.035,2.054-34.247,2.394-51.157c0.089-4.417-3.42-8.07-7.838-8.159
				c-0.055-0.001-0.109-0.001-0.164-0.001c-4.343,0-7.907,3.477-7.995,7.839c-0.334,16.628-1.126,33.555-2.354,50.31l-0.063,0.73
				c-1.224,12.168,2.445,24.41,10.333,34.47c8.269,10.546,20.486,17.719,34.471,20.208l1.559,0.263
				c2.751,0.483,5.407,0.728,7.894,0.728c7.893,0,13.857-2.322,18.233-7.097c6.297-6.871,9.196-18.987,7.952-33.239L125.264,292.644
				z"/>
		</g>
	</g>
</g>
<g>
</g>
<g>
</g>
<g>
</g>
<g>
</g>
<g>
</g>
<g>
</g>
<g>
</g>
<g>
</g>
<g>
</g>
<g>
</g>
<g>
</g>
<g>
</g>
<g>
</g>
<g>
</g>
<g>
</g>
</svg>
