<?xml version="1.0" encoding="iso-8859-1"?>
<!-- Generator: Adobe Illustrator 19.0.0, SVG Export Plug-In . SVG Version: 6.00 Build 0)  -->
<svg version="1.1" id="Layer_1" xmlns="http://www.w3.org/2000/svg" xmlns:xlink="http://www.w3.org/1999/xlink" x="0px" y="0px"
	 viewBox="0 0 421.811 421.811" style="enable-background:new 0 0 421.811 421.811;" xml:space="preserve">
<g>
	<g>
		<g>
			<path d="M124.906,205.656h-55c-4.418,0-8,3.582-8,8v55c0,4.418,3.582,8,8,8h55c4.418,0,8-3.582,8-8v-55
				C132.906,209.238,129.324,205.656,124.906,205.656z M116.906,260.656h-39v-39h39V260.656z"/>
			<path d="M297.906,276.656h55c4.418,0,8-3.582,8-8v-55c0-4.418-3.582-8-8-8h-55c-4.418,0-8,3.582-8,8v55
				C289.906,273.074,293.488,276.656,297.906,276.656z M305.906,221.656h39v39h-39V221.656z"/>
			<path d="M419.317,50.852c-3.206-3.04-8.27-2.908-11.31,0.298c-21.504,22.669-78.818,39.793-147.424,45.472
				c-6.129-5.569-14.264-8.967-23.177-8.967c-9.946,0-18.917,4.236-25.219,10.992c-0.428,0.001-0.853,0.008-1.281,0.008
				c-0.428,0-0.853-0.007-1.281-0.008c-6.302-6.756-15.273-10.992-25.219-10.992c-8.914,0-17.048,3.398-23.177,8.967
				C92.623,90.943,35.308,73.818,13.804,51.15c-3.042-3.206-8.104-3.339-11.31-0.298s-3.339,8.104-0.298,11.31
				c23.371,24.637,80.051,42.922,149.293,49.658c-1.027,3.265-1.583,6.736-1.583,10.336c0,3.477,0.522,6.833,1.483,10H95.656
				c-40.114,0-72.75,32.636-72.75,72.75v95.5c0,40.114,32.636,72.75,72.75,72.75h65.25h100h65.25c40.114,0,72.75-32.636,72.75-72.75
				v-95.5c0-40.114-32.636-72.75-72.75-72.75h-55.733c0.961-3.167,1.483-6.523,1.483-10c0-3.599-0.556-7.071-1.583-10.335
				c69.242-6.737,125.922-25.022,149.292-49.659C422.656,58.955,422.522,53.892,419.317,50.852z M237.406,103.656
				c10.201,0,18.5,8.298,18.5,18.5c0,10.201-8.299,18.5-18.5,18.5s-18.5-8.299-18.5-18.5S227.205,103.656,237.406,103.656z
				 M184.406,103.656c10.201,0,18.5,8.298,18.5,18.5c0,10.201-8.299,18.5-18.5,18.5s-18.5-8.299-18.5-18.5
				S174.205,103.656,184.406,103.656z M152.905,357.155h-57.25c-31.044,0.001-56.333-25.061-56.731-56.014
				c7.903,1.167,12.665,4.342,18.359,8.159c7.939,5.323,16.937,11.355,34.287,11.355c17.349,0,26.348-6.032,34.287-11.355
				c7.204-4.83,12.894-8.645,25.376-8.645c0.604,0,1.149,0.012,1.672,0.03V357.155z M252.906,357.155h-84V293.7
				c0-0.02,0-0.04,0-0.061v-90.484h84V357.155z M326.156,357.156h-57.25v-56.474c0.546-0.016,1.099-0.026,1.66-0.026
				c12.484,0,18.175,3.815,25.381,8.646c7.94,5.322,16.939,11.354,34.289,11.354c17.351,0,26.35-6.032,34.289-11.354
				c5.695-3.818,10.457-6.993,18.362-8.16C382.49,332.094,357.201,357.156,326.156,357.156z M326.156,148.155
				c31.292,0.001,56.75,25.459,56.75,56.751v80.12c-12.91,1.371-20.496,6.431-27.289,10.985c-7.206,4.83-12.897,8.645-25.381,8.645
				s-18.175-3.815-25.381-8.645c-7.939-5.322-16.938-11.355-34.289-11.355c-0.559,0-1.109,0.013-1.66,0.026v-89.526
				c0-4.418-3.582-8-8-8h-100c-4.418,0-8,3.582-8,8v89.52c-0.535-0.013-1.09-0.02-1.672-0.02c-17.349,0-26.348,6.032-34.287,11.355
				c-7.204,4.83-12.894,8.645-25.376,8.645s-18.173-3.814-25.377-8.645c-6.792-4.554-14.378-9.615-27.288-10.986v-80.12
				c0-31.292,25.458-56.75,56.75-56.75h66.111c6.064,5.287,13.981,8.5,22.639,8.5c8.658,0,16.575-3.213,22.639-8.5h7.722
				c6.064,5.287,13.981,8.5,22.639,8.5c8.658,0,16.575-3.213,22.639-8.5H326.156z"/>
		</g>
	</g>
</g>
<g>
</g>
<g>
</g>
<g>
</g>
<g>
</g>
<g>
</g>
<g>
</g>
<g>
</g>
<g>
</g>
<g>
</g>
<g>
</g>
<g>
</g>
<g>
</g>
<g>
</g>
<g>
</g>
<g>
</g>
</svg>
