<?xml version="1.0" encoding="iso-8859-1"?>
<!-- Generator: Adobe Illustrator 19.0.0, SVG Export Plug-In . SVG Version: 6.00 Build 0)  -->
<svg version="1.1" id="Layer_1" xmlns="http://www.w3.org/2000/svg" xmlns:xlink="http://www.w3.org/1999/xlink" x="0px" y="0px"
	 viewBox="0 0 386 386" style="enable-background:new 0 0 386 386;" xml:space="preserve">
<g>
	<g>
		<path d="M385.96,199.833c-0.01-0.108-0.031-0.212-0.046-0.319c-0.021-0.152-0.04-0.305-0.07-0.455
			c-0.025-0.126-0.06-0.249-0.091-0.372c-0.032-0.129-0.061-0.259-0.099-0.387c-0.037-0.123-0.083-0.241-0.126-0.361
			c-0.045-0.127-0.087-0.254-0.139-0.378c-0.046-0.111-0.1-0.217-0.151-0.326c-0.06-0.129-0.118-0.258-0.185-0.384
			c-0.055-0.103-0.118-0.2-0.177-0.3c-0.074-0.124-0.144-0.249-0.225-0.37c-0.073-0.11-0.155-0.213-0.234-0.318
			c-0.077-0.104-0.149-0.209-0.232-0.31c-0.149-0.181-0.307-0.353-0.47-0.52c-0.02-0.021-0.037-0.043-0.058-0.064l-125.25-125.25
			c-2.288-2.288-5.729-2.971-8.719-1.734c-2.989,1.238-4.939,4.155-4.939,7.391v49.75c0,4.418,3.582,8,8,8c4.418,0,8-3.581,8-8
			V94.689l97.936,97.936H27.314l97.936-97.936v30.437c0,4.418,3.582,8,8,8c4.418,0,8-3.581,8-8v-49.75
			c0-3.236-1.949-6.153-4.938-7.391c-2.992-1.239-6.431-0.553-8.719,1.734L2.343,194.969c-0.02,0.02-0.037,0.043-0.058,0.064
			c-0.164,0.167-0.322,0.339-0.47,0.52c-0.083,0.101-0.155,0.206-0.232,0.31c-0.079,0.106-0.16,0.209-0.234,0.318
			c-0.081,0.121-0.151,0.246-0.225,0.37c-0.059,0.1-0.122,0.197-0.178,0.3c-0.067,0.126-0.125,0.255-0.185,0.384
			c-0.051,0.108-0.105,0.215-0.151,0.326c-0.052,0.125-0.094,0.252-0.139,0.378c-0.043,0.12-0.089,0.238-0.126,0.361
			c-0.039,0.128-0.067,0.258-0.099,0.387c-0.031,0.124-0.066,0.246-0.091,0.372c-0.03,0.151-0.048,0.303-0.07,0.455
			c-0.015,0.106-0.035,0.211-0.046,0.319C0.014,200.098,0,200.364,0,200.63v48.411c0,38.369,31.215,69.584,69.583,69.584h61.167
			c24.951,0,45.25-20.299,45.25-45.25v-19.75h34v19.75c0,24.951,20.299,45.25,45.25,45.25h61.167
			c38.368,0,69.583-31.215,69.583-69.584V200.63C386,200.364,385.986,200.098,385.96,199.833z M160,273.375
			c0,16.128-13.121,29.25-29.25,29.25H69.583C40.037,302.625,16,278.588,16,249.042v-12.417h144V273.375z M160,220.625H16v-12h144
			V220.625z M210,237.625h-34v-29h34V237.625z M370,249.042c0,29.546-24.037,53.583-53.583,53.583H255.25
			c-16.129,0-29.25-13.122-29.25-29.25v-36.75h144V249.042z M370,220.625H226v-12h144V220.625z"/>
	</g>
</g>
<g>
</g>
<g>
</g>
<g>
</g>
<g>
</g>
<g>
</g>
<g>
</g>
<g>
</g>
<g>
</g>
<g>
</g>
<g>
</g>
<g>
</g>
<g>
</g>
<g>
</g>
<g>
</g>
<g>
</g>
</svg>
