<?xml version="1.0" encoding="iso-8859-1"?>
<!-- Generator: Adobe Illustrator 19.0.0, SVG Export Plug-In . SVG Version: 6.00 Build 0)  -->
<svg version="1.1" id="Layer_1" xmlns="http://www.w3.org/2000/svg" xmlns:xlink="http://www.w3.org/1999/xlink" x="0px" y="0px"
	 viewBox="0 0 367.5 367.5" style="enable-background:new 0 0 367.5 367.5;" xml:space="preserve">
<g>
	<g>
		<g>
			<path d="M314.527,285c29.209,0,52.973-23.764,52.973-52.973V96.973C367.5,67.764,343.736,44,314.527,44H188V15.5
				c0-4.418-3.582-8-8-8h-71c-4.418,0-8,3.582-8,8V44H89.473C60.264,44,36.5,67.764,36.5,96.973V169.5H8c-4.418,0-8,3.582-8,8v63
				c0,4.418,3.582,8,8,8h31.136C46.08,269.667,66.014,285,89.473,285H154v19H55c-4.418,0-8,3.582-8,8v40c0,4.418,3.582,8,8,8h294
				c4.418,0,8-3.582,8-8v-40c0-4.418-3.582-8-8-8h-99v-19H314.527z M16,232.5v-47h20.5v46.527c0,0.159,0.01,0.314,0.012,0.473H16z
				 M154,344H63v-24h91V344z M117,23.5h55V44h-55V23.5z M117,60h55v14.5h-55V60z M52.5,232.027V185.5H68v47H52.512
				C52.51,232.342,52.5,232.186,52.5,232.027z M234,312v32h-24v-19.5c0-4.418-3.582-8-8-8c-4.418,0-8,3.582-8,8V344h-24v-32v-27h64
				V312z M341,320v24h-91v-24H341z M89.473,269.001C75.003,269,62.455,260.64,56.386,248.5H76c4.418,0,8-3.582,8-8v-63
				c0-4.418-3.582-8-8-8H52.5V96.973C52.5,76.586,69.086,60,89.473,60H101v22.5c0,4.418,3.582,8,8,8h71c4.418,0,8-3.582,8-8V60
				h126.527c20.387,0,36.973,16.586,36.973,36.973v135.055c0,20.387-16.586,36.973-36.973,36.973H89.473z"/>
			<path d="M317,114c0-14.061-11.44-25.5-25.5-25.5h-80c-14.061,0-25.5,11.439-25.5,25.5v75c0,14.061,11.439,25.5,25.5,25.5h80
				c14.06,0,25.5-11.439,25.5-25.5V114z M301,189c0,5.238-4.262,9.5-9.5,9.5h-80c-5.238,0-9.5-4.262-9.5-9.5v-75
				c0-5.238,4.262-9.5,9.5-9.5h80c5.238,0,9.5,4.262,9.5,9.5V189z"/>
			<path d="M251.5,120c-17.369,0-31.5,14.131-31.5,31.5s14.131,31.5,31.5,31.5s31.5-14.131,31.5-31.5S268.869,120,251.5,120z
				 M251.5,167c-8.547,0-15.5-6.953-15.5-15.5s6.953-15.5,15.5-15.5s15.5,6.953,15.5,15.5S260.047,167,251.5,167z"/>
			<path d="M157,167.5h-35c-4.418,0-8,3.582-8,8c0,4.418,3.582,8,8,8h35c4.418,0,8-3.582,8-8C165,171.082,161.418,167.5,157,167.5z"
				/>
			<path d="M157,136.5h-35c-4.418,0-8,3.582-8,8c0,4.418,3.582,8,8,8h35c4.418,0,8-3.582,8-8C165,140.082,161.418,136.5,157,136.5z"
				/>
		</g>
	</g>
</g>
<g>
</g>
<g>
</g>
<g>
</g>
<g>
</g>
<g>
</g>
<g>
</g>
<g>
</g>
<g>
</g>
<g>
</g>
<g>
</g>
<g>
</g>
<g>
</g>
<g>
</g>
<g>
</g>
<g>
</g>
</svg>
