<?xml version="1.0" encoding="iso-8859-1"?>
<!-- Generator: Adobe Illustrator 19.0.0, SVG Export Plug-In . SVG Version: 6.00 Build 0)  -->
<svg version="1.1" id="Layer_1" xmlns="http://www.w3.org/2000/svg" xmlns:xlink="http://www.w3.org/1999/xlink" x="0px" y="0px"
	 viewBox="0 0 448.133 448.133" style="enable-background:new 0 0 448.133 448.133;" xml:space="preserve">
<g>
	<g>
		<g>
			<path d="M224.068,187.109c-20.158,0-36.5,16.342-36.5,36.5c0,20.158,16.342,36.5,36.5,36.5s36.5-16.342,36.5-36.5
				S244.226,187.109,224.068,187.109z M224.068,243.609c-11.046,0-20-8.954-20-20c0-11.046,8.954-20,20-20s20,8.954,20,20
				C244.068,234.655,235.112,243.609,224.068,243.609z"/>
			<path d="M420.909,196.567h-26.026c-1.887-11.809-4.97-23.218-9.118-34.102l22.523-13.004c13.022-7.518,17.483-24.169,9.965-37.19
				l-0.275-0.476c-7.518-13.021-24.169-17.483-37.19-9.965l-22.556,13.023c-7.448-9.139-15.811-17.502-24.95-24.95l13.023-22.556
				c7.518-13.022,3.056-29.672-9.965-37.19l-0.476-0.275c-13.022-7.518-29.672-3.057-37.19,9.965L285.669,62.37
				c-10.884-4.149-22.292-7.232-34.102-9.118V27.225C251.568,12.189,239.378,0,224.342,0h-0.55
				c-15.036,0-27.225,12.189-27.225,27.225v26.026c-11.809,1.887-23.218,4.97-34.102,9.118l-13.004-22.523
				c-7.518-13.022-24.169-17.483-37.19-9.965l-0.476,0.275c-13.022,7.518-17.483,24.169-9.965,37.19l13.023,22.556
				c-9.139,7.448-17.502,15.811-24.95,24.95L67.347,101.83c-13.021-7.518-29.672-3.056-37.19,9.965l-0.275,0.476
				c-7.518,13.022-3.056,29.672,9.965,37.19l22.523,13.004c-4.149,10.884-7.232,22.292-9.118,34.102H27.225
				C12.19,196.567,0,208.756,0,223.792v0.55c0,15.036,12.189,27.225,27.225,27.225h26.026c1.887,11.809,4.97,23.218,9.118,34.102
				l-22.523,13.004c-13.021,7.518-17.483,24.169-9.965,37.19l0.275,0.476c7.518,13.021,24.169,17.483,37.19,9.965l22.556-13.023
				c7.449,9.139,15.811,17.502,24.95,24.95l-13.023,22.556c-7.518,13.022-3.056,29.672,9.965,37.19l0.476,0.275
				c13.021,7.518,29.672,3.057,37.19-9.965l13.004-22.523c10.884,4.149,22.292,7.232,34.102,9.118v26.026
				c0,15.036,12.189,27.225,27.225,27.225h0.55c15.036,0,27.225-12.189,27.225-27.225v-26.026
				c11.809-1.887,23.218-4.97,34.102-9.118l13.004,22.523c7.518,13.022,24.169,17.483,37.19,9.965l0.476-0.275
				c13.021-7.518,17.483-24.169,9.965-37.19l-13.023-22.556c9.139-7.449,17.502-15.811,24.95-24.95l22.556,13.023
				c13.022,7.518,29.672,3.056,37.19-9.965l0.275-0.476c7.518-13.022,3.057-29.672-9.965-37.19l-22.523-13.004
				c4.149-10.884,7.232-22.292,9.118-34.102h26.026c15.036,0,27.225-12.189,27.225-27.225v-0.55
				C448.135,208.756,435.945,196.567,420.909,196.567z M51.445,235.567h-24.22c-6.189,0-11.225-5.035-11.225-11.225v-0.55
				c0-6.189,5.036-11.226,11.225-11.226h24.22c-0.251,3.804-0.378,7.634-0.378,11.5C51.068,227.932,51.195,231.763,51.445,235.567z
				 M312.529,47.847c2-3.465,5.735-5.617,9.746-5.617c1.974,0,3.854,0.508,5.587,1.509l0.486,0.28
				c5.351,3.089,7.194,9.968,4.1,15.328L320.31,80.371c-6.351-4.268-12.993-8.123-19.9-11.532L312.529,47.847z M212.568,27.225
				c0-6.189,5.036-11.225,11.225-11.225h0.55c6.189,0,11.225,5.035,11.225,11.225v24.22c-3.804-0.251-7.634-0.378-11.5-0.378
				c-3.866,0-7.696,0.127-11.5,0.378V27.225z M119.797,44.013l0.46-0.266c1.75-1.01,3.629-1.518,5.603-1.518
				c4.012,0,7.746,2.152,9.747,5.617l12.12,20.991c-6.907,3.41-13.549,7.266-19.9,11.533l-12.138-21.024
				C112.592,53.987,114.435,47.108,119.797,44.013z M47.847,135.605c-2.597-1.499-4.454-3.92-5.23-6.815
				c-0.776-2.896-0.377-5.921,1.122-8.518l0.277-0.48c1.998-3.461,5.733-5.613,9.744-5.613c1.974,0,3.854,0.508,5.587,1.509
				l21.025,12.139c-4.267,6.351-8.123,12.992-11.533,19.899L47.847,135.605z M59.347,332.448c-1.732,1.001-3.612,1.508-5.586,1.508
				c-4.012,0-7.747-2.152-9.748-5.617l-0.279-0.483c-1.495-2.589-1.893-5.614-1.117-8.51s2.633-5.317,5.229-6.816l20.992-12.12
				c3.41,6.907,7.266,13.549,11.533,19.9L59.347,332.448z M135.605,400.286c-2,3.465-5.735,5.618-9.747,5.618
				c-1.974,0-3.854-0.508-5.587-1.509l-0.472-0.272c-5.365-3.098-7.208-9.977-4.113-15.337l12.138-21.024
				c6.351,4.268,12.994,8.123,19.9,11.533L135.605,400.286z M235.568,420.908c0,6.189-5.036,11.226-11.225,11.226h-0.55
				c-6.189,0-11.225-5.036-11.225-11.226v-24.22c3.804,0.251,7.634,0.378,11.5,0.378c3.866,0,7.696-0.127,11.5-0.378V420.908z
				 M328.339,404.12l-0.487,0.281c-1.723,0.995-3.603,1.503-5.576,1.503c-4.012,0-7.746-2.152-9.746-5.617l-12.121-20.993
				c6.907-3.409,13.549-7.265,19.9-11.532l12.139,21.024C335.542,394.147,333.7,401.026,328.339,404.12z M224.068,381.067
				c-86.709,0-157-70.291-157-157s70.291-157,157-157s157,70.291,157,157S310.776,381.067,224.068,381.067z M400.287,312.529
				c2.597,1.499,4.454,3.92,5.23,6.815c0.776,2.896,0.378,5.922-1.122,8.519l-0.271,0.468c-2.005,3.473-5.74,5.625-9.751,5.625
				c-1.974,0-3.854-0.507-5.587-1.508l-21.024-12.14c4.267-6.351,8.123-12.993,11.533-19.899L400.287,312.529z M379.296,147.725
				c-3.41-6.906-7.266-13.549-11.533-19.899l21.025-12.139c1.734-1.001,3.614-1.509,5.587-1.509c4.012,0,7.746,2.152,9.747,5.617
				l0.273,0.473c1.501,2.601,1.899,5.625,1.124,8.521c-0.776,2.896-2.633,5.316-5.229,6.815L379.296,147.725z M432.135,224.342
				c0,6.189-5.036,11.225-11.225,11.225h-24.22c0.251-3.804,0.378-7.634,0.378-11.5c0-3.866-0.127-7.696-0.378-11.5h24.22
				c6.189,0,11.225,5.036,11.225,11.226V224.342z"/>
			<path d="M224.068,82.609c-77.872,0-141,63.128-141,141s63.128,141,141,141s141-63.128,141-141S301.94,82.609,224.068,82.609z
				 M348.765,214.968h-51.72c-0.887-7.57-2.924-14.784-5.933-21.471l44.755-25.839C343.089,182.061,347.609,198.051,348.765,214.968
				z M327.799,153.841l-44.786,25.857c-4.434-5.943-9.754-11.18-15.751-15.544l25.842-44.759
				C306.804,128.49,318.612,140.208,327.799,153.841z M232.068,98.871c16.846,1.064,32.785,5.463,47.165,12.548l-25.855,44.783
				c-6.651-2.896-13.809-4.839-21.31-5.652V98.871z M216.068,98.871v51.679c-7.501,0.812-14.659,2.756-21.31,5.652l-25.855-44.783
				C183.284,104.334,199.221,99.936,216.068,98.871z M155.031,119.396l25.842,44.759c-5.997,4.364-11.317,9.602-15.751,15.544
				l-44.786-25.857C129.523,140.208,141.331,128.49,155.031,119.396z M112.268,167.658l44.755,25.839
				c-3.008,6.688-5.045,13.901-5.933,21.471H99.37C100.526,198.051,105.045,182.061,112.268,167.658z M99.289,230.968h51.646
				c0.761,7.653,2.702,14.957,5.628,21.736l-44.79,25.86C104.659,264.056,100.276,247.969,99.289,230.968z M119.724,292.448
				l44.752-25.837c4.438,6.139,9.789,11.571,15.873,16.08l-25.853,44.779C140.714,318.22,128.88,306.298,119.724,292.448z
				 M216.068,348.347c-17.071-1.079-33.21-5.582-47.74-12.833l25.844-44.763c6.815,3.04,14.173,5.081,21.896,5.917V348.347z
				 M166.568,223.609c0-31.756,25.744-57.5,57.5-57.5s57.5,25.744,57.5,57.5c0,31.757-25.744,57.5-57.5,57.5
				S166.568,255.365,166.568,223.609z M232.068,348.347v-51.679h-0.001c7.723-0.836,15.081-2.877,21.897-5.917l25.844,44.762
				C265.279,342.765,249.14,347.268,232.068,348.347z M293.638,327.47l-25.853-44.779c6.083-4.509,11.435-9.941,15.873-16.08
				l44.752,25.837C319.255,306.298,307.421,318.22,293.638,327.47z M291.571,252.704c2.926-6.779,4.867-14.083,5.628-21.736h51.646
				c-0.987,17.001-5.37,33.088-12.484,47.596L291.571,252.704z"/>
		</g>
	</g>
</g>
<g>
</g>
<g>
</g>
<g>
</g>
<g>
</g>
<g>
</g>
<g>
</g>
<g>
</g>
<g>
</g>
<g>
</g>
<g>
</g>
<g>
</g>
<g>
</g>
<g>
</g>
<g>
</g>
<g>
</g>
</svg>
