<?xml version="1.0" encoding="iso-8859-1"?>
<!-- Generator: Adobe Illustrator 19.0.0, SVG Export Plug-In . SVG Version: 6.00 Build 0)  -->
<svg version="1.1" id="Layer_1" xmlns="http://www.w3.org/2000/svg" xmlns:xlink="http://www.w3.org/1999/xlink" x="0px" y="0px"
	 viewBox="0 0 432 432" style="enable-background:new 0 0 432 432;" xml:space="preserve">
<g>
	<g>
		<g>
			<path d="M124.5,327h-8c-4.419,0-8,3.582-8,8c0,4.418,3.581,8,8,8h8c4.418,0,8-3.582,8-8C132.5,330.582,128.918,327,124.5,327z"/>
			<path d="M76.5,343h8c4.418,0,8-3.582,8-8c0-4.418-3.582-8-8-8h-8c-4.419,0-8,3.582-8,8C68.5,339.418,72.081,343,76.5,343z"/>
			<path d="M72.5,370c0-4.418-3.582-8-8-8h-8c-4.419,0-8,3.582-8,8c0,4.418,3.581,8,8,8h8C68.918,378,72.5,374.418,72.5,370z"/>
			<path d="M104.5,362h-8c-4.419,0-8,3.582-8,8c0,4.418,3.581,8,8,8h8c4.418,0,8-3.582,8-8C112.5,365.582,108.918,362,104.5,362z"/>
			<path d="M44.5,397h-8c-4.419,0-8,3.582-8,8c0,4.418,3.581,8,8,8h8c4.418,0,8-3.582,8-8C52.5,400.582,48.918,397,44.5,397z"/>
			<path d="M84.5,397h-8c-4.419,0-8,3.582-8,8c0,4.418,3.581,8,8,8h8c4.418,0,8-3.582,8-8C92.5,400.582,88.918,397,84.5,397z"/>
			<path d="M250.5,0c-85.794,0-153,65.009-153,148c0,42.713,17.964,97.419,49.287,150.089c0.018,0.03,0.041,0.057,0.06,0.087
				c0.027,0.044,0.048,0.09,0.076,0.133L200,381.338V424c0,4.418,3.581,8,8,8h85c4.418,0,8-3.582,8-8v-42.662l53.077-83.029
				c0.028-0.044,0.049-0.089,0.076-0.133c0.018-0.03,0.042-0.056,0.06-0.087C385.535,245.418,403.5,190.712,403.5,148
				C403.5,65.009,336.294,0,250.5,0z M336.5,148c0,39.008-10.442,89.028-28.743,138h-26.8c6.083-48.941,9.543-98.769,9.543-138
				c0-39.013-3.402-75.18-9.579-101.836c-2.412-10.41-5.135-19.018-8.187-25.875C309.845,34.973,336.5,85.826,336.5,148z
				 M250.472,16.001c0.005,0,0.009,0,0.014,0c1.61,0.262,8.868,7.011,15.224,35.426c5.668,25.343,8.79,59.64,8.79,96.574
				c0,39.129-3.508,89.058-9.666,138h-28.667C230.008,237.055,226.5,187.126,226.5,148c0-36.935,3.122-71.233,8.791-96.576
				C241.645,23.016,248.901,16.265,250.472,16.001z M228.266,20.289c-3.052,6.857-5.775,15.465-8.187,25.875
				C213.902,72.82,210.5,108.986,210.5,148c0,39.227,3.46,89.055,9.543,138h-26.8c-18.3-48.971-28.743-98.991-28.743-138
				C164.5,85.826,191.155,34.974,228.266,20.289z M113.499,148c0.001-52.149,29.874-96.335,74.391-117.895
				c-3.677,4.073-7.179,8.525-10.472,13.362C158.77,70.864,148.5,107.987,148.5,148c0,39.341,10.035,89.081,27.702,138H158.24
				C129.769,236.971,113.499,186.883,113.499,148z M285,416h-69v-29h11h47h11V416z M235,371v-13h31v13H235z M288.619,371H282v-21
				c0-4.418-3.582-8-8-8h-47c-4.419,0-8,3.582-8,8v21h-6.619l-44.109-69h19.451h41.406h42.742h41.406h19.451L288.619,371z
				 M342.76,286h-17.962c17.667-48.919,27.702-98.661,27.702-138c0-40.013-10.271-77.136-28.919-104.532
				c-3.293-4.837-6.794-9.29-10.472-13.363C357.627,51.664,387.5,95.851,387.5,148C387.5,186.882,371.23,236.97,342.76,286z"/>
		</g>
	</g>
</g>
<g>
</g>
<g>
</g>
<g>
</g>
<g>
</g>
<g>
</g>
<g>
</g>
<g>
</g>
<g>
</g>
<g>
</g>
<g>
</g>
<g>
</g>
<g>
</g>
<g>
</g>
<g>
</g>
<g>
</g>
</svg>
