<?xml version="1.0" encoding="iso-8859-1"?>
<!-- Generator: Adobe Illustrator 19.0.0, SVG Export Plug-In . SVG Version: 6.00 Build 0)  -->
<svg version="1.1" id="Layer_1" xmlns="http://www.w3.org/2000/svg" xmlns:xlink="http://www.w3.org/1999/xlink" x="0px" y="0px"
	 viewBox="0 0 429 429" style="enable-background:new 0 0 429 429;" xml:space="preserve">
<g>
	<g>
		<g>
			<circle cx="282.125" cy="38" r="8"/>
			<circle cx="186.125" cy="38" r="8"/>
			<circle cx="250.125" cy="38" r="8"/>
			<circle cx="218.125" cy="38" r="8"/>
			<circle cx="154.125" cy="38" r="8"/>
			<path d="M320.25,103v70c0,4.419,3.582,8,8,8h46.25c4.418,0,8-3.581,8-8v-70c0-4.419-3.582-8-8-8h-46.25
				C323.832,95,320.25,98.581,320.25,103z M336.25,111h30.25v54h-30.25V111z"/>
			<path d="M328.25,331h46.25c4.418,0,8-3.582,8-8v-70c0-4.419-3.582-8-8-8h-46.25c-4.418,0-8,3.581-8,8v70
				C320.25,327.418,323.832,331,328.25,331z M336.25,261h30.25v54h-30.25V261z"/>
			<path d="M283.25,95H237c-4.418,0-8,3.581-8,8v70c0,4.419,3.582,8,8,8h46.25c4.418,0,8-3.581,8-8v-70
				C291.25,98.581,287.668,95,283.25,95z M275.25,165H245v-54h30.25V165z"/>
			<path d="M414.5,33h-91.75V8c0-4.42-3.58-8-8-8H121.5c-4.42,0-8,3.58-8,8v25h-99c-4.42,0-8,3.58-8,8v380c0,4.42,3.58,8,8,8h400
				c4.42,0,8-3.58,8-8V41C422.5,36.58,418.92,33,414.5,33z M129.5,16h177.25v44H129.5V16z M129,413H22.5v-46H129V413z M206.5,413
				H145v-85.275c0-35.455,26.988-64.726,61.5-68.348V413z M284,413h-61.5V259.377C257.012,263,284,292.27,284,327.725V413z
				 M406.5,413H300v-46h106.5V413z M406.5,351H300v-23.275C300,281.007,261.992,243,215.275,243H214.5h-0.775
				C167.007,243,129,281.007,129,327.725V351H22.5V219h384V351z M406.5,203h-384V49h91v19c0,4.419,3.581,8,8,8h193.25
				c4.418,0,8-3.581,8-8V49h83.75V203z"/>
			<path d="M192,95h-46.25c-4.419,0-8,3.581-8,8v70c0,4.419,3.581,8,8,8H192c4.418,0,8-3.581,8-8v-70C200,98.581,196.418,95,192,95z
				 M184,165h-30.25v-54H184V165z"/>
			<path d="M54.5,331h46.25c4.418,0,8-3.582,8-8v-70c0-4.419-3.582-8-8-8H54.5c-4.419,0-8,3.581-8,8v70
				C46.5,327.418,50.081,331,54.5,331z M62.5,261h30.25v54H62.5V261z"/>
			<path d="M100.75,95H54.5c-4.419,0-8,3.581-8,8v70c0,4.419,3.581,8,8,8h46.25c4.418,0,8-3.581,8-8v-70
				C108.75,98.581,105.168,95,100.75,95z M92.75,165H62.5v-54h30.25V165z"/>
		</g>
	</g>
</g>
<g>
</g>
<g>
</g>
<g>
</g>
<g>
</g>
<g>
</g>
<g>
</g>
<g>
</g>
<g>
</g>
<g>
</g>
<g>
</g>
<g>
</g>
<g>
</g>
<g>
</g>
<g>
</g>
<g>
</g>
</svg>
