<?xml version="1.0" encoding="iso-8859-1"?>
<!-- Generator: Adobe Illustrator 19.0.0, SVG Export Plug-In . SVG Version: 6.00 Build 0)  -->
<svg version="1.1" id="Layer_1" xmlns="http://www.w3.org/2000/svg" xmlns:xlink="http://www.w3.org/1999/xlink" x="0px" y="0px"
	 viewBox="0 0 463.56 463.56" style="enable-background:new 0 0 463.56 463.56;" xml:space="preserve">
<g>
	<g>
		<g>
			<path d="M358.741,401.56h-6.64c-1.41-14.02-13.28-25-27.66-25h-49.4c-15.33,0-27.8,12.47-27.8,27.8v0.4
				c0,15.33,12.47,27.8,27.8,27.8h6.64c1.41,14.02,13.27,25,27.66,25h49.4c15.33,0,27.8-12.47,27.8-27.8v-0.4
				C386.541,414.03,374.071,401.56,358.741,401.56z M370.541,429.76c0,6.51-5.3,11.8-11.8,11.8h-49.4c-6.51,0-11.8-5.29-11.8-11.8
				v-0.4c0-0.92,0.12-1.86,0.37-2.86c0.6-2.39,0.06-4.92-1.46-6.87c-1.51-1.94-3.84-3.07-6.3-3.07h-15.11
				c-6.51,0-11.8-5.29-11.8-11.8v-0.4c0-6.51,5.29-11.8,11.8-11.8h49.4c6.51,0,11.8,5.29,11.8,11.8v0.4c0,0.92-0.12,1.86-0.38,2.86
				c-0.59,2.39-0.05,4.92,1.46,6.87c1.52,1.94,3.84,3.07,6.31,3.07h15.11c6.5,0,11.8,5.29,11.8,11.8V429.76z"/>
			<path d="M316.891,254.77c-2.52,0-4.89,1.19-6.4,3.2c-5.3,7.06-22.6,31.14-22.6,44.38c0,15.99,13.01,29,29,29s29-13.01,29-29
				c0-13.24-17.3-37.32-22.6-44.38C321.781,255.96,319.401,254.77,316.891,254.77z M316.891,315.35c-7.17,0-13-5.83-13-13
				c0-4.11,5.97-15.14,13-25.71c7.03,10.57,13,21.6,13,25.71C329.891,309.52,324.061,315.35,316.891,315.35z"/>
			<path d="M334.889,146.56c0-28.07-14.74-52.68-36.9-66.56c0.01-0.5,0.03-1,0.03-1.5c0-43.35-35.15-78.5-78.5-78.5
				c-32.5,0-60.37,19.75-72.3,47.9c-39.45,4.15-70.2,37.51-70.2,78.06c0,27.89,14.55,52.36,36.46,66.28l92.47,271.32l83.83-245.95
				C316.429,205.06,334.889,177.97,334.889,146.56z M318.889,146.56c0,34.52-27.98,62.5-62.5,62.5c-34.52,0-62.5-27.98-62.5-62.5
				s27.98-62.5,62.5-62.5C290.909,84.06,318.889,112.04,318.889,146.56z M219.519,16c32.41,0,59.05,24.67,62.19,56.26
				c-7.95-2.71-16.46-4.2-25.32-4.2c-14.03,0-27.18,3.7-38.58,10.14c-12.55-16.34-31.37-27.59-52.87-30.16
				C175.629,28.92,196.059,16,219.519,16z M93.019,125.96c0-34.51,27.98-62.5,62.5-62.5c19.99,0,37.79,9.39,49.23,24
				c-16.45,14.39-26.86,35.52-26.86,59.1c0,12.24,2.8,23.82,7.8,34.14c-8.95,4.94-19.23,7.76-30.17,7.76
				C120.999,188.46,93.019,160.48,93.019,125.96z M133.469,201.3c7,2.04,14.39,3.16,22.05,3.16c14.03,0,27.19-3.69,38.59-10.14
				c4.72,6.14,10.33,11.56,16.62,16.08l-55.3,55.31L133.469,201.3z M205.959,413.96l-26.67-78.24l80.91-80.91L205.959,413.96z
				 M173.539,318.85l-12.36-36.26l63.99-63.99c9.56,4.16,20.12,6.46,31.22,6.46c4.04,0,7.99-0.33,11.86-0.93L173.539,318.85z"/>
			<path d="M244.499,178.823c0,4.42,3.58,8,8,8c6.28,0,12.36-1.32,18.05-3.91c15.46-7.06,25.45-22.6,25.45-39.59c0-4.42-3.58-8-8-8
				c-4.42,0-8,3.58-8,8c0,10.75-6.32,20.57-16.09,25.03c-3.59,1.64-7.43,2.47-11.41,2.47
				C248.079,170.823,244.499,174.403,244.499,178.823z"/>
		</g>
	</g>
</g>
<g>
</g>
<g>
</g>
<g>
</g>
<g>
</g>
<g>
</g>
<g>
</g>
<g>
</g>
<g>
</g>
<g>
</g>
<g>
</g>
<g>
</g>
<g>
</g>
<g>
</g>
<g>
</g>
<g>
</g>
</svg>
