<?xml version="1.0" encoding="iso-8859-1"?>
<!-- Generator: Adobe Illustrator 19.0.0, SVG Export Plug-In . SVG Version: 6.00 Build 0)  -->
<svg version="1.1" id="Layer_1" xmlns="http://www.w3.org/2000/svg" xmlns:xlink="http://www.w3.org/1999/xlink" x="0px" y="0px"
	 viewBox="0 0 444.464 444.464" style="enable-background:new 0 0 444.464 444.464;" xml:space="preserve">
<g>
	<g>
		<g>
			<path d="M150.609,160.547c0.115-1.26,0.173-2.514,0.173-3.727c0-22.056-17.944-40-40-40c-4.653,0-9.229,0.802-13.542,2.351
				C89.153,107.206,75.581,99.82,60.782,99.82c-24.262,0-44,19.738-44,44c0,6.867,1.544,13.45,4.588,19.565
				c1.353,2.717,4.126,4.435,7.162,4.435h114.11C146.779,167.82,150.233,164.667,150.609,160.547z M33.939,151.821L33.939,151.821
				c-0.769-2.574-1.157-5.251-1.157-8.001c0-15.439,12.561-28,28-28c11.213,0,21.32,6.664,25.75,16.978
				c0.921,2.145,2.733,3.78,4.961,4.478c2.228,0.699,4.649,0.387,6.628-0.85c3.776-2.358,8.154-3.605,12.662-3.605
				c11.52,0,21.17,8.158,23.476,19H33.939z"/>
			<path d="M114.432,68h114.11c4.137,0,7.591-3.153,7.967-7.273c0.115-1.26,0.173-2.514,0.173-3.727c0-22.056-17.944-40-40-40
				c-4.653,0-9.23,0.802-13.542,2.351C175.053,7.386,161.482,0,146.682,0c-24.262,0-44,19.738-44,44
				c0,6.868,1.544,13.451,4.589,19.566C108.623,66.283,111.397,68,114.432,68z M146.682,16c11.213,0,21.32,6.664,25.749,16.978
				c0.921,2.145,2.733,3.78,4.96,4.478c2.227,0.698,4.649,0.388,6.628-0.85c3.776-2.358,8.154-3.605,12.662-3.605
				c11.52,0,21.17,8.158,23.476,19H119.839c-0.769-2.573-1.157-5.249-1.157-8C118.682,28.56,131.242,16,146.682,16z"/>
			<path d="M387.682,271c-4.653,0-9.229,0.802-13.542,2.351C366.053,261.386,352.482,254,337.682,254c-24.262,0-44,19.738-44,44
				c0,6.868,1.544,13.451,4.589,19.566c1.353,2.717,4.126,4.434,7.161,4.434h114.11c4.137,0,7.591-3.153,7.967-7.273
				c0.115-1.26,0.173-2.514,0.173-3.727C427.682,288.944,409.738,271,387.682,271z M310.839,306.001L310.839,306.001
				c-0.769-2.574-1.157-5.25-1.157-8.001c0-15.44,12.56-28,28-28c11.213,0,21.32,6.664,25.749,16.978
				c0.921,2.145,2.733,3.78,4.961,4.478c2.227,0.698,4.648,0.388,6.628-0.85c3.776-2.358,8.154-3.605,12.662-3.605
				c11.52,0,21.17,8.158,23.476,19H310.839z"/>
			<path d="M405.936,181.388V45.67c0-4.418-3.582-8-8-8H262.219c-3.721,0-6.95,2.565-7.792,6.189L213.35,220.653
				c-0.008,0.033-0.009,0.066-0.016,0.1c-0.065,0.294-0.117,0.592-0.148,0.894c-0.001,0.008-0.003,0.015-0.003,0.023
				c-0.026,0.263-0.04,0.528-0.04,0.794v41.755c0,9.509-7.736,17.245-17.245,17.245h-35.51c-18.332,0-33.245,14.914-33.245,33.245
				v0.51c0,18.331,14.914,33.245,33.245,33.245h29.51c9.509,0,17.245,7.736,17.245,17.245v3.51c0,9.509-7.736,17.245-17.245,17.245
				h-44.51c-18.332,0-33.245,14.914-33.245,33.245v16.755c0,4.418,3.582,8,8,8c4.418,0,8-3.582,8-8v-16.755
				c0-9.509,7.736-17.245,17.245-17.245h44.51c18.331,0,33.245-14.914,33.245-33.245v-3.51c0-18.331-14.914-33.245-33.245-33.245
				h-29.51c-9.509,0-17.245-7.736-17.245-17.245v-0.51c0-9.509,7.736-17.245,17.245-17.245h35.51
				c18.331,0,33.245-14.914,33.245-33.245v-35.401l170.604-39.638C403.371,188.338,405.936,185.109,405.936,181.388z M378.623,53.67
				l-48.545,48.545L281.533,53.67H378.623z M266.75,61.516l52.013,52.013l-83.499,83.498L266.75,61.516z M246.579,208.34
				l83.498-83.498l52.014,52.014L246.579,208.34z M389.936,162.074l-48.545-48.545l48.545-48.544V162.074z"/>
		</g>
	</g>
</g>
<g>
</g>
<g>
</g>
<g>
</g>
<g>
</g>
<g>
</g>
<g>
</g>
<g>
</g>
<g>
</g>
<g>
</g>
<g>
</g>
<g>
</g>
<g>
</g>
<g>
</g>
<g>
</g>
<g>
</g>
</svg>
