<?xml version="1.0" encoding="iso-8859-1"?>
<!-- Generator: Adobe Illustrator 19.0.0, SVG Export Plug-In . SVG Version: 6.00 Build 0)  -->
<svg version="1.1" id="Layer_1" xmlns="http://www.w3.org/2000/svg" xmlns:xlink="http://www.w3.org/1999/xlink" x="0px" y="0px"
	 viewBox="0 0 502.001 502.001" style="enable-background:new 0 0 502.001 502.001;" xml:space="preserve">
<g>
	<g>
		<g>
			<path d="M492,343.978h-8.87V87.638c0-5.522-4.478-10-10-10H28.87c-5.523,0-10,4.478-10,10v256.34H10c-5.523,0-10,4.478-10,10
				v24.073c0,25.536,20.775,46.312,46.312,46.312h409.377c25.536,0,46.312-20.775,46.312-46.312v-24.073
				C502,348.455,497.522,343.978,492,343.978z M38.87,97.638h424.26v246.34H38.87V97.638z M482,378.051
				c0,14.508-11.804,26.312-26.312,26.312H46.312C31.803,404.362,20,392.559,20,378.051v-14.073h8.87h444.26H482V378.051z"/>
			<path d="M256.392,117.535H70.924c-5.523,0-10,4.478-10,10c0,5.522,4.477,10,10,10h185.468c5.522,0,10-4.478,10-10
				C266.392,122.013,261.914,117.535,256.392,117.535z"/>
			<path d="M324.324,117.535H301.68c-5.522,0-10,4.478-10,10c0,5.522,4.478,10,10,10h22.645c5.522,0,10-4.478,10-10
				C334.325,122.013,329.847,117.535,324.324,117.535z"/>
			<path d="M441.859,375.248h-22.645c-5.522,0-10,4.478-10,10c0,5.522,4.478,10,10,10h22.645c5.522,0,10-4.478,10-10
				C451.859,379.726,447.382,375.248,441.859,375.248z"/>
		</g>
	</g>
</g>
<g>
</g>
<g>
</g>
<g>
</g>
<g>
</g>
<g>
</g>
<g>
</g>
<g>
</g>
<g>
</g>
<g>
</g>
<g>
</g>
<g>
</g>
<g>
</g>
<g>
</g>
<g>
</g>
<g>
</g>
</svg>
