<?xml version="1.0" encoding="iso-8859-1"?>
<!-- Generator: Adobe Illustrator 19.0.0, SVG Export Plug-In . SVG Version: 6.00 Build 0)  -->
<svg version="1.1" id="Layer_1" xmlns="http://www.w3.org/2000/svg" xmlns:xlink="http://www.w3.org/1999/xlink" x="0px" y="0px"
	 viewBox="0 0 446 446" style="enable-background:new 0 0 446 446;" xml:space="preserve">
<g>
	<g>
		<path d="M422.85,189.64c-0.76-15.72-2.38-32.06-5.82-48.05c-6.7-31.19-19.16-55.56-38.11-74.5
			c-18.94-18.95-43.31-31.41-74.5-38.12c-16-3.43-32.33-5.05-48.05-5.81C251.44,9.66,238.47,0,223.29,0h-0.57
			c-15.18,0-28.15,9.66-33.08,23.16c-15.72,0.76-32.05,2.38-48.05,5.81c-31.19,6.71-55.56,19.17-74.5,38.12
			c-18.95,18.94-31.41,43.31-38.11,74.5c-3.44,15.99-5.06,32.33-5.82,48.05C9.66,194.57,0,207.55,0,222.73v0.55
			c0,15.18,9.66,28.15,23.15,33.09c0.76,15.72,2.39,32.05,5.83,48.05c6.7,31.19,19.16,55.56,38.11,74.5
			c18.94,18.95,43.31,31.41,74.5,38.11c15.99,3.44,32.33,5.06,48.05,5.82c4.93,13.5,17.9,23.15,33.08,23.15h0.57
			c15.18,0,28.15-9.65,33.08-23.15c15.72-0.76,32.05-2.38,48.05-5.82c31.19-6.7,55.56-19.16,74.5-38.11
			c18.95-18.94,31.41-43.31,38.11-74.5c3.44-16,5.06-32.33,5.82-48.05c13.5-4.94,23.15-17.91,23.15-33.1v-0.55
			C446,207.54,436.35,194.58,422.85,189.64z M258.5,39.31C299.54,41.56,339,49.8,367.61,78.4c28.6,28.61,36.84,68.07,39.09,109.1
			h-11.79c-6.88-33.6-23.32-64.11-47.8-88.6c-24.49-24.48-55.01-40.92-88.61-47.8V39.31z M137.88,230.87
			c1.62,17.68,8.64,33.82,19.39,46.74l-52.55,52.55c-20.06-22.15-33.96-50.01-39.07-80.96c-1-6.03-1.64-12.17-1.95-18.33H137.88z
			 M63.7,215.14c0.31-6.16,0.95-12.3,1.95-18.33c5.11-30.96,19.01-58.81,39.07-80.97l52.55,52.55
			c-10.75,12.93-17.77,29.07-19.39,46.75H63.7z M153.5,223c0-38.32,31.18-69.5,69.5-69.5c38.33,0,69.5,31.18,69.5,69.5
			c0,38.33-31.17,69.5-69.5,69.5C184.68,292.5,153.5,261.33,153.5,223z M308.13,230.87h74.17c-0.3,6.16-0.94,12.3-1.94,18.33
			c-5.11,30.95-19.01,58.81-39.07,80.96l-52.55-52.55C299.49,264.69,306.51,248.55,308.13,230.87z M308.13,215.14
			c-1.62-17.68-8.64-33.82-19.39-46.75l52.55-52.55c20.06,22.16,33.96,50.01,39.07,80.97c1,6.03,1.64,12.17,1.94,18.33H308.13z
			 M249.2,65.65c30.96,5.1,58.81,19.01,80.96,39.07l-52.55,52.55c-12.92-10.76-29.06-17.77-46.74-19.39V63.7
			C237.03,64,243.17,64.65,249.2,65.65z M203.5,35.22c0-10.59,8.63-19.22,19.22-19.22h0.57c10.59,0,19.21,8.63,19.21,19.22v13.36
			h-0.1c-12.84-1.41-25.95-1.41-38.8,0h-0.1V35.22z M196.81,65.65c6.03-1,12.17-1.65,18.33-1.95v74.18
			c-17.68,1.62-33.82,8.63-46.75,19.39l-52.54-52.55C138,84.66,165.86,70.75,196.81,65.65z M78.4,78.4
			c28.61-28.6,68.07-36.84,109.1-39.09V51.1c-33.6,6.88-64.11,23.32-88.6,47.8c-24.48,24.49-40.92,55-47.8,88.6H39.3
			C41.56,146.47,49.8,107.01,78.4,78.4z M16,223.28v-0.55c0-10.6,8.63-19.23,19.22-19.23h13.36v0.08
			c-0.71,6.44-1.08,12.94-1.08,19.42c0,6.49,0.37,12.99,1.08,19.42v0.08H35.23C24.63,242.5,16,233.88,16,223.28z M187.5,406.7
			c-41.03-2.25-80.49-10.49-109.1-39.09C49.8,339,41.56,299.54,39.31,258.5H51.1c6.88,33.6,23.32,64.12,47.8,88.6
			c24.49,24.49,55.01,40.93,88.6,47.81V406.7z M196.81,380.36c-30.96-5.11-58.81-19.01-80.97-39.08l52.55-52.55
			c12.93,10.76,29.07,17.78,46.75,19.4v74.17C208.98,382,202.84,381.36,196.81,380.36z M242.5,410.78c0,10.6-8.62,19.22-19.21,19.22
			h-0.57c-10.59,0-19.22-8.62-19.22-19.22v-13.35h0.08c6.44,0.71,12.94,1.07,19.42,1.07c6.49,0,12.99-0.36,19.43-1.07h0.07V410.78z
			 M249.2,380.36c-6.04,1-12.17,1.64-18.33,1.94v-74.17c17.68-1.62,33.82-8.64,46.74-19.4l52.55,52.55
			C308.01,361.35,280.15,375.25,249.2,380.36z M367.61,367.61c-28.61,28.6-68.07,36.84-109.11,39.09v-11.79
			c33.6-6.88,64.12-23.32,88.61-47.81c24.48-24.48,40.92-55,47.8-88.6h11.79C404.45,299.54,396.21,339,367.61,367.61z M430,223.27
			L430,223.27c0,10.61-8.62,19.23-19.21,19.23h-13.36v-0.08c0.71-6.43,1.07-12.93,1.07-19.42c0-6.48-0.36-12.98-1.07-19.42v-0.08
			h13.34c10.61,0,19.23,8.63,19.23,19.22V223.27z"/>
	</g>
</g>
<g>
</g>
<g>
</g>
<g>
</g>
<g>
</g>
<g>
</g>
<g>
</g>
<g>
</g>
<g>
</g>
<g>
</g>
<g>
</g>
<g>
</g>
<g>
</g>
<g>
</g>
<g>
</g>
<g>
</g>
</svg>
