<?xml version="1.0" encoding="iso-8859-1"?>
<!-- Generator: Adobe Illustrator 19.0.0, SVG Export Plug-In . SVG Version: 6.00 Build 0)  -->
<svg version="1.1" id="Layer_1" xmlns="http://www.w3.org/2000/svg" xmlns:xlink="http://www.w3.org/1999/xlink" x="0px" y="0px"
	 viewBox="0 0 453.696 453.696" style="enable-background:new 0 0 453.696 453.696;" xml:space="preserve">
<g>
	<g>
		<g>
			<path d="M451.935,290.841l-89-110.908c-1.519-1.893-3.813-2.993-6.239-2.993c-0.001,0-0.002,0-0.003,0
				c-2.427,0.001-4.723,1.104-6.24,2.997l-39.747,49.601L233.52,95.848c-1.429-2.476-4.07-4-6.928-4c-2.858,0-5.499,1.524-6.928,4
				l-75.951,131.55l-40.1-68.987c-1.432-2.464-4.067-3.98-6.917-3.98c-0.004,0-0.008,0-0.012,0c-2.854,0.004-5.49,1.528-6.917,4
				L1.073,312.056c-2.209,3.826-0.898,8.719,2.928,10.928c1.26,0.728,2.635,1.073,3.993,1.073c2.765,0,5.454-1.435,6.936-4.001
				l45.164-78.226l20.553,26.877c1.422,1.859,3.587,3.003,5.925,3.129c0.144,0.008,0.288,0.012,0.431,0.012
				c2.185,0,4.282-0.895,5.796-2.486l35.256-37.064l6.437,11.074L48.768,391.848c-2.209,3.826-0.898,8.719,2.928,10.928
				c3.825,2.208,8.718,0.897,10.928-2.928L182.39,192.406l23.092,28.48c1.524,1.881,3.811,2.962,6.213,2.962
				c0.177,0,0.354-0.006,0.532-0.018c2.593-0.173,4.941-1.594,6.296-3.811l18.346-30.021l9.827,4.347v26.248
				c0,8.963-7.292,16.255-16.255,16.255h-24.49c-17.786,0-32.255,14.47-32.255,32.255v0.49c0,17.785,14.469,32.255,32.255,32.255
				h66.49c8.963,0,16.255,7.292,16.255,16.255v14.49c0,8.963-7.292,16.255-16.255,16.255h-114.49
				c-17.786,0-32.255,14.47-32.255,32.255v4.49c0,17.785,14.469,32.255,32.255,32.255h162.745c4.418,0,8-3.582,8-8
				c0-4.418-3.582-8-8-8H157.951c-8.963,0-16.255-7.292-16.255-16.255v-4.49c0-8.963,7.292-16.255,16.255-16.255h114.49
				c17.785,0,32.255-14.47,32.255-32.255v-14.49c0-17.785-14.47-32.255-32.255-32.255h-66.49c-8.963,0-16.255-7.292-16.255-16.255
				v-0.49c0-8.963,7.292-16.255,16.255-16.255h24.49c17.785,0,32.255-14.47,32.255-32.255v-19.171l17.865,7.902L390.56,399.848
				c1.481,2.566,4.17,4.002,6.936,4.001c1.356,0,2.732-0.346,3.992-1.073c3.826-2.209,5.138-7.102,2.928-10.928L319.292,244.41
				l7.988-9.968l30.064,30.064c1.562,1.561,3.608,2.343,5.657,2.343c2.002,0,4.006-0.747,5.557-2.245l23.556-22.744l47.342,58.996
				c1.58,1.97,3.901,2.993,6.244,2.993c1.757,0,3.525-0.575,5.002-1.761C454.149,299.323,454.7,294.288,451.935,290.841z
				 M87.663,251.544l-18.905-24.723l27.961-48.431l22.959,39.497L87.663,251.544z M236.932,172.532
				c-3.668-1.62-7.971-0.277-10.063,3.145l-16.093,26.335l-19.819-24.443l35.634-61.72l40.404,69.981L236.932,172.532z
				 M363.1,247.632l-25.753-25.753l19.353-24.151l25.358,31.6L363.1,247.632z"/>
			<path d="M319.751,118.848h114.11c4.139,0,7.594-3.156,7.968-7.277c0.114-1.261,0.172-2.514,0.172-3.723c0-22.056-17.944-40-40-40
				c-4.652,0-9.229,0.802-13.542,2.352c-8.087-11.966-21.658-19.352-36.458-19.352c-24.262,0-44,19.738-44,44
				c0,6.868,1.544,13.451,4.589,19.566C313.943,117.131,316.716,118.848,319.751,118.848z M352.001,66.848
				c11.213,0,21.32,6.664,25.749,16.978c0.921,2.145,2.732,3.78,4.96,4.478c2.228,0.695,4.648,0.388,6.629-0.85
				c3.776-2.358,8.155-3.605,12.662-3.605c11.52,0,21.17,8.158,23.477,19h-100.32c-0.77-2.573-1.157-5.249-1.157-8
				C324.001,79.408,336.562,66.848,352.001,66.848z"/>
			<path d="M52.751,103.848h114.11c4.137,0,7.591-3.153,7.967-7.273c0.115-1.26,0.173-2.514,0.173-3.727c0-22.056-17.944-40-40-40
				c-4.653,0-9.23,0.802-13.542,2.351C113.372,43.234,99.8,35.848,85.001,35.848c-24.262,0-44,19.738-44,44
				c0,6.867,1.544,13.45,4.588,19.565C46.943,102.13,49.716,103.848,52.751,103.848z M85.001,51.848
				c11.213,0,21.32,6.664,25.749,16.977c0.921,2.145,2.733,3.78,4.96,4.478c2.229,0.698,4.649,0.388,6.628-0.85
				c3.776-2.358,8.154-3.605,12.662-3.605c11.52,0,21.17,8.158,23.476,19H58.158c-0.769-2.573-1.157-5.25-1.157-8
				C57.001,64.408,69.562,51.848,85.001,51.848z"/>
		</g>
	</g>
</g>
<g>
</g>
<g>
</g>
<g>
</g>
<g>
</g>
<g>
</g>
<g>
</g>
<g>
</g>
<g>
</g>
<g>
</g>
<g>
</g>
<g>
</g>
<g>
</g>
<g>
</g>
<g>
</g>
<g>
</g>
</svg>
