<?xml version="1.0" encoding="iso-8859-1"?>
<!-- Generator: Adobe Illustrator 19.0.0, SVG Export Plug-In . SVG Version: 6.00 Build 0)  -->
<svg version="1.1" id="Layer_1" xmlns="http://www.w3.org/2000/svg" xmlns:xlink="http://www.w3.org/1999/xlink" x="0px" y="0px"
	 viewBox="0 0 502 502" style="enable-background:new 0 0 502 502;" xml:space="preserve">
<g>
	<g>
		<g>
			<path d="M492,334.5h-81.137c-4.19-12.48-15.99-21.5-29.863-21.5c-13.873,0-25.673,9.02-29.863,21.5H150.863
				c-3.135-9.336-10.527-16.729-19.863-19.863V274h58.363c5.522,0,10-4.478,10-10v-93.091V136c0-5.522-4.478-10-10-10h-42.182
				c-3.243,0-6.285,1.573-8.16,4.22l-21.739,30.689H52.637c-5.522,0-10,4.478-10,10V264c0,5.522,4.478,10,10,10H111v40.637
				c-9.336,3.135-16.729,10.527-19.863,19.863H65c-5.522,0-10,4.478-10,10c0,5.522,4.478,10,10,10h26.137
				c4.19,12.48,15.99,21.5,29.863,21.5s25.673-9.02,29.863-21.5h200.273c4.19,12.48,15.99,21.5,29.863,21.5
				c13.873,0,25.673-9.02,29.863-21.5H492c5.522,0,10-4.478,10-10C502,338.978,497.522,334.5,492,334.5z M152.353,146h27.011v14.909
				h-37.571L152.353,146z M62.637,254v-73.091h59.817h56.909V254H62.637z M121,356c-6.341,0-11.5-5.159-11.5-11.5
				S114.659,333,121,333s11.5,5.159,11.5,11.5S127.341,356,121,356z M381,356c-6.341,0-11.5-5.159-11.5-11.5S374.659,333,381,333
				s11.5,5.159,11.5,11.5S387.341,356,381,356z"/>
			<path d="M27,334.5H10c-5.522,0-10,4.478-10,10c0,5.522,4.478,10,10,10h17c5.522,0,10-4.478,10-10
				C37,338.978,32.522,334.5,27,334.5z"/>
			<path d="M313,274h58v19c0,5.522,4.478,10,10,10c5.522,0,10-4.478,10-10v-19h58.728c5.522,0,10-4.478,10-10v-93.091V136
				c0-5.522-4.478-10-10-10h-42.182c-3.243,0-6.285,1.573-8.16,4.22l-21.739,30.689H313c-5.522,0-10,4.478-10,10V264
				C303,269.522,307.478,274,313,274z M412.717,146h27.011v14.909h-37.571L412.717,146z M323,180.909h59.818h56.909V254H323V180.909
				z"/>
		</g>
	</g>
</g>
<g>
</g>
<g>
</g>
<g>
</g>
<g>
</g>
<g>
</g>
<g>
</g>
<g>
</g>
<g>
</g>
<g>
</g>
<g>
</g>
<g>
</g>
<g>
</g>
<g>
</g>
<g>
</g>
<g>
</g>
</svg>
