<?xml version="1.0" encoding="iso-8859-1"?>
<!-- Generator: Adobe Illustrator 19.0.0, SVG Export Plug-In . SVG Version: 6.00 Build 0)  -->
<svg version="1.1" id="Layer_1" xmlns="http://www.w3.org/2000/svg" xmlns:xlink="http://www.w3.org/1999/xlink" x="0px" y="0px"
	 viewBox="0 0 385 385" style="enable-background:new 0 0 385 385;" xml:space="preserve">
<g>
	<g>
		<g>
			<path d="M343.072,0H76.783c-4.418,0-8,3.582-8,8v31.5H41.928c-4.419,0-8,3.582-8,8v35c0,4.419,3.581,8,8,8h26.855v34H41.928
				c-4.419,0-8,3.582-8,8v35c0,4.419,3.581,8,8,8h26.855v34H41.928c-4.419,0-8,3.582-8,8v35c0,4.419,3.581,8,8,8h26.855v34H41.928
				c-4.419,0-8,3.582-8,8v35c0,4.419,3.581,8,8,8h26.855V377c0,4.419,3.582,8,8,8h266.289c4.418,0,8-3.581,8-8V8
				C351.072,3.582,347.49,0,343.072,0z M49.928,74.5v-19h53v19H49.928z M49.928,159.5v-19h53v19H49.928z M49.928,244.5v-19h53v19
				H49.928z M49.928,329.5v-19h53v19H49.928z M84.783,369v-23.5h26.145c4.418,0,8-3.581,8-8v-35c0-4.418-3.582-8-8-8H84.783v-34
				h26.145c4.418,0,8-3.581,8-8v-35c0-4.418-3.582-8-8-8H84.783v-34h26.145c4.418,0,8-3.581,8-8v-35c0-4.418-3.582-8-8-8H84.783v-34
				h26.145c4.418,0,8-3.581,8-8v-35c0-4.418-3.582-8-8-8H84.783V16h250.288v353H84.783z"/>
			<path d="M163.428,71h116c4.418,0,8-3.581,8-8c0-4.418-3.582-8-8-8h-116c-4.419,0-8,3.582-8,8
				C155.428,67.419,159.009,71,163.428,71z"/>
			<path d="M279.928,122c0-4.418-3.582-8-8-8h-18c-4.419,0-8,3.582-8,8c0,4.419,3.581,8,8,8h18
				C276.346,130,279.928,126.419,279.928,122z"/>
			<path d="M194.928,130h24c4.418,0,8-3.581,8-8c0-4.418-3.582-8-8-8h-24c-4.419,0-8,3.582-8,8
				C186.928,126.419,190.509,130,194.928,130z"/>
			<path d="M144.928,130h18c4.419,0,8-3.581,8-8c0-4.418-3.581-8-8-8h-18c-4.419,0-8,3.582-8,8
				C136.928,126.419,140.509,130,144.928,130z"/>
			<path d="M297.928,154h-17c-4.419,0-8,3.582-8,8c0,4.419,3.581,8,8,8h17c4.418,0,8-3.581,8-8
				C305.928,157.582,302.346,154,297.928,154z"/>
			<path d="M144.928,170h18c4.419,0,8-3.581,8-8c0-4.418-3.581-8-8-8h-18c-4.419,0-8,3.582-8,8
				C136.928,166.419,140.509,170,144.928,170z"/>
			<path d="M179.928,162c0,4.419,3.581,8,8,8h58c4.418,0,8-3.581,8-8c0-4.418-3.582-8-8-8h-58
				C183.509,154,179.928,157.582,179.928,162z"/>
			<path d="M297.928,194h-11c-4.419,0-8,3.582-8,8c0,4.419,3.581,8,8,8h11c4.418,0,8-3.581,8-8
				C305.928,197.582,302.346,194,297.928,194z"/>
			<path d="M144.928,210h51c4.419,0,8-3.581,8-8c0-4.418-3.581-8-8-8h-51c-4.419,0-8,3.582-8,8
				C136.928,206.419,140.509,210,144.928,210z"/>
			<path d="M259.928,202c0-4.418-3.582-8-8-8h-24c-4.419,0-8,3.582-8,8c0,4.419,3.581,8,8,8h24
				C256.347,210,259.928,206.419,259.928,202z"/>
			<path d="M144.928,250h18c4.419,0,8-3.581,8-8c0-4.418-3.581-8-8-8h-18c-4.419,0-8,3.582-8,8
				C136.928,246.419,140.509,250,144.928,250z"/>
			<path d="M279.928,242c0-4.418-3.582-8-8-8h-18c-4.419,0-8,3.582-8,8c0,4.419,3.581,8,8,8h18
				C276.346,250,279.928,246.419,279.928,242z"/>
			<path d="M194.928,250h24c4.418,0,8-3.581,8-8c0-4.418-3.582-8-8-8h-24c-4.419,0-8,3.582-8,8
				C186.928,246.419,190.509,250,194.928,250z"/>
			<path d="M144.928,290h18c4.419,0,8-3.581,8-8c0-4.418-3.581-8-8-8h-18c-4.419,0-8,3.582-8,8
				C136.928,286.419,140.509,290,144.928,290z"/>
			<path d="M297.928,274h-17c-4.419,0-8,3.582-8,8c0,4.419,3.581,8,8,8h17c4.418,0,8-3.581,8-8
				C305.928,277.582,302.346,274,297.928,274z"/>
			<path d="M179.928,282c0,4.419,3.581,8,8,8h58c4.418,0,8-3.581,8-8c0-4.418-3.582-8-8-8h-58
				C183.509,274,179.928,277.582,179.928,282z"/>
			<path d="M195.928,314h-51c-4.419,0-8,3.582-8,8c0,4.419,3.581,8,8,8h51c4.419,0,8-3.581,8-8
				C203.928,317.582,200.347,314,195.928,314z"/>
			<path d="M251.928,314h-24c-4.419,0-8,3.582-8,8c0,4.419,3.581,8,8,8h24c4.419,0,8-3.581,8-8
				C259.928,317.582,256.346,314,251.928,314z"/>
			<path d="M297.928,314h-11c-4.419,0-8,3.582-8,8c0,4.419,3.581,8,8,8h11c4.418,0,8-3.581,8-8
				C305.928,317.582,302.346,314,297.928,314z"/>
		</g>
	</g>
</g>
<g>
</g>
<g>
</g>
<g>
</g>
<g>
</g>
<g>
</g>
<g>
</g>
<g>
</g>
<g>
</g>
<g>
</g>
<g>
</g>
<g>
</g>
<g>
</g>
<g>
</g>
<g>
</g>
<g>
</g>
</svg>
