<?xml version="1.0" encoding="iso-8859-1"?>
<!-- Generator: Adobe Illustrator 19.0.0, SVG Export Plug-In . SVG Version: 6.00 Build 0)  -->
<svg version="1.1" id="Layer_1" xmlns="http://www.w3.org/2000/svg" xmlns:xlink="http://www.w3.org/1999/xlink" x="0px" y="0px"
	 viewBox="0 0 502 502" style="enable-background:new 0 0 502 502;" xml:space="preserve">
<g>
	<g>
		<g>
			<path d="M492,115.503h-13.323v-25.54c0-5.523-4.477-10-10-10H418.7c-5.523,0-10,4.477-10,10v25.54h-41.034
				C335.222,87.543,293.95,72.19,251,72.19s-84.222,15.354-116.666,43.313H10c-5.523,0-10,4.477-10,10v250.995
				c0,5.523,4.477,10,10,10h124.334C166.778,414.456,208.051,429.81,251,429.81c42.949,0,84.222-15.354,116.666-43.313H492
				c5.523,0,10-4.477,10-10V125.503C502,119.98,497.523,115.503,492,115.503z M428.701,99.964h29.977v15.54h-29.977V99.964z
				 M114.517,366.498H20V135.503h94.518l0.011-0.001c-27.132,32.095-42.34,73.039-42.34,115.499s15.208,83.404,42.339,115.499
				L114.517,366.498z M357.205,369.065C328.016,395.34,290.298,409.811,251,409.811c-39.298,0-77.016-14.471-106.205-40.746
				c-33.432-30.094-52.606-73.127-52.606-118.065s19.174-87.971,52.606-118.065C173.984,106.66,211.702,92.19,251,92.19
				c39.298,0,77.016,14.471,106.205,40.746c33.432,30.095,52.606,73.127,52.606,118.065S390.637,338.971,357.205,369.065z
				 M482,366.498h-94.518l-0.011,0.001c27.132-32.095,42.339-73.039,42.339-115.499c0-42.46-15.208-83.404-42.339-115.499
				l0.011,0.001H418.7h49.977H482V366.498z"/>
			<path d="M251,122.167c-71.039,0-128.834,57.795-128.834,128.834S179.961,379.834,251,379.834s128.834-57.795,128.834-128.834
				S322.039,122.167,251,122.167z M251,359.834c-60.011,0-108.834-48.823-108.834-108.834S190.989,142.167,251,142.167
				s108.834,48.823,108.834,108.834S311.011,359.834,251,359.834z"/>
			<path d="M251,323.185c-39.803,0-72.185-32.382-72.185-72.185c0-5.523-4.477-10-10-10s-10,4.477-10,10
				c0,50.831,41.354,92.185,92.185,92.185c5.523,0,10-4.477,10-10S256.523,323.185,251,323.185z"/>
			<path d="M176.433,214.985c1.674,1.078,3.549,1.592,5.403,1.592c3.287,0,6.506-1.619,8.418-4.588
				c6.948-10.793,16.655-19.567,28.073-25.375c4.923-2.504,6.884-8.524,4.38-13.447c-2.504-4.923-8.524-6.883-13.447-4.38
				c-14.573,7.412-26.96,18.607-35.824,32.376C170.447,205.808,171.789,211.995,176.433,214.985z"/>
		</g>
	</g>
</g>
<g>
</g>
<g>
</g>
<g>
</g>
<g>
</g>
<g>
</g>
<g>
</g>
<g>
</g>
<g>
</g>
<g>
</g>
<g>
</g>
<g>
</g>
<g>
</g>
<g>
</g>
<g>
</g>
<g>
</g>
</svg>
