<?xml version="1.0" encoding="iso-8859-1"?>
<!-- Generator: Adobe Illustrator 19.0.0, SVG Export Plug-In . SVG Version: 6.00 Build 0)  -->
<svg version="1.1" id="Layer_1" xmlns="http://www.w3.org/2000/svg" xmlns:xlink="http://www.w3.org/1999/xlink" x="0px" y="0px"
	 viewBox="0 0 416 416" style="enable-background:new 0 0 416 416;" xml:space="preserve">
<g>
	<g>
		<g>
			<path d="M408,0H8C3.582,0,0,3.582,0,8v400c0,4.419,3.582,8,8,8h400c4.418,0,8-3.581,8-8V8C416,3.582,412.418,0,408,0z M400,400
				H16V16h384V400z"/>
			<path d="M48,357h320c4.418,0,8-3.581,8-8V48c0-4.418-3.582-8-8-8H48c-4.418,0-8,3.582-8,8v301C40,353.419,43.582,357,48,357z
				 M360,241.594c-11.049,1.702-17.827,6.775-23.469,11.006c-6.258,4.693-11.201,8.4-21.869,8.4c-10.669,0-15.612-3.707-21.87-8.4
				c-6.892-5.168-15.468-11.6-31.469-11.6c-15.999,0-24.574,6.432-31.465,11.6c-6.258,4.693-11.2,8.4-21.866,8.4
				c-10.666,0-15.608-3.707-21.866-8.4c-6.891-5.168-15.467-11.6-31.467-11.6c-15.999,0-24.575,6.432-31.465,11.6
				c-6.258,4.693-11.199,8.4-21.865,8.4c-10.665,0-15.607-3.706-21.863-8.4c-5.641-4.231-12.418-9.303-23.466-11.006v-28.716
				c5.631,1.364,9.419,4.19,13.859,7.521C76.751,225.567,85.327,232,101.33,232c16.002,0,24.577-6.434,31.468-11.603
				c3.157-2.369,6.141-4.607,9.645-6.127c0.002-0.001,0.003-0.002,0.005-0.003c3.567-1.547,7.447-2.267,12.212-2.267
				c10.669,0,15.612,3.708,21.87,8.401c6.89,5.167,15.464,11.599,31.46,11.599c16.003,0,24.579-6.433,31.471-11.602
				c6.256-4.692,11.197-8.398,21.859-8.398c5.295,0,9.595,0.917,13.531,2.885l0.001,0.001l0.001,0.001
				c2.938,1.467,5.557,3.432,8.329,5.511C290.076,225.567,298.654,232,314.66,232c16.001,0,24.578-6.432,31.47-11.6
				c4.443-3.332,8.233-6.159,13.87-7.523V241.594z M149.683,196.215C157.676,170.912,181.32,153,208.8,153
				c27.659,0,51.273,17.966,59.185,43.398c-2.141-0.267-4.358-0.398-6.665-0.398c-15.996,0-24.57,6.431-31.46,11.599
				c-6.258,4.694-11.201,8.401-21.87,8.401c-10.662,0-15.604-3.706-21.859-8.398C179.239,202.433,170.663,196,154.66,196
				C152.951,196,151.294,196.071,149.683,196.215z M56,56h304v140.594c-11.05,1.702-17.828,6.775-23.47,11.006
				c-6.258,4.693-11.201,8.4-21.87,8.4c-10.673,0-15.617-3.708-21.877-8.402c-2.179-1.635-4.416-3.304-6.942-4.87
				C279.905,164.973,247.499,137,208.8,137c-38.18,0-70.465,27.503-76.851,64.659c-3.335,1.884-6.172,4.003-8.754,5.939
				c-6.256,4.694-11.198,8.402-21.865,8.402c-10.669,0-15.612-3.707-21.87-8.401c-5.64-4.23-12.415-9.302-23.46-11.004V56z
				 M56,257.877c5.634,1.365,9.424,4.191,13.865,7.523c6.89,5.168,15.465,11.6,31.464,11.6c15.999,0,24.575-6.432,31.465-11.6
				c6.258-4.693,11.199-8.4,21.865-8.4c10.667,0,15.609,3.707,21.867,8.4c6.891,5.168,15.466,11.6,31.466,11.6
				s24.575-6.432,31.466-11.6c6.258-4.693,11.199-8.4,21.865-8.4c10.668,0,15.611,3.707,21.869,8.4
				c6.892,5.168,15.468,11.6,31.47,11.6c16.001,0,24.577-6.432,31.469-11.6c4.443-3.332,8.233-6.159,13.869-7.523v28.717
				c-11.049,1.702-17.827,6.775-23.469,11.006c-6.258,4.693-11.201,8.4-21.869,8.4c-10.669,0-15.612-3.707-21.87-8.4
				c-6.892-5.168-15.468-11.6-31.469-11.6c-15.999,0-24.574,6.432-31.465,11.6c-6.258,4.693-11.2,8.4-21.866,8.4
				s-15.608-3.707-21.866-8.4c-6.891-5.168-15.467-11.6-31.467-11.6c-15.999,0-24.575,6.432-31.465,11.6
				c-6.258,4.693-11.199,8.4-21.865,8.4c-10.665,0-15.607-3.706-21.863-8.4c-5.641-4.231-12.418-9.303-23.466-11.006V257.877z
				 M56,302.877c5.634,1.365,9.424,4.191,13.865,7.522c6.89,5.168,15.465,11.6,31.464,11.6c15.999,0,24.575-6.432,31.465-11.6
				c6.258-4.693,11.199-8.4,21.865-8.4c10.667,0,15.609,3.707,21.867,8.4c6.891,5.169,15.466,11.6,31.466,11.6
				s24.575-6.432,31.466-11.6c6.258-4.693,11.199-8.4,21.865-8.4c10.668,0,15.611,3.707,21.869,8.4
				c6.892,5.169,15.468,11.6,31.47,11.6c16.001,0,24.577-6.432,31.469-11.6c4.443-3.332,8.233-6.159,13.869-7.523V341H56V302.877z"
				/>
			<path d="M208,127.2c4.418,0,8-3.581,8-8v-40c0-4.419-3.582-8-8-8c-4.418,0-8,3.581-8,8v40C200,123.619,203.582,127.2,208,127.2z"
				/>
			<path d="M252,138.99c1.26,0.728,2.635,1.073,3.992,1.073c2.765,0,5.454-1.435,6.936-4.001l20-34.641
				c2.21-3.826,0.898-8.719-2.928-10.928c-3.827-2.21-8.72-0.899-10.928,2.928l-20,34.641
				C246.862,131.888,248.174,136.781,252,138.99z"/>
			<path d="M86.221,154.128l34.641,20c1.26,0.728,2.635,1.073,3.992,1.073c2.765,0,5.454-1.435,6.936-4.001
				c2.21-3.826,0.898-8.719-2.928-10.928l-34.641-20c-3.827-2.21-8.719-0.898-10.928,2.928
				C81.083,147.026,82.394,151.919,86.221,154.128z"/>
			<path d="M284.211,171.2c1.482,2.566,4.17,4.001,6.936,4.001c1.356,0,2.732-0.346,3.992-1.073l34.641-20
				c3.826-2.209,5.138-7.102,2.928-10.928c-2.208-3.825-7.099-5.137-10.928-2.928l-34.641,20
				C283.313,162.481,282.001,167.374,284.211,171.2z"/>
			<path d="M153.072,136.062c1.481,2.566,4.17,4.001,6.936,4.001c1.356,0,2.732-0.346,3.992-1.073
				c3.826-2.209,5.138-7.102,2.928-10.928l-20-34.641c-2.208-3.825-7.1-5.138-10.928-2.928c-3.826,2.209-5.138,7.102-2.928,10.928
				L153.072,136.062z"/>
		</g>
	</g>
</g>
<g>
</g>
<g>
</g>
<g>
</g>
<g>
</g>
<g>
</g>
<g>
</g>
<g>
</g>
<g>
</g>
<g>
</g>
<g>
</g>
<g>
</g>
<g>
</g>
<g>
</g>
<g>
</g>
<g>
</g>
</svg>
