<?xml version="1.0" encoding="iso-8859-1"?>
<!-- Generator: Adobe Illustrator 19.0.0, SVG Export Plug-In . SVG Version: 6.00 Build 0)  -->
<svg version="1.1" id="Layer_1" xmlns="http://www.w3.org/2000/svg" xmlns:xlink="http://www.w3.org/1999/xlink" x="0px" y="0px"
	 viewBox="0 0 418.002 418.002" style="enable-background:new 0 0 418.002 418.002;" xml:space="preserve">
<g>
	<g>
		<g>
			<path d="M399.678,297.121l16.936-24.877c1.849-2.717,1.849-6.288,0-9.004l-16.936-24.873l16.936-24.874
				c1.849-2.717,1.849-6.288,0-9.005l-16.935-24.873l16.934-24.872c1.851-2.717,1.85-6.289,0-9.005l-16.934-24.868l16.934-24.867
				c2.487-3.652,1.543-8.628-2.109-11.115c-1.678-1.143-3.633-1.553-5.5-1.318c-0.329-0.041-0.663-0.07-1.003-0.07H8
				c-4.419,0-8,3.581-8,8v235c0,4.419,3.581,8,8,8h400c0.335,0,0.664-0.027,0.989-0.067c0.337,0.043,0.677,0.068,1.018,0.068
				c1.551,0,3.117-0.45,4.495-1.388c3.652-2.486,4.598-7.463,2.111-11.115L399.678,297.121z M16,318.5v-219h378.874l-11.486,16.867
				c-1.851,2.717-1.851,6.289,0,9.006l16.934,24.868l-16.934,24.872c-1.85,2.717-1.85,6.288-0.001,9.005l16.936,24.872
				l-16.936,24.874c-1.849,2.717-1.849,6.288,0,9.005l16.936,24.873l-16.936,24.877c-1.849,2.716-1.849,6.288,0,9.004l11.489,16.877
				H16z"/>
			<path d="M159,118.5H51c-4.419,0-8,3.581-8,8v165c0,4.419,3.581,8,8,8h108c4.418,0,8-3.581,8-8v-165
				C167,122.082,163.418,118.5,159,118.5z M151,283.5H59v-13h92V283.5z M151,254.5H59v-120h92V254.5z"/>
			<path d="M84.791,210.545c1.519,1.87,3.8,2.955,6.209,2.955h6.258l-6.06,9.789c-2.326,3.757-1.166,8.688,2.591,11.013
				c1.312,0.812,2.766,1.199,4.203,1.199c2.679,0,5.296-1.345,6.81-3.79l11.273-18.211H131c4.418,0,8-3.582,8-8c0-4.419-3.582-8-8-8
				H94.808l-10.599-13.045c-2.786-3.428-7.823-3.95-11.254-1.164c-3.429,2.786-3.95,7.825-1.164,11.254L84.791,210.545z"/>
			<path d="M330,129.5H219c-4.418,0-8,3.581-8,8c0,4.418,3.582,8,8,8h111c4.418,0,8-3.582,8-8C338,133.082,334.418,129.5,330,129.5z
				"/>
			<path d="M330,165.25H219c-4.418,0-8,3.581-8,8c0,4.418,3.582,8,8,8h111c4.418,0,8-3.582,8-8
				C338,168.832,334.418,165.25,330,165.25z"/>
			<path d="M330,201H219c-4.418,0-8,3.581-8,8c0,4.418,3.582,8,8,8h111c4.418,0,8-3.582,8-8C338,204.582,334.418,201,330,201z"/>
			<path d="M330,236.75H219c-4.418,0-8,3.581-8,8c0,4.418,3.582,8,8,8h111c4.418,0,8-3.582,8-8
				C338,240.332,334.418,236.75,330,236.75z"/>
			<path d="M330,272.5H219c-4.418,0-8,3.582-8,8c0,4.419,3.582,8,8,8h111c4.418,0,8-3.581,8-8C338,276.082,334.418,272.5,330,272.5z
				"/>
		</g>
	</g>
</g>
<g>
</g>
<g>
</g>
<g>
</g>
<g>
</g>
<g>
</g>
<g>
</g>
<g>
</g>
<g>
</g>
<g>
</g>
<g>
</g>
<g>
</g>
<g>
</g>
<g>
</g>
<g>
</g>
<g>
</g>
</svg>
