<?xml version="1.0" encoding="iso-8859-1"?>
<!-- Generator: Adobe Illustrator 19.0.0, SVG Export Plug-In . SVG Version: 6.00 Build 0)  -->
<svg version="1.1" id="Layer_1" xmlns="http://www.w3.org/2000/svg" xmlns:xlink="http://www.w3.org/1999/xlink" x="0px" y="0px"
	 viewBox="0 0 418.002 418.002" style="enable-background:new 0 0 418.002 418.002;" xml:space="preserve">
<g>
	<g>
		<g>
			<path d="M399.678,290.471l16.936-24.877c1.849-2.717,1.849-6.288,0-9.004l-16.936-24.873l16.936-24.874
				c1.849-2.717,1.849-6.288,0-9.005l-16.935-24.873l16.934-24.872c1.851-2.717,1.85-6.289,0-9.005l-16.934-24.868l16.934-24.867
				c2.487-3.652,1.543-8.628-2.109-11.115c-1.678-1.143-3.633-1.553-5.499-1.318c-0.329-0.041-0.663-0.07-1.004-0.07h-18.026
				l10.684-10.684c1.5-1.5,2.343-3.535,2.343-5.657s-0.843-4.157-2.343-5.657l-35.355-35.355c-3.126-3.125-8.19-3.124-11.314,0
				l-57.352,57.352H8c-4.418,0-8,3.581-8,8v235c0,4.419,3.582,8,8,8h37.635l-23.988,23.988c-3.124,3.124-3.124,8.189,0,11.314
				l35.355,35.355c1.501,1.5,3.535,2.343,5.657,2.343s4.156-0.843,5.657-2.343l70.657-70.657H408c0.335,0,0.664-0.027,0.989-0.067
				c0.337,0.043,0.677,0.068,1.018,0.068c1.551,0,3.117-0.45,4.495-1.388c3.652-2.486,4.598-7.463,2.111-11.115L399.678,290.471z
				 M16,311.849v-219h264.635l-30,30H219c-4.418,0-8,3.581-8,8c0,4.419,3.582,8,8,8h15.635L167,206.484V119.85c0-4.419-3.582-8-8-8
				H51c-4.418,0-8,3.581-8,8v165c0,4.419,3.582,8,8,8h29.635l-19,19H16z M59,247.85v-120h92v94.635l-25.365,25.365H59z
				 M109.635,263.849l-13,13H59v-13H109.635z M62.66,381.536l-24.042-24.042L359.645,36.468l24.042,24.042L62.66,381.536z
				 M154.974,311.849l65.75-65.75H330c4.418,0,8-3.581,8-8s-3.582-8-8-8h-93.276l19.75-19.75H330c4.418,0,8-3.581,8-8s-3.582-8-8-8
				h-57.526l19.75-19.75H330c4.418,0,8-3.581,8-8s-3.582-8-8-8h-21.776l19.75-19.75H330c4.418,0,8-3.581,8-8
				c0-0.621-0.094-1.217-0.228-1.798l36.202-36.202h20.9l-11.486,16.867c-1.851,2.717-1.851,6.289,0,9.006l16.934,24.868
				l-16.934,24.872c-1.85,2.717-1.85,6.288-0.001,9.005l16.936,24.872l-16.936,24.874c-1.849,2.717-1.849,6.288,0,9.005
				l16.936,24.873l-16.936,24.877c-1.849,2.716-1.849,6.288,0,9.004l11.489,16.877H154.974z"/>
			<path d="M139,198.85c0-4.419-3.582-8-8-8H94.808l-10.599-13.045c-2.785-3.428-7.824-3.95-11.254-1.164
				c-3.429,2.786-3.95,7.825-1.164,11.254l13,16c1.52,1.87,3.8,2.955,6.209,2.955h6.258l-6.06,9.789
				c-2.326,3.757-1.166,8.688,2.591,11.013c1.312,0.812,2.767,1.199,4.203,1.199c2.679,0,5.297-1.345,6.81-3.79l11.273-18.211H131
				C135.418,206.85,139,203.268,139,198.85z"/>
			<path d="M330,265.849H219c-4.418,0-8,3.582-8,8c0,4.419,3.582,8,8,8h111c4.418,0,8-3.581,8-8
				C338,269.432,334.418,265.849,330,265.849z"/>
		</g>
	</g>
</g>
<g>
</g>
<g>
</g>
<g>
</g>
<g>
</g>
<g>
</g>
<g>
</g>
<g>
</g>
<g>
</g>
<g>
</g>
<g>
</g>
<g>
</g>
<g>
</g>
<g>
</g>
<g>
</g>
<g>
</g>
</svg>
