<?xml version="1.0" encoding="iso-8859-1"?>
<!-- Generator: Adobe Illustrator 19.0.0, SVG Export Plug-In . SVG Version: 6.00 Build 0)  -->
<svg version="1.1" id="Layer_1" xmlns="http://www.w3.org/2000/svg" xmlns:xlink="http://www.w3.org/1999/xlink" x="0px" y="0px"
	 viewBox="0 0 502 502" style="enable-background:new 0 0 502 502;" xml:space="preserve">
<g>
	<g>
		<g>
			<path d="M428.483,73.516C381.076,26.108,318.045,0,251,0C183.956,0,120.924,26.108,73.516,73.516S0,183.956,0,251
				s26.108,130.076,73.516,177.484S183.956,502,251,502c67.045,0,130.076-26.108,177.483-73.516
				C475.892,381.076,502,318.044,502,251S475.892,120.924,428.483,73.516z M251,482C123.626,482,20,378.374,20,251
				S123.626,20,251,20s231,103.626,231,231S378.374,482,251,482z"/>
			<path d="M387.793,218.793c-17.759,0-32.206,14.448-32.206,32.207c0,57.669-46.917,104.586-104.587,104.586
				c-16.678,0-32.909-3.935-47.576-11.464l70.349-70.349c12.557-12.557,12.557-32.99,0-45.547
				c-12.559-12.557-32.989-12.556-45.547,0l-70.349,70.35c-7.529-14.667-11.464-30.897-11.464-47.576
				c0-57.669,46.917-104.586,104.586-104.586c17.759,0,32.207-14.448,32.207-32.207C283.206,96.448,268.759,82,251,82
				c-93.187,0-169,75.813-169,169c0,34.041,9.983,66.532,28.956,94.506c-12.092,12.592-11.938,32.674,0.463,45.075
				c6.084,6.083,14.171,9.433,22.773,9.433c8.381,0,16.274-3.181,22.301-8.97C184.468,410.017,216.959,420,251,420
				c93.187,0,169-75.813,169-169C420,233.241,405.552,218.793,387.793,218.793z M251,400c-32.578,0-63.545-10.374-89.554-30
				c-1.793-1.353-3.911-2.018-6.021-2.018c-2.574,0-5.136,0.991-7.074,2.929l-5.526,5.527c-2.306,2.306-5.372,3.576-8.632,3.576
				s-6.326-1.27-8.631-3.576c-4.76-4.759-4.76-12.503,0-17.263l5.527-5.527c3.526-3.527,3.916-9.113,0.911-13.095
				c-19.626-26.009-30-56.977-30-89.554c0-82.159,66.841-149,149-149c6.731,0,12.207,5.476,12.207,12.207
				c0,6.731-5.476,12.207-12.207,12.207c-68.697,0-124.586,55.889-124.586,124.586c0,24.802,7.304,48.778,21.124,69.337
				c1.667,2.481,4.357,4.085,7.333,4.375c2.972,0.285,5.924-0.769,8.038-2.882l79.46-79.461c4.758-4.759,12.503-4.76,17.263,0
				s4.76,12.504,0,17.263l-79.461,79.461c-2.114,2.114-3.171,5.063-2.882,8.038c0.289,2.976,1.894,5.666,4.375,7.333
				c20.559,13.819,44.536,21.124,69.337,21.124c68.697,0,124.587-55.889,124.587-124.586c0-6.73,5.476-12.207,12.206-12.207
				c6.731,0,12.207,5.476,12.207,12.207C400,333.159,333.159,400,251,400z"/>
			<path d="M251,51c5.522,0,10-4.477,10-10s-4.478-10-10-10c-58.764,0-114.011,22.884-155.563,64.437
				C53.884,136.989,31,192.236,31,251c0,5.523,4.477,10,10,10s10-4.477,10-10C51,140.72,140.72,51,251,51z"/>
			<path d="M336.711,70.243c14.987,7.12,29.086,16.122,41.905,26.756c1.867,1.549,4.13,2.304,6.379,2.304
				c2.873,0,5.725-1.232,7.702-3.616c3.526-4.25,2.939-10.555-1.312-14.081c-14.098-11.695-29.605-21.596-46.093-29.429
				c-4.988-2.369-10.954-0.247-13.323,4.742C329.6,61.908,331.723,67.873,336.711,70.243z"/>
		</g>
	</g>
</g>
<g>
</g>
<g>
</g>
<g>
</g>
<g>
</g>
<g>
</g>
<g>
</g>
<g>
</g>
<g>
</g>
<g>
</g>
<g>
</g>
<g>
</g>
<g>
</g>
<g>
</g>
<g>
</g>
<g>
</g>
</svg>
