<?xml version="1.0" encoding="iso-8859-1"?>
<!-- Generator: Adobe Illustrator 19.0.0, SVG Export Plug-In . SVG Version: 6.00 Build 0)  -->
<svg version="1.1" id="Layer_1" xmlns="http://www.w3.org/2000/svg" xmlns:xlink="http://www.w3.org/1999/xlink" x="0px" y="0px"
	 viewBox="0 0 502 502" style="enable-background:new 0 0 502 502;" xml:space="preserve">
<g>
	<g>
		<g>
			<path d="M228.865,102.753c-4.938-2.469-10.946-0.47-13.417,4.469c-4.354,8.703-8.002,16.813-10.843,24.108
				c-2.004,5.146,0.543,10.943,5.689,12.947c1.192,0.464,2.419,0.684,3.626,0.684c4.002,0,7.781-2.419,9.321-6.374
				c2.618-6.722,6.014-14.264,10.093-22.417C235.805,111.232,233.805,105.225,228.865,102.753z"/>
			<path d="M251.456,63.95c-4.723-2.862-10.873-1.355-13.735,3.367c-2.652,4.375-5.221,8.712-7.637,12.893
				c-2.763,4.782-1.127,10.898,3.655,13.662c1.576,0.911,3.296,1.343,4.994,1.343c3.455,0,6.814-1.792,8.667-4.998
				c2.346-4.06,4.844-8.276,7.423-12.531C257.687,72.962,256.179,66.813,251.456,63.95z"/>
			<path d="M96.235,469.5c1.221,0.49,2.48,0.722,3.72,0.722c3.965,0,7.717-2.374,9.284-6.279
				c5.877-14.646,17.633-26.539,32.255-32.628c5.099-2.123,7.51-7.978,5.387-13.076c-2.123-5.099-7.979-7.512-13.075-5.387
				c-19.545,8.14-35.265,24.047-43.128,43.644C88.622,461.621,91.11,467.444,96.235,469.5z"/>
			<path d="M342.234,375.436V165.723c0-20.403-14.156-53.99-42.076-99.829C279.864,32.576,259.276,4.376,259.07,4.095
				C257.188,1.521,254.19,0,251,0c-3.189,0-6.187,1.521-8.07,4.095c-0.206,0.281-20.793,28.481-41.087,61.799
				c-27.92,45.839-42.077,79.426-42.077,99.829v209.713C99.735,380.513,52.438,430.849,52.438,492c0,5.523,4.477,10,10,10h107.329
				c5.523,0,10-4.477,10-10v-38.729h142.467V492c0,5.523,4.478,10,10,10h107.329c5.522,0,10-4.477,10-10
				C449.563,430.849,402.266,380.513,342.234,375.436z M159.766,443.27V482H72.951c4.699-45.525,41.129-81.815,86.815-86.485V443.27
				z M251.002,27.208c22.974,32.84,62.497,94.464,69.988,128.516H181.013C188.503,121.684,228.027,60.054,251.002,27.208z
				 M322.234,385.007v48.264H179.766v-48.264V175.723h142.467V385.007z M342.234,482.001L342.234,482.001v-38.73v-47.755
				c45.687,4.669,82.116,40.96,86.815,86.485H342.234z"/>
			<path d="M251,300.725c28.294,0,51.314-23.02,51.314-51.314c0-28.295-23.019-51.314-51.314-51.314
				c-28.295,0-51.314,23.02-51.314,51.314C199.687,277.705,222.706,300.725,251,300.725z M251,218.097
				c17.267,0,31.314,14.047,31.314,31.314c0,17.267-14.047,31.314-31.314,31.314c-17.267,0-31.314-14.047-31.314-31.314
				C219.687,232.144,233.734,218.097,251,218.097z"/>
			<path d="M251,331.574c-19.533,0-35.424,15.891-35.424,35.424s15.891,35.424,35.424,35.424c19.533,0,35.424-15.891,35.424-35.424
				S270.534,331.574,251,331.574z M251,382.422c-8.505,0-15.424-6.919-15.424-15.424s6.919-15.424,15.424-15.424
				s15.424,6.919,15.424,15.424S259.505,382.422,251,382.422z"/>
		</g>
	</g>
</g>
<g>
</g>
<g>
</g>
<g>
</g>
<g>
</g>
<g>
</g>
<g>
</g>
<g>
</g>
<g>
</g>
<g>
</g>
<g>
</g>
<g>
</g>
<g>
</g>
<g>
</g>
<g>
</g>
<g>
</g>
</svg>
