<?xml version="1.0" encoding="iso-8859-1"?>
<!-- Generator: Adobe Illustrator 19.0.0, SVG Export Plug-In . SVG Version: 6.00 Build 0)  -->
<svg version="1.1" id="Layer_1" xmlns="http://www.w3.org/2000/svg" xmlns:xlink="http://www.w3.org/1999/xlink" x="0px" y="0px"
	 viewBox="0 0 475.999 475.999" style="enable-background:new 0 0 475.999 475.999;" xml:space="preserve">
<g>
	<g>
		<g>
			<path d="M279,307.994h147c0.006,0,0.013,0,0.02,0c4.418,0,8-3.581,8-8c0-1.924-0.679-3.689-1.811-5.07L285.501,90.332
				c-2.025-2.824-5.643-4.018-8.95-2.954c-3.308,1.063-5.551,4.141-5.551,7.616v205C271,304.413,274.581,307.994,279,307.994z
				 M287,119.879l123.419,172.115h-33.68c-0.236-0.915-0.631-1.804-1.209-2.622l-46-65c-2.551-3.606-7.545-4.46-11.152-1.909
				c-3.606,2.552-4.461,7.545-1.909,11.152l41.314,58.378H287V119.879z"/>
			<path d="M84.268,307.994H199c4.418,0,8-3.581,8-8v-160c0-3.475-2.243-6.553-5.552-7.616c-3.309-1.063-6.925,0.13-8.95,2.954
				l-114.732,160c-1.748,2.438-1.985,5.648-0.615,8.316S81.269,307.994,84.268,307.994z M112.08,274.937
				c0.302,0.035,0.608,0.057,0.92,0.057h61c4.418,0,8-3.581,8-8c0-4.418-3.582-8-8-8h-50.488L191,164.879v127.115H99.849
				L112.08,274.937z"/>
			<path d="M468,390.994c-8.29,0-12.14-3.683-17.47-8.781c-5.825-5.572-13.008-12.424-26.223-13.147
				c4.914-9.759,7.693-20.771,7.693-32.422v-0.65c0-4.418-3.582-8-8-8H247v-239v-45c0-1.394-0.358-2.703-0.984-3.844
				c-0.009-0.016-0.019-0.03-0.028-0.046c-0.118-0.212-0.244-0.418-0.38-0.617c-0.047-0.07-0.102-0.134-0.151-0.202
				c-0.104-0.142-0.207-0.285-0.32-0.42c-0.068-0.081-0.143-0.157-0.214-0.236c-0.105-0.116-0.209-0.233-0.321-0.342
				c-0.017-0.017-0.031-0.035-0.048-0.051c-10.629-10.25-22.123-15.231-35.139-15.231c-15.3,0-29.835,7.007-43.892,13.784
				c-13.008,6.271-25.295,12.195-36.938,12.196c-0.001,0-0.003,0-0.004,0c-8.787,0-16.422-3.415-24.027-10.749
				c-2.311-2.228-5.728-2.86-8.682-1.604C92.918,37.886,91,40.785,91,43.994v45c0,2.172,0.883,4.251,2.447,5.759
				c10.628,10.249,22.122,15.23,35.138,15.231c0.002,0,0.001,0,0.003,0c15.298,0,29.833-7.008,43.888-13.784
				c13.009-6.272,25.296-12.196,36.939-12.196c7.849,0,14.778,2.732,21.585,8.536v235.454H54c-2.334,0-4.552,1.02-6.072,2.791
				c-1.52,1.771-2.19,4.119-1.835,6.425L51,369.109c-12.772,0.922-19.805,7.63-25.527,13.104c-5.33,5.098-9.182,8.781-17.473,8.781
				c-4.419,0-8,3.582-8,8c0,4.419,3.581,8,8,8c14.711,0,22.374-7.329,28.532-13.219c5.331-5.098,9.182-8.781,17.473-8.781
				s12.143,3.684,17.473,8.781c6.158,5.889,13.821,13.219,28.532,13.219c14.709,0,22.372-7.33,28.529-13.219
				c5.33-5.098,9.18-8.781,17.47-8.781c8.29,0,12.141,3.683,17.47,8.781c6.157,5.889,13.82,13.219,28.53,13.219
				c14.71,0,22.372-7.33,28.529-13.219c5.33-5.098,9.18-8.781,17.469-8.781s12.14,3.683,17.469,8.781
				c6.157,5.89,13.819,13.219,28.528,13.219c14.71,0,22.373-7.33,28.53-13.219c5.33-5.098,9.18-8.781,17.47-8.781
				c8.29,0,12.14,3.683,17.469,8.781c6.157,5.89,13.819,13.219,28.529,13.219c14.71,0,22.372-7.33,28.529-13.219
				c5.329-5.098,9.18-8.781,17.47-8.781c8.289,0,12.14,3.683,17.469,8.781c6.157,5.89,13.819,13.219,28.529,13.219
				c4.418,0,8-3.581,8-8C476,394.576,472.418,390.994,468,390.994z M209.415,68.004c-15.298,0-29.832,7.007-43.888,13.784
				c-13.009,6.272-25.296,12.196-36.938,12.196c0,0-0.001,0-0.003,0c-7.85,0-14.779-2.724-21.586-8.526V59.723
				c6.754,3.528,13.902,5.262,21.58,5.262c0.002,0,0.005,0,0.007,0c15.297-0.002,29.831-7.008,43.885-13.784
				c13.01-6.272,25.299-12.196,36.943-12.196c7.849,0,14.777,2.723,21.585,8.526v25.736
				C224.245,69.739,217.094,68.004,209.415,68.004z M374.659,390.956c-7.376-0.381-11.094-3.93-16.126-8.743
				c-6.157-5.89-13.819-13.219-28.529-13.219c-14.71,0-22.373,7.33-28.53,13.219c-5.33,5.098-9.18,8.781-17.47,8.781
				c-8.289,0-12.14-3.683-17.469-8.781c-6.157-5.89-13.819-13.219-28.528-13.219s-22.372,7.33-28.529,13.219
				c-5.33,5.098-9.18,8.781-17.469,8.781c-8.29,0-12.141-3.683-17.47-8.781c-6.157-5.889-13.82-13.219-28.53-13.219
				c-14.71,0-22.373,7.33-28.529,13.219c-5.33,5.098-9.18,8.781-17.469,8.781c-8.291,0-12.143-3.684-17.474-8.782
				c-3.91-3.74-8.436-8.054-14.98-10.709l-4.232-27.509h352.198C412.568,366.586,396.175,385.003,374.659,390.956z"/>
			<path d="M376.002,436.994c-8.29,0-12.14-3.683-17.469-8.781c-6.157-5.89-13.819-13.219-28.529-13.219
				c-14.71,0-22.373,7.33-28.53,13.219c-5.33,5.098-9.18,8.781-17.47,8.781c-8.289,0-12.14-3.683-17.469-8.781
				c-6.157-5.89-13.819-13.219-28.528-13.219c-4.418,0-8,3.582-8,8c0,4.419,3.582,8,8,8c8.289,0,12.14,3.683,17.469,8.781
				c6.157,5.89,13.819,13.219,28.528,13.219c14.71,0,22.373-7.33,28.53-13.219c5.33-5.098,9.18-8.781,17.47-8.781
				c8.29,0,12.14,3.683,17.469,8.781c6.157,5.89,13.819,13.219,28.529,13.219c4.418,0,8-3.581,8-8
				C384.002,440.576,380.42,436.994,376.002,436.994z"/>
		</g>
	</g>
</g>
<g>
</g>
<g>
</g>
<g>
</g>
<g>
</g>
<g>
</g>
<g>
</g>
<g>
</g>
<g>
</g>
<g>
</g>
<g>
</g>
<g>
</g>
<g>
</g>
<g>
</g>
<g>
</g>
<g>
</g>
</svg>
