<?xml version="1.0" encoding="iso-8859-1"?>
<!-- Generator: Adobe Illustrator 19.0.0, SVG Export Plug-In . SVG Version: 6.00 Build 0)  -->
<svg version="1.1" id="Layer_1" xmlns="http://www.w3.org/2000/svg" xmlns:xlink="http://www.w3.org/1999/xlink" x="0px" y="0px"
	 viewBox="0 0 502 502" style="enable-background:new 0 0 502 502;" xml:space="preserve">
<g>
	<g>
		<g>
			<path d="M492,184.106H362.354L296.742,70.213c-2.755-4.784-8.866-6.43-13.657-3.673c-4.785,2.757-6.43,8.871-3.673,13.657
				l59.861,103.91H162.727l59.861-103.91c2.757-4.786,1.112-10.9-3.673-13.657c-4.787-2.758-10.901-1.112-13.657,3.673
				l-65.612,113.894H10c-5.522,0-10,4.477-10,10v49.862c0,5.523,4.478,10,10,10h32.191v98.674c0,26.531,10.424,48.511,30.146,63.562
				c17.652,13.472,41.633,20.592,69.35,20.592h218.627c27.717,0,51.697-7.121,69.35-20.592
				c19.722-15.051,30.146-37.03,30.146-63.562v-98.674H492c5.522,0,10-4.477,10-10v-49.862C502,188.583,497.522,184.106,492,184.106
				z M360.314,416.796H141.687c-25.406,0-51.958-7.369-67.041-26.027h281.832c5.522,0,10-4.477,10-10s-4.478-10-10-10H64.491
				c-1.492-5.47-2.299-11.499-2.299-18.127v-7.899h232.917c5.522,0,10-4.477,10-10s-4.478-10-10-10H62.191v-26.026h179.22
				c5.522,0,10-4.477,10-10s-4.478-10-10-10H62.191v-24.748h377.617v98.673h0.001C439.809,399.943,398.745,416.796,360.314,416.796z
				 M482,233.968h-32.191H52.191H20v-29.862h462V233.968z"/>
			<path d="M307.894,278.716h-19.178c-5.522,0-10,4.477-10,10s4.477,10,10,10h19.178c5.522,0,10-4.477,10-10
				S313.416,278.716,307.894,278.716z"/>
		</g>
	</g>
</g>
<g>
</g>
<g>
</g>
<g>
</g>
<g>
</g>
<g>
</g>
<g>
</g>
<g>
</g>
<g>
</g>
<g>
</g>
<g>
</g>
<g>
</g>
<g>
</g>
<g>
</g>
<g>
</g>
<g>
</g>
</svg>
