<?xml version="1.0" encoding="iso-8859-1"?>
<!-- Generator: Adobe Illustrator 19.0.0, SVG Export Plug-In . SVG Version: 6.00 Build 0)  -->
<svg version="1.1" id="Layer_1" xmlns="http://www.w3.org/2000/svg" xmlns:xlink="http://www.w3.org/1999/xlink" x="0px" y="0px"
	 viewBox="0 0 502 502" style="enable-background:new 0 0 502 502;" xml:space="preserve">
<g>
	<g>
		<g>
			<path d="M384.5,0h-267c-5.523,0-10,4.477-10,10v387v95c0,5.523,4.477,10,10,10h267c5.523,0,10-4.477,10-10v-95V10
				C394.5,4.477,390.023,0,384.5,0z M374.5,482h-247v-75h247V482z M374.5,387h-247V20h247V387z"/>
			<path d="M251,470c14.336,0,26-11.664,26-26s-11.664-26-26-26c-5.523,0-10,4.477-10,10s4.477,10,10,10c3.309,0,6,2.691,6,6
				c0,3.309-2.691,6-6,6c-2.316,0-4.386-1.295-5.402-3.38c-2.42-4.965-8.406-7.029-13.371-4.608
				c-4.964,2.42-7.027,8.406-4.608,13.371C231.948,464.262,241.125,470,251,470z"/>
			<path d="M277.926,109.091c0-5.523-4.477-10-10-10h-33.852c-5.523,0-10,4.477-10,10v23.893
				c-7.201,2.784-13.944,6.68-19.966,11.534l-20.697-11.949c-4.784-2.761-10.899-1.123-13.66,3.66l-16.926,29.316
				c-1.326,2.297-1.686,5.026-0.999,7.588c0.687,2.562,2.362,4.746,4.659,6.072l20.69,11.946c-0.593,3.811-0.893,7.667-0.893,11.531
				s0.299,7.721,0.893,11.531l-20.69,11.946c-2.297,1.326-3.973,3.51-4.659,6.072c-0.687,2.562-0.327,5.292,0.999,7.588
				l16.926,29.316c2.761,4.783,8.877,6.421,13.66,3.66l20.697-11.949c6.021,4.854,12.765,8.749,19.966,11.534v23.892
				c0,5.523,4.477,10,10,10h33.852c5.523,0,10-4.477,10-10V272.38c7.201-2.785,13.944-6.68,19.966-11.534l20.697,11.949
				c4.783,2.761,10.899,1.124,13.66-3.66l16.926-29.316c1.326-2.297,1.686-5.026,0.999-7.588s-2.362-4.746-4.659-6.072
				l-20.69-11.946c0.593-3.811,0.893-7.667,0.893-11.531c0-3.863-0.299-7.72-0.893-11.531l20.69-11.946
				c2.297-1.327,3.972-3.511,4.659-6.072c0.687-2.562,0.327-5.292-0.999-7.588l-16.926-29.316c-2.761-4.784-8.878-6.422-13.66-3.66
				l-20.697,11.949c-6.021-4.854-12.765-8.75-19.966-11.534V109.091z M289.58,163.884c3.202,3.185,8.141,3.828,12.051,1.569
				l18.299-10.565l6.926,11.996l-18.292,10.56c-3.909,2.256-5.821,6.852-4.668,11.215c1.208,4.571,1.82,9.289,1.82,14.022
				c0,4.733-0.612,9.452-1.82,14.023c-1.153,4.363,0.759,8.958,4.668,11.215l18.29,10.56l-6.926,11.996l-18.299-10.565
				c-3.912-2.259-8.85-1.615-12.051,1.569c-6.736,6.699-15.126,11.545-24.262,14.015c-4.361,1.179-7.39,5.136-7.39,9.653v21.125
				h-13.852v-21.125c0-4.518-3.029-8.474-7.39-9.653c-9.136-2.47-17.525-7.316-24.262-14.015c-3.202-3.183-8.141-3.828-12.051-1.569
				l-18.299,10.565l-6.926-11.996l18.29-10.56c3.909-2.256,5.821-6.852,4.668-11.215c-1.208-4.571-1.82-9.29-1.82-14.023
				c0-4.733,0.612-9.451,1.82-14.022c1.153-4.363-0.759-8.958-4.668-11.215l-18.29-10.56l6.926-11.996l18.299,10.565
				c3.91,2.257,8.85,1.614,12.051-1.569c6.737-6.699,15.127-11.545,24.262-14.015c4.361-1.179,7.391-5.135,7.391-9.653v-21.125
				h13.852v21.125c0,4.518,3.029,8.475,7.391,9.653C274.453,152.339,282.842,157.185,289.58,163.884z"/>
			<path d="M214.118,202.681c0,20.337,16.545,36.882,36.882,36.882c20.337,0,36.882-16.545,36.882-36.882
				c0-20.337-16.545-36.882-36.882-36.882C230.663,165.799,214.118,182.344,214.118,202.681z M267.882,202.681
				c0,9.309-7.573,16.882-16.882,16.882s-16.882-7.573-16.882-16.882c0-9.309,7.573-16.882,16.882-16.882
				S267.882,193.372,267.882,202.681z"/>
			<path d="M155,55h122c5.523,0,10-4.477,10-10s-4.477-10-10-10H155c-5.523,0-10,4.477-10,10S149.477,55,155,55z"/>
			<path d="M313,55h14c5.523,0,10-4.477,10-10s-4.477-10-10-10h-14c-5.523,0-10,4.477-10,10S307.477,55,313,55z"/>
		</g>
	</g>
</g>
<g>
</g>
<g>
</g>
<g>
</g>
<g>
</g>
<g>
</g>
<g>
</g>
<g>
</g>
<g>
</g>
<g>
</g>
<g>
</g>
<g>
</g>
<g>
</g>
<g>
</g>
<g>
</g>
<g>
</g>
</svg>
