<?xml version="1.0" encoding="iso-8859-1"?>
<!-- Generator: Adobe Illustrator 19.0.0, SVG Export Plug-In . SVG Version: 6.00 Build 0)  -->
<svg version="1.1" id="Layer_1" xmlns="http://www.w3.org/2000/svg" xmlns:xlink="http://www.w3.org/1999/xlink" x="0px" y="0px"
	 viewBox="0 0 426 426" style="enable-background:new 0 0 426 426;" xml:space="preserve">
<g>
	<g>
		<g>
			<path d="M304.5,130h-6V88c0-4.419-3.582-8-8-8h-37V8c0-4.418-3.582-8-8-8h-65c-4.418,0-8,3.582-8,8v72h-37c-4.418,0-8,3.581-8,8
				v42h-6C95.859,130,75,150.86,75,176.5v29v145v29c0,25.64,20.859,46.5,46.5,46.5h183c25.641,0,46.5-20.86,46.5-46.5v-29v-145v-29
				C351,150.86,330.141,130,304.5,130z M188.5,16h49v64h-49V16z M143.5,96h37h65h37v34h-139V96z M91,213.5h34v129H91V213.5z
				 M335,379.5c0,16.818-13.683,30.5-30.5,30.5h-183c-16.817,0-30.5-13.682-30.5-30.5v-21h244V379.5z M141,342.5v-129h144v129H141z
				 M335,342.5h-34v-129h34V342.5z M335,197.5H91v-21c0-16.818,13.683-30.5,30.5-30.5h14h155h14c16.817,0,30.5,13.682,30.5,30.5
				V197.5z"/>
			<circle cx="213" cy="39" r="8"/>
			<path d="M250.47,262.136c-1.427-1.246-3.202-2.796-3.691-3.641c-0.559-0.966-1.051-3.38-1.446-5.319
				c-1.051-5.156-2.49-12.217-8.82-15.879c-2.215-1.281-4.738-1.931-7.501-1.931c-3.691,0-7.229,1.164-10.349,2.19
				C216.605,238.233,214.275,239,213,239c-1.275,0-3.606-0.767-5.662-1.443c-3.121-1.027-6.657-2.19-10.349-2.19
				c-2.764,0-5.287,0.65-7.502,1.931c-6.329,3.662-7.769,10.723-8.819,15.879c-0.395,1.939-0.888,4.353-1.445,5.317
				c-0.49,0.847-2.341,2.462-3.691,3.642C171.509,265.648,166,270.458,166,278s5.509,12.352,9.53,15.864
				c1.427,1.246,3.202,2.796,3.691,3.641c0.559,0.966,1.051,3.38,1.446,5.319c1.051,5.156,2.49,12.217,8.82,15.879
				c2.215,1.281,4.738,1.931,7.502,1.931c3.69,0,7.228-1.164,10.348-2.19c2.056-0.677,4.387-1.443,5.662-1.443
				s3.606,0.767,5.662,1.443c3.121,1.027,6.657,2.19,10.349,2.19c2.764,0,5.287-0.65,7.502-1.931
				c6.329-3.662,7.769-10.723,8.819-15.879c0.395-1.939,0.888-4.353,1.445-5.317c0.49-0.847,2.341-2.462,3.691-3.642
				C254.491,290.352,260,285.542,260,278S254.491,265.648,250.47,262.136z M239.945,281.812c-2.436,2.128-5.198,4.539-7.017,7.682
				c-1.865,3.225-2.614,6.896-3.274,10.134c-0.3,1.473-0.767,3.763-1.246,4.954c-1.236-0.183-3.154-0.814-4.745-1.337
				C220.466,302.193,216.841,301,213,301s-7.465,1.193-10.663,2.245c-1.571,0.517-3.464,1.14-4.748,1.329
				c-0.479-1.194-0.944-3.476-1.243-4.945c-0.66-3.239-1.409-6.91-3.275-10.136c-1.817-3.141-4.579-5.553-7.016-7.681
				c-1.234-1.077-3.199-2.793-3.899-3.812c0.7-1.019,2.666-2.735,3.899-3.812c2.436-2.128,5.198-4.539,7.017-7.682
				c1.865-3.225,2.614-6.896,3.274-10.134c0.3-1.473,0.767-3.763,1.246-4.954c1.236,0.183,3.154,0.814,4.745,1.337
				C205.534,253.807,209.159,255,213,255s7.465-1.193,10.663-2.245c1.571-0.517,3.464-1.14,4.748-1.329
				c0.479,1.194,0.944,3.477,1.243,4.945c0.66,3.239,1.409,6.91,3.275,10.136c1.817,3.141,4.579,5.553,7.016,7.681
				c1.234,1.077,3.199,2.793,3.899,3.812C243.145,279.019,241.179,280.735,239.945,281.812z"/>
		</g>
	</g>
</g>
<g>
</g>
<g>
</g>
<g>
</g>
<g>
</g>
<g>
</g>
<g>
</g>
<g>
</g>
<g>
</g>
<g>
</g>
<g>
</g>
<g>
</g>
<g>
</g>
<g>
</g>
<g>
</g>
<g>
</g>
</svg>
