<?xml version="1.0" encoding="iso-8859-1"?>
<!-- Generator: Adobe Illustrator 19.0.0, SVG Export Plug-In . SVG Version: 6.00 Build 0)  -->
<svg version="1.1" id="Layer_1" xmlns="http://www.w3.org/2000/svg" xmlns:xlink="http://www.w3.org/1999/xlink" x="0px" y="0px"
	 viewBox="0 0 439.895 439.895" style="enable-background:new 0 0 439.895 439.895;" xml:space="preserve">
<g>
	<g>
		<g>
			<path d="M177.057,155.115c1.71,1.684,3.478,3.426,4.219,4.708c0.818,1.414,1.487,3.914,2.135,6.331
				c1.557,5.816,3.495,13.054,10.2,16.935c2.547,1.473,5.493,2.22,8.758,2.22c3.725,0,7.254-0.928,10.667-1.826
				c2.51-0.66,5.105-1.342,6.911-1.342c1.806,0,4.401,0.683,6.911,1.342c3.413,0.898,6.942,1.826,10.667,1.826
				c3.265,0,6.212-0.747,8.759-2.221c6.705-3.879,8.643-11.118,10.2-16.935c0.647-2.417,1.315-4.917,2.134-6.331
				c0.742-1.282,2.51-3.024,4.219-4.708c4.118-4.057,9.758-9.613,9.758-17.621s-5.64-13.564-9.758-17.622
				c-1.71-1.685-3.478-3.427-4.219-4.709c-0.818-1.414-1.487-3.914-2.135-6.331c-1.557-5.816-3.495-13.055-10.2-16.935
				c-2.546-1.473-5.493-2.22-8.758-2.22c-3.725,0-7.254,0.928-10.667,1.826c-2.51,0.66-5.105,1.342-6.911,1.342
				c-1.806,0-4.401-0.683-6.911-1.342c-3.413-0.897-6.942-1.826-10.667-1.826c-3.265,0-6.212,0.747-8.759,2.221
				c-6.704,3.88-8.643,11.118-10.199,16.934c-0.647,2.417-1.316,4.917-2.135,6.332c-0.741,1.282-2.509,3.023-4.219,4.708
				c-4.118,4.057-9.758,9.614-9.758,17.622S172.939,151.057,177.057,155.115z M188.286,131.268c2.466-2.43,5.016-4.942,6.839-8.093
				c1.877-3.245,2.867-6.943,3.741-10.206c0.578-2.162,1.782-6.66,2.736-7.213c0.002-0.001,0.201-0.08,0.766-0.08
				c1.656,0,4.169,0.661,6.599,1.299c3.33,0.876,7.105,1.869,10.979,1.869c3.874,0,7.649-0.993,10.98-1.869
				c2.43-0.639,4.942-1.299,6.599-1.299c0.622,0,0.753,0.073,0.746,0.07c0.975,0.566,2.178,5.062,2.756,7.223
				c0.874,3.263,1.864,6.961,3.741,10.205c1.823,3.152,4.373,5.664,6.839,8.093c1.865,1.838,4.987,4.914,4.987,6.224
				c0.001,1.311-3.12,4.386-4.986,6.224c-2.467,2.43-5.017,4.942-6.84,8.094c-1.877,3.245-2.867,6.943-3.74,10.206
				c-0.579,2.162-1.783,6.66-2.737,7.213c-0.002,0.001-0.201,0.08-0.766,0.08c-1.656,0-4.169-0.661-6.599-1.299
				c-3.33-0.876-7.105-1.869-10.98-1.869c-3.874,0-7.649,0.993-10.98,1.869c-2.43,0.639-4.941,1.299-6.598,1.299
				c-0.532,0-0.739-0.07-0.746-0.07c-0.974-0.566-2.178-5.062-2.756-7.223c-0.874-3.263-1.864-6.961-3.741-10.205
				c-1.823-3.152-4.373-5.664-6.839-8.094c-1.865-1.837-4.987-4.913-4.987-6.224C183.299,136.181,186.421,133.106,188.286,131.268z"
				/>
			<path d="M312.145,8c0-4.418-3.582-8-8-8H135.749c-4.418,0-8,3.582-8,8v46.454c0,0.036,0.005,0.07,0.005,0.106
				c0,0.033-0.003,0.065-0.002,0.098c2.507,98.21,16.116,197.746,29.239,282.537c-0.132,0.577-0.209,1.175-0.209,1.792v55.667
				c-0.371,0.922-0.58,1.927-0.58,2.981c0,1.054,0.209,2.059,0.58,2.981v31.279c0,4.419,3.582,8,8,8h110.33c4.418,0,8-3.581,8-8
				v-92.909c0-0.617-0.077-1.215-0.209-1.792c13.124-84.792,26.732-184.327,29.239-282.537c0.001-0.033-0.003-0.065-0.002-0.098
				c0-0.036,0.005-0.07,0.005-0.106V8z M227.947,16h26.1v30.454h-26.1V16z M185.847,16h26.1v30.454h-26.1V16z M143.749,16h26.099
				v30.454h-26.099V16z M267.111,423.897h-94.329v-0.001v-18.26h35.552c2.122,0,4.156-0.843,5.657-2.343l16.989-16.989
				l16.408,16.409c1.501,1.5,3.535,2.343,5.657,2.343h14.066V423.897z M267.112,389.056h-10.753l-19.722-19.723
				c-1.501-1.501-3.535-2.343-5.657-2.343c-2.122,0-4.156,0.843-5.657,2.343l-20.303,20.303h-32.238v-42.648h94.33V389.056z
				 M267.674,330.988h-19.729c0-0.013,0.002-0.026,0.002-0.04v-62c0-4.419-3.582-8-8-8c-4.418,0-8,3.581-8,8v62
				c0,0.013,0.002,0.026,0.002,0.04h-19.004c0-0.013,0.002-0.026,0.002-0.04v-62c0-4.419-3.582-8-8-8c-4.418,0-8,3.581-8,8v62
				c0,0.013,0.002,0.026,0.002,0.04H172.22c-4.416-28.651-8.865-58.952-12.906-90.265h121.265
				C276.538,272.036,272.09,302.336,267.674,330.988z M282.596,224.723H157.298c-6.458-52.536-11.578-107.581-13.317-162.269
				h151.932C294.174,117.143,289.054,172.187,282.596,224.723z M296.145,46.454h-26.099V16h26.099V46.454z"/>
		</g>
	</g>
</g>
<g>
</g>
<g>
</g>
<g>
</g>
<g>
</g>
<g>
</g>
<g>
</g>
<g>
</g>
<g>
</g>
<g>
</g>
<g>
</g>
<g>
</g>
<g>
</g>
<g>
</g>
<g>
</g>
<g>
</g>
</svg>
