<?xml version="1.0" encoding="iso-8859-1"?>
<!-- Generator: Adobe Illustrator 19.0.0, SVG Export Plug-In . SVG Version: 6.00 Build 0)  -->
<svg version="1.1" id="Layer_1" xmlns="http://www.w3.org/2000/svg" xmlns:xlink="http://www.w3.org/1999/xlink" x="0px" y="0px"
	 viewBox="0 0 435.999 435.999" style="enable-background:new 0 0 435.999 435.999;" xml:space="preserve">
<g>
	<g>
		<g>
			<path d="M218,69.999c-81.607,0-148,66.393-148,148s66.393,148,148,148s148-66.393,148-148S299.607,69.999,218,69.999z
				 M218,349.999c-72.785,0-132-59.215-132-132s59.215-132,132-132s132,59.215,132,132S290.785,349.999,218,349.999z"/>
			<path d="M433.202,211.921l-39.712-33.994l21.07-47.849c0.943-2.142,0.901-4.589-0.115-6.698
				c-1.016-2.108-2.905-3.665-5.167-4.262l-50.558-13.325l-1.779-52.25c-0.08-2.337-1.177-4.522-3.005-5.981
				c-1.827-1.458-4.202-2.044-6.498-1.604l-51.347,9.853L271.809,9.505c-1.086-2.072-3.026-3.565-5.308-4.085
				c-2.281-0.518-4.677-0.014-6.554,1.383L218,38.026L176.053,6.803c-1.877-1.398-4.271-1.902-6.554-1.383
				c-2.282,0.52-4.222,2.013-5.308,4.085L139.91,55.811l-51.347-9.853c-2.3-0.443-4.671,0.145-6.498,1.604
				c-1.828,1.459-2.926,3.644-3.005,5.981l-1.779,52.251l-50.558,13.325c-2.263,0.597-4.151,2.154-5.167,4.262
				c-1.016,2.108-1.058,4.556-0.115,6.698l21.07,47.85L2.798,211.921C1.022,213.441,0,215.662,0,217.999
				c0,2.337,1.022,4.558,2.798,6.078l39.712,33.994l-21.07,47.848c-0.943,2.142-0.901,4.589,0.115,6.698s2.905,3.666,5.167,4.262
				l50.558,13.325l1.779,52.25c0.08,2.337,1.177,4.522,3.005,5.981c1.828,1.459,4.203,2.045,6.498,1.604l51.347-9.853l24.282,46.307
				c1.086,2.072,3.026,3.565,5.308,4.085c2.282,0.519,4.676,0.015,6.554-1.383L218,397.972l41.947,31.223
				c1.393,1.037,3.071,1.582,4.777,1.582c0.593,0,1.189-0.066,1.777-0.2c2.282-0.52,4.222-2.013,5.308-4.085l24.281-46.307
				l51.347,9.853c2.297,0.439,4.67-0.145,6.498-1.603c1.828-1.459,2.926-3.644,3.005-5.981l1.779-52.251l50.558-13.325
				c2.263-0.597,4.151-2.154,5.167-4.262c1.016-2.108,1.058-4.556,0.115-6.698l-21.07-47.85l39.712-33.994
				c1.776-1.52,2.798-3.74,2.798-6.078C436,215.662,434.978,213.441,433.202,211.921z M378.572,249.779
				c-2.68,2.294-3.541,6.073-2.12,9.302l19.69,44.715l-47.254,12.454c-3.415,0.9-5.836,3.934-5.956,7.464l-1.664,48.85l-47.996-9.21
				c-3.463-0.667-6.954,1.017-8.593,4.141l-22.691,43.273l-39.211-29.187c-2.835-2.11-6.719-2.11-9.554,0l-39.211,29.187
				l-22.691-43.273c-1.399-2.668-4.151-4.285-7.082-4.285c-0.5,0-1.005,0.047-1.51,0.144l-47.997,9.21l-1.663-48.851
				c-0.12-3.53-2.541-6.563-5.956-7.464l-47.254-12.454l19.689-44.714c1.421-3.229,0.561-7.007-2.12-9.302l-37.126-31.78
				l37.126-31.78c2.68-2.294,3.541-6.073,2.12-9.302l-19.689-44.715l47.254-12.454c3.415-0.9,5.836-3.934,5.956-7.464l1.664-48.85
				l47.996,9.21c3.463,0.666,6.955-1.017,8.593-4.141l22.691-43.273l39.211,29.187c2.835,2.11,6.719,2.11,9.554,0l39.211-29.187
				l22.691,43.273c1.638,3.124,5.13,4.809,8.592,4.141l47.997-9.209l1.664,48.851c0.12,3.53,2.541,6.563,5.956,7.464l47.254,12.454
				l-19.69,44.714c-1.421,3.229-0.56,7.007,2.12,9.302l37.125,31.779L378.572,249.779z"/>
		</g>
	</g>
</g>
<g>
</g>
<g>
</g>
<g>
</g>
<g>
</g>
<g>
</g>
<g>
</g>
<g>
</g>
<g>
</g>
<g>
</g>
<g>
</g>
<g>
</g>
<g>
</g>
<g>
</g>
<g>
</g>
<g>
</g>
</svg>
