<?xml version="1.0" encoding="iso-8859-1"?>
<!-- Generator: Adobe Illustrator 19.0.0, SVG Export Plug-In . SVG Version: 6.00 Build 0)  -->
<svg version="1.1" id="Layer_1" xmlns="http://www.w3.org/2000/svg" xmlns:xlink="http://www.w3.org/1999/xlink" x="0px" y="0px"
	 viewBox="0 0 502.001 502.001" style="enable-background:new 0 0 502.001 502.001;" xml:space="preserve">
<g>
	<g>
		<g>
			<path d="M499.072,295.442L243.354,39.724c-1.351-1.35-3.06-2.286-4.925-2.695L71.017,0.235C67.686-0.501,64.212,0.518,61.8,2.93
				L2.93,61.8c-2.412,2.412-3.428,5.887-2.696,9.218L37.027,238.43c0.41,1.865,1.346,3.574,2.696,4.925l255.718,255.717
				c1.952,1.952,4.512,2.929,7.071,2.929s5.119-0.976,7.071-2.928l189.489-189.489c1.875-1.876,2.929-4.419,2.929-7.071
				C502.001,299.861,500.947,297.318,499.072,295.442z M302.512,477.859L55.934,231.281L20.943,72.072l51.128-51.128l159.209,34.99
				l246.579,246.579L302.512,477.859z"/>
			<path d="M199.317,104.573c-3.905,3.906-3.905,10.238,0,14.143l129.699,129.698c1.952,1.952,4.512,2.929,7.071,2.929
				c2.559,0,5.118-0.976,7.071-2.929c3.905-3.906,3.905-10.238,0-14.143L213.459,104.573
				C209.555,100.669,203.222,100.669,199.317,104.573z"/>
			<path d="M152.405,151.485c-3.905,3.906-3.905,10.238,0,14.143l191.328,191.328c1.952,1.952,4.512,2.929,7.071,2.929
				s5.119-0.977,7.072-2.929c3.905-3.906,3.905-10.238,0-14.143L166.548,151.485C162.642,147.581,156.31,147.581,152.405,151.485z"
				/>
			<path d="M118.716,199.317c-3.906-3.904-10.238-3.904-14.143,0c-3.905,3.906-3.905,10.238,0,14.143l191.328,191.328
				c1.952,1.952,4.512,2.929,7.071,2.929c2.559,0,5.119-0.976,7.072-2.929c3.905-3.906,3.905-10.238,0-14.143L118.716,199.317z"/>
			<path d="M390.646,310.044c1.952,1.952,4.512,2.929,7.071,2.929c2.559,0,5.118-0.977,7.072-2.929
				c3.905-3.906,3.905-10.238,0-14.143l-25.756-25.756c-3.906-3.904-10.238-3.904-14.143,0c-3.905,3.906-3.905,10.238,0,14.143
				L390.646,310.044z"/>
			<path d="M71.918,59.04L59.041,71.918c-3.905,3.906-3.905,10.238,0,14.143c1.952,1.952,4.512,2.929,7.071,2.929
				c2.559,0,5.118-0.977,7.071-2.929l12.878-12.878c3.905-3.906,3.905-10.238,0-14.143C82.155,55.136,75.823,55.136,71.918,59.04z"
				/>
		</g>
	</g>
</g>
<g>
</g>
<g>
</g>
<g>
</g>
<g>
</g>
<g>
</g>
<g>
</g>
<g>
</g>
<g>
</g>
<g>
</g>
<g>
</g>
<g>
</g>
<g>
</g>
<g>
</g>
<g>
</g>
<g>
</g>
</svg>
