<?xml version="1.0" encoding="iso-8859-1"?>
<!-- Generator: Adobe Illustrator 19.0.0, SVG Export Plug-In . SVG Version: 6.00 Build 0)  -->
<svg version="1.1" id="Layer_1" xmlns="http://www.w3.org/2000/svg" xmlns:xlink="http://www.w3.org/1999/xlink" x="0px" y="0px"
	 viewBox="0 0 440 440" style="enable-background:new 0 0 440 440;" xml:space="preserve">
<g>
	<g>
		<g>
			<path d="M432,338.5c-4.419,0-8,3.582-8,8v10.906h-11.979l-72.623-97.696c3.521,1.052,7.781,1.79,13.227,1.79
				c11.515,0,17.775-3.278,22.805-5.913c4.36-2.283,7.804-4.087,15.382-4.087c7.579,0,11.022,1.804,15.381,4.087
				c5.03,2.635,11.291,5.913,22.806,5.913c4.418,0,8-3.582,8-8c0-4.418-3.582-8-8-8c-7.579,0-11.023-1.804-15.382-4.087
				c-5.03-2.635-11.29-5.913-22.805-5.913s-17.775,3.278-22.805,5.913c-4.36,2.283-7.804,4.087-15.382,4.087
				c-7.577,0-11.02-1.804-15.379-4.087c-3.866-2.025-8.249-4.32-15.037-5.359c-0.144-0.022-0.286-0.029-0.43-0.044l-95.36-128.283
				c-0.096-0.129-0.211-0.237-0.314-0.359c-0.155-0.184-0.304-0.373-0.475-0.543c-0.145-0.144-0.305-0.267-0.46-0.398
				c-0.162-0.138-0.316-0.282-0.489-0.407c-0.177-0.128-0.367-0.232-0.553-0.345c-0.17-0.103-0.332-0.213-0.51-0.304
				c-0.217-0.11-0.445-0.193-0.67-0.283c-0.147-0.058-0.284-0.134-0.436-0.184c-0.018-0.006-0.036-0.007-0.053-0.013
				c-0.242-0.078-0.492-0.126-0.741-0.181c-0.16-0.035-0.319-0.087-0.48-0.112c-0.222-0.035-0.448-0.039-0.673-0.055
				c-0.189-0.013-0.378-0.042-0.567-0.042c-0.189,0-0.378,0.029-0.567,0.042c-0.225,0.016-0.451,0.02-0.673,0.055
				c-0.162,0.025-0.321,0.077-0.482,0.112c-0.248,0.055-0.497,0.103-0.738,0.181c-0.018,0.006-0.036,0.007-0.054,0.013
				c-0.153,0.051-0.291,0.126-0.439,0.185c-0.224,0.089-0.45,0.172-0.666,0.281c-0.179,0.091-0.342,0.202-0.512,0.305
				c-0.185,0.112-0.374,0.216-0.551,0.344c-0.173,0.125-0.328,0.27-0.49,0.408c-0.154,0.131-0.314,0.254-0.459,0.398
				c-0.171,0.17-0.32,0.359-0.475,0.543c-0.103,0.122-0.218,0.229-0.314,0.359L112.607,243.56c-1.491-0.617-2.905-1.34-4.445-2.147
				c-5.03-2.635-11.289-5.913-22.803-5.913s-17.773,3.278-22.802,5.913c-4.359,2.283-7.802,4.087-15.379,4.087
				c-7.576,0-11.018-1.804-15.377-4.087C26.772,238.779,20.513,235.5,9,235.5c-4.419,0-8,3.582-8,8c0,4.418,3.581,8,8,8
				c7.576,0,11.019,1.804,15.377,4.087c5.029,2.634,11.288,5.913,22.802,5.913c11.514,0,17.773-3.279,22.803-5.913
				c4.359-2.283,7.802-4.087,15.379-4.087c7.577,0,11.02,1.804,15.378,4.087c0.68,0.356,1.382,0.724,2.116,1.093L27.979,357.406H16
				V346.5c0-4.418-3.582-8-8-8c-4.419,0-8,3.582-8,8v37c0,4.418,3.581,8,8,8c4.418,0,8-3.582,8-8v-10.094h16h188h187.953
				c0.016,0,0.031,0.002,0.047,0.002c0.008,0,0.017-0.002,0.025-0.002H424V383.5c0,4.418,3.581,8,8,8c4.418,0,8-3.582,8-8v-37
				C440,342.082,436.418,338.5,432,338.5z M212,357.406H47.915l12.814-17.238c0.72,0.213,1.481,0.332,2.271,0.332h149V357.406z
				 M212,324.5H72.376L212,136.672V324.5z M228,357.406V254.595l51.476,72.535c0.957,1.349,2.309,2.368,3.87,2.917l77.794,27.359
				H228z M346.882,335.431c-0.114-0.192-0.231-0.384-0.363-0.569l-37-52c-2.563-3.6-7.557-4.443-11.157-1.881
				c-3.6,2.562-4.442,7.557-1.88,11.156l24.265,34.102l-29.694-10.443L228,226.95v-90.278l157.968,212.506L346.882,335.431z"/>
			<path d="M283.75,116.5h114.11c4.137,0,7.591-3.153,7.967-7.273c0.115-1.26,0.173-2.514,0.173-3.727c0-22.056-17.944-40-40-40
				c-4.653,0-9.23,0.802-13.542,2.351C344.371,55.886,330.799,48.5,316,48.5c-24.262,0-44,19.738-44,44
				c0,6.867,1.544,13.45,4.588,19.565C277.941,114.782,280.715,116.5,283.75,116.5z M316,64.5c11.213,0,21.32,6.664,25.749,16.978
				c0.921,2.145,2.733,3.78,4.961,4.478c2.228,0.698,4.649,0.388,6.628-0.85c3.776-2.358,8.154-3.605,12.662-3.605
				c11.519,0,21.17,8.158,23.476,19H289.157c-0.769-2.573-1.157-5.25-1.157-8C288,77.061,300.56,64.5,316,64.5z"/>
			<path d="M37.75,124.5h114.11c4.137,0,7.591-3.153,7.967-7.273c0.115-1.26,0.173-2.514,0.173-3.727c0-22.056-17.944-40-40-40
				c-4.653,0-9.23,0.802-13.542,2.351C98.371,63.886,84.799,56.5,70,56.5c-24.262,0-44,19.738-44,44
				c0,6.867,1.544,13.45,4.588,19.565C31.941,122.782,34.715,124.5,37.75,124.5z M70,72.5c11.213,0,21.32,6.664,25.749,16.978
				c0.921,2.145,2.733,3.78,4.961,4.478c2.227,0.699,4.649,0.387,6.628-0.85c3.776-2.358,8.154-3.605,12.662-3.605
				c11.519,0,21.17,8.158,23.476,19H43.157c-0.769-2.573-1.157-5.25-1.157-8C42,85.061,54.56,72.5,70,72.5z"/>
		</g>
	</g>
</g>
<g>
</g>
<g>
</g>
<g>
</g>
<g>
</g>
<g>
</g>
<g>
</g>
<g>
</g>
<g>
</g>
<g>
</g>
<g>
</g>
<g>
</g>
<g>
</g>
<g>
</g>
<g>
</g>
<g>
</g>
</svg>
