<?xml version="1.0" encoding="iso-8859-1"?>
<!-- Generator: Adobe Illustrator 19.0.0, SVG Export Plug-In . SVG Version: 6.00 Build 0)  -->
<svg version="1.1" id="Layer_1" xmlns="http://www.w3.org/2000/svg" xmlns:xlink="http://www.w3.org/1999/xlink" x="0px" y="0px"
	 viewBox="0 0 466 466" style="enable-background:new 0 0 466 466;" xml:space="preserve">
<g>
	<g>
		<g>
			<path d="M333,0H133c-4.418,0-8,3.582-8,8v450c0,4.418,3.582,8,8,8h200c4.418,0,8-3.582,8-8V8C341,3.582,337.418,0,333,0z
				 M325,450H141V16h184V450z"/>
			<path d="M167.566,362.48c1.489,33.478,28.876,60.908,62.349,62.448C230.94,424.977,231.977,425,233,425
				c17.496,0,33.944-6.814,46.315-19.185c12.371-12.371,19.185-28.819,19.185-46.315c0-22.362-11.38-43.037-30-55.052V75.225
				C268.5,55.802,252.698,40,233.275,40h-0.551C213.302,40,197.5,55.802,197.5,75.225v229.219
				C177.887,317.057,166.516,338.873,167.566,362.48z M209.332,316.016c2.569-1.401,4.168-4.096,4.168-7.022V75.225
				C213.5,64.624,222.124,56,232.725,56h0.551c10.601,0,19.225,8.624,19.225,19.225v233.769c0,2.927,1.599,5.621,4.168,7.022
				c15.934,8.694,25.832,25.357,25.832,43.484c0,13.222-5.148,25.652-14.498,35.002C258.652,403.852,246.223,409,233,409
				c-0.778,0-1.561-0.018-2.349-0.054c-25.287-1.164-45.976-21.887-47.101-47.177C182.701,342.688,192.58,325.156,209.332,316.016z"
				/>
			<path d="M233,389c15.99,0,29-13.01,29-29c0-13.215-8.889-24.387-21-27.869V207c0-4.418-3.582-8-8-8c-4.418,0-8,3.582-8,8v125.131
				c-12.111,3.482-21,14.654-21,27.869C204,375.99,217.01,389,233,389z M233,347c7.168,0,13,5.832,13,13c0,7.168-5.832,13-13,13
				c-7.168,0-13-5.832-13-13C220,352.832,225.832,347,233,347z"/>
			<path d="M288,279h16c4.418,0,8-3.582,8-8c0-4.418-3.582-8-8-8h-16c-4.418,0-8,3.582-8,8C280,275.418,283.582,279,288,279z"/>
			<path d="M288,245h16c4.418,0,8-3.582,8-8c0-4.418-3.582-8-8-8h-16c-4.418,0-8,3.582-8,8C280,241.418,283.582,245,288,245z"/>
			<path d="M288,211h16c4.418,0,8-3.582,8-8c0-4.418-3.582-8-8-8h-16c-4.418,0-8,3.582-8,8C280,207.418,283.582,211,288,211z"/>
			<path d="M288,177h16c4.418,0,8-3.582,8-8c0-4.418-3.582-8-8-8h-16c-4.418,0-8,3.582-8,8C280,173.418,283.582,177,288,177z"/>
			<path d="M288,143h16c4.418,0,8-3.582,8-8c0-4.418-3.582-8-8-8h-16c-4.418,0-8,3.582-8,8C280,139.418,283.582,143,288,143z"/>
			<path d="M288,109h16c4.418,0,8-3.582,8-8c0-4.418-3.582-8-8-8h-16c-4.418,0-8,3.582-8,8C280,105.418,283.582,109,288,109z"/>
			<path d="M161,279h16c4.418,0,8-3.582,8-8c0-4.418-3.582-8-8-8h-16c-4.418,0-8,3.582-8,8C153,275.418,156.582,279,161,279z"/>
			<path d="M161,245h16c4.418,0,8-3.582,8-8c0-4.418-3.582-8-8-8h-16c-4.418,0-8,3.582-8,8C153,241.418,156.582,245,161,245z"/>
			<path d="M161,211h16c4.418,0,8-3.582,8-8c0-4.418-3.582-8-8-8h-16c-4.418,0-8,3.582-8,8C153,207.418,156.582,211,161,211z"/>
			<path d="M161,177h16c4.418,0,8-3.582,8-8c0-4.418-3.582-8-8-8h-16c-4.418,0-8,3.582-8,8C153,173.418,156.582,177,161,177z"/>
			<path d="M161,143h16c4.418,0,8-3.582,8-8c0-4.418-3.582-8-8-8h-16c-4.418,0-8,3.582-8,8C153,139.418,156.582,143,161,143z"/>
			<path d="M161,109h16c4.418,0,8-3.582,8-8c0-4.418-3.582-8-8-8h-16c-4.418,0-8,3.582-8,8C153,105.418,156.582,109,161,109z"/>
		</g>
	</g>
</g>
<g>
</g>
<g>
</g>
<g>
</g>
<g>
</g>
<g>
</g>
<g>
</g>
<g>
</g>
<g>
</g>
<g>
</g>
<g>
</g>
<g>
</g>
<g>
</g>
<g>
</g>
<g>
</g>
<g>
</g>
</svg>
