<?xml version="1.0" encoding="iso-8859-1"?>
<!-- Generator: Adobe Illustrator 19.0.0, SVG Export Plug-In . SVG Version: 6.00 Build 0)  -->
<svg version="1.1" id="Layer_1" xmlns="http://www.w3.org/2000/svg" xmlns:xlink="http://www.w3.org/1999/xlink" x="0px" y="0px"
	 viewBox="0 0 405.5 405.5" style="enable-background:new 0 0 405.5 405.5;" xml:space="preserve">
<g>
	<g>
		<g>
			<path d="M136.75,219c-15.439,0-28,12.561-28,28c0,15.439,12.561,28,28,28s28-12.56,28-28S152.189,219,136.75,219z M136.75,259
				c-6.617,0-12-5.383-12-12s5.383-12,12-12s12,5.383,12,12S143.367,259,136.75,259z"/>
			<path d="M264.75,219c-15.439,0-28,12.561-28,28c0,15.439,12.561,28,28,28c15.439,0,28-12.56,28-28S280.19,219,264.75,219z
				 M264.75,259c-6.617,0-12-5.383-12-12s5.383-12,12-12s12,5.383,12,12S271.367,259,264.75,259z"/>
			<path d="M396.407,391.843l-87.995-87.995c10.829-8.225,17.838-21.232,17.838-35.848V45c0-24.813-20.187-45-45-45h-161
				c-24.813,0-45,20.187-45,45v223c0,15.644,8.029,29.443,20.177,37.509L9.093,391.843c-3.125,3.124-3.125,8.189,0,11.313
				c1.562,1.562,3.609,2.343,5.657,2.343s4.095-0.781,5.657-2.343l91.029-91.029c2.852,0.569,5.798,0.872,8.814,0.872h12.686
				l-54.339,54.339c-0.003,0.003-0.005,0.005-0.008,0.008l-22.496,22.496c-3.125,3.124-3.125,8.189,0,11.313
				c1.562,1.562,3.609,2.343,5.657,2.343s4.095-0.781,5.657-2.343L87.563,381H317.25c0.221,0,0.437-0.016,0.654-0.033l20.19,20.19
				c1.562,1.562,3.609,2.343,5.657,2.343c2.048,0,4.095-0.781,5.657-2.343c3.125-3.124,3.125-8.189,0-11.313L272.564,313h8.686
				c4.17,0,8.204-0.582,12.038-1.648l91.805,91.805c1.562,1.562,3.609,2.343,5.657,2.343c2.048,0,4.095-0.781,5.657-2.343
				C399.531,400.033,399.531,394.967,396.407,391.843z M280.25,344c0.221,0,0.437-0.016,0.654-0.033L301.937,365H103.563
				l21.151-21.151c0.497,0.097,1.01,0.151,1.536,0.151H280.25z M140.564,328l15-15h94.373l14.999,15H140.564z M281.25,297h-161
				c-15.991,0-29-13.009-29-29V45c0-15.991,13.009-29,29-29h161c15.991,0,29,13.009,29,29v223
				C310.25,283.991,297.241,297,281.25,297z"/>
			<path d="M123.25,194h155c4.418,0,8-3.581,8-8V48c0-4.418-3.582-8-8-8h-155c-4.419,0-8,3.582-8,8v84.497c0,0.002,0,0.003,0,0.005
				v41.995c0,0.002,0,0.004,0,0.006V186C115.25,190.419,118.831,194,123.25,194z M131.25,56h57.186l-57.186,57.187V56z
				 M210.907,56.157c0.05-0.05,0.093-0.105,0.142-0.157h19.388l-99.186,99.186v-19.372h-0.001L210.907,56.157z M131.25,177.814
				L253.064,56h17.186v122h-139V177.814z"/>
		</g>
	</g>
</g>
<g>
</g>
<g>
</g>
<g>
</g>
<g>
</g>
<g>
</g>
<g>
</g>
<g>
</g>
<g>
</g>
<g>
</g>
<g>
</g>
<g>
</g>
<g>
</g>
<g>
</g>
<g>
</g>
<g>
</g>
</svg>
